<svg width="40" height="68" viewBox="0 0 40 68" fill="none" xmlns="http://www.w3.org/2000/svg">
<path d="M7.61613 39.0859H7.23213V46.5739H7.61613V39.0859ZM9.44013 43.5979C9.37613 43.4059 9.37613 43.1819 9.44013 42.9259V43.5979ZM17.6001 45.0379C17.6641 44.9099 17.6961 44.8779 17.6961 44.9419C17.7601 45.0059 17.7601 45.1019 17.6961 45.2299C17.6961 45.2939 17.6641 45.3259 17.6001 45.3259C17.5361 45.2619 17.5361 45.1659 17.6001 45.0379ZM11.4561 42.4459C11.3921 42.3179 11.3921 42.2539 11.4561 42.2539C11.5841 42.2539 11.6161 42.3179 11.5521 42.4459V42.5419C11.5521 42.5419 11.5201 42.5099 11.4561 42.4459ZM15.6801 44.6539C15.6801 44.5899 15.6481 44.3979 15.5841 44.0779C15.5841 43.6939 15.5841 43.3099 15.5841 42.9259C15.5841 42.4779 15.5841 42.0939 15.5841 41.7739C15.6481 41.3899 15.6801 41.1019 15.6801 40.9099C15.6801 41.2299 15.6801 41.8059 15.6801 42.6379C15.7441 43.4059 15.7441 44.0779 15.6801 44.6539ZM3.39213 54.0619C3.45613 53.9979 3.58413 53.8699 3.77613 53.6779C4.03213 53.4859 4.28813 53.2939 4.54413 53.1019C4.86413 52.8459 5.12013 52.6219 5.31213 52.4299C5.56813 52.1739 5.72813 52.0139 5.79213 51.9499H20.8641V65.3899C20.7361 65.5179 20.3201 65.8699 19.6161 66.4459C18.9761 67.0219 18.5921 67.3739 18.4641 67.5019H3.39213V54.0619ZM6.84813 56.3659C6.84813 56.1099 6.81613 55.9179 6.75213 55.7899C6.75213 55.5979 6.75213 55.4059 6.75213 55.2139H5.60013H4.73613V66.3499H5.12013C5.12013 65.7739 5.08813 64.9739 5.02413 63.9499C5.02413 62.8619 5.02413 61.8059 5.02413 60.7819C5.02413 59.6939 5.02413 58.7339 5.02413 57.9019C5.08813 57.0699 5.12013 56.6539 5.12013 56.6539C5.12013 56.7819 5.12013 57.2619 5.12013 58.0939C5.18413 58.8619 5.21613 59.7899 5.21613 60.8779C5.21613 61.9019 5.18413 62.9259 5.12013 63.9499C5.12013 64.9739 5.12013 65.7739 5.12013 66.3499H5.40813C5.40813 66.2219 5.40813 66.0939 5.40813 65.9659C5.47213 65.7739 5.50413 65.6459 5.50413 65.5819C5.50413 65.7099 5.50413 65.8379 5.50413 65.9659C5.56813 66.0939 5.60013 66.2219 5.60013 66.3499H6.84813V65.7739C6.84813 65.9019 6.84813 65.9979 6.84813 66.0619C6.91213 66.1259 6.94413 66.2219 6.94413 66.3499H7.52013C7.52013 65.7099 7.52013 64.8139 7.52013 63.6619C7.58413 62.5099 7.61613 61.3579 7.61613 60.2059C7.61613 59.0539 7.61613 58.0619 7.61613 57.2299C7.68013 56.3339 7.71213 55.8539 7.71213 55.7899C7.71213 55.9179 7.71213 56.4299 7.71213 57.3259C7.71213 58.1579 7.71213 59.1499 7.71213 60.3019C7.77613 61.4539 7.80813 62.6059 7.80813 63.7579C7.80813 64.8459 7.80813 65.7099 7.80813 66.3499H9.63213C9.63213 66.0939 9.63213 65.7099 9.63213 65.1979C9.63213 64.6219 9.66413 64.2699 9.72813 64.1419C9.72813 64.2699 9.72813 64.6219 9.72813 65.1979C9.72813 65.7099 9.76013 66.0939 9.82413 66.3499H10.8801C10.8161 65.2619 10.7841 63.9819 10.7841 62.5099C10.8481 60.9739 10.9121 59.8219 10.9761 59.0539C10.9761 59.3739 10.9761 59.8219 10.9761 60.3979C11.0401 60.9739 11.0721 61.6139 11.0721 62.3179C11.0721 63.0219 11.0721 63.7579 11.0721 64.5259C11.0721 65.2299 11.0721 65.8379 11.0721 66.3499H13.7601C13.7601 66.0939 13.7601 65.8699 13.7601 65.6779C13.8241 65.4219 13.8561 65.2299 13.8561 65.1019C13.9201 65.2939 13.9521 65.5179 13.9521 65.7739C13.9521 65.9659 13.9841 66.1579 14.0481 66.3499H14.5281C14.5281 66.0299 14.5281 65.6139 14.5281 65.1019C14.5281 64.5899 14.5281 64.0779 14.5281 63.5659C14.5281 62.9899 14.5281 62.4459 14.5281 61.9339C14.5281 61.4219 14.5281 61.0379 14.5281 60.7819C14.5281 60.9099 14.5281 61.1979 14.5281 61.6459C14.5921 62.0939 14.6241 62.6059 14.6241 63.1819C14.6241 63.7579 14.5921 64.3659 14.5281 65.0059C14.5281 65.5819 14.5281 66.0299 14.5281 66.3499H16.0641C16.0641 65.9659 16.0961 65.7099 16.1601 65.5819C16.1601 65.9019 16.1921 66.1579 16.2561 66.3499C16.3201 66.0299 16.3521 65.6779 16.3521 65.2939C16.4161 64.9099 16.4481 64.6219 16.4481 64.4299C16.5121 64.7499 16.5441 65.0699 16.5441 65.3899C16.6081 65.7099 16.6721 66.0299 16.7361 66.3499H17.2161V55.2139H16.3521C16.2241 55.8539 16.1601 56.3979 16.1601 56.8459C16.0961 56.5259 16.0321 56.2699 15.9681 56.0779C15.9681 55.8219 15.9361 55.5339 15.8721 55.2139H13.2801C13.2161 55.4699 13.1841 55.7579 13.1841 56.0779C13.1201 55.8859 13.0881 55.5979 13.0881 55.2139H10.3041C10.3041 55.9179 10.2721 56.8459 10.2081 57.9979C10.2081 59.1499 10.2081 60.3019 10.2081 61.4539C10.2081 62.5419 10.2081 63.4699 10.2081 64.2379C10.2081 65.0059 10.2081 65.3899 10.2081 65.3899C10.2081 65.2619 10.1761 64.8139 10.1121 64.0459C10.1121 63.2139 10.1121 62.2539 10.1121 61.1659C10.1121 60.0779 10.0801 58.9899 10.0161 57.9019C10.0161 56.8139 10.0161 55.9179 10.0161 55.2139H9.63213C9.63213 55.3419 9.60013 55.4379 9.53613 55.5019C9.53613 55.5659 9.53613 55.6299 9.53613 55.6939V55.2139H6.94413C6.94413 55.4699 6.91213 55.6939 6.84813 55.8859C6.84813 56.0779 6.84813 56.2379 6.84813 56.3659ZM12.8001 56.4619C12.8001 57.2299 12.8001 58.0939 12.8001 59.0539C12.8001 60.0139 12.8001 60.9419 12.8001 61.8379C12.8001 62.7339 12.8001 63.5339 12.8001 64.2379C12.8001 64.9419 12.8001 65.4219 12.8001 65.6779C12.7361 65.2939 12.6721 64.7179 12.6081 63.9499C12.6081 63.1179 12.6081 62.2219 12.6081 61.2619C12.6081 60.3019 12.6081 59.4059 12.6081 58.5739C12.6721 57.6779 12.7361 56.9739 12.8001 56.4619ZM6.75213 61.3579C6.68813 61.1019 6.68813 60.8459 6.75213 60.5899V61.3579ZM13.8561 57.2299V56.5579V57.2299ZM15.4881 65.1019C15.4241 65.1019 15.3601 65.1019 15.2961 65.1019C15.2961 65.0379 15.3601 65.0059 15.4881 65.0059V65.1019ZM14.3361 61.1659V61.2619V61.1659ZM14.3361 59.2459C14.4001 59.3739 14.4001 59.6619 14.3361 60.1099C14.3361 60.5579 14.3361 60.9099 14.3361 61.1659C14.3361 60.9099 14.3041 60.5259 14.2401 60.0139C14.2401 59.4379 14.2721 59.1819 14.3361 59.2459ZM15.2961 56.3659C15.2961 56.4939 15.2961 56.8459 15.2961 57.4219C15.3601 57.9339 15.3921 58.5419 15.3921 59.2459C15.3921 59.8859 15.3601 60.5259 15.2961 61.1659C15.2961 61.7419 15.2961 62.1259 15.2961 62.3179C15.2961 62.1259 15.2961 61.7739 15.2961 61.2619C15.2961 60.7499 15.2961 60.1739 15.2961 59.5339C15.2961 58.8939 15.2961 58.2859 15.2961 57.7099C15.2961 57.1339 15.2961 56.6859 15.2961 56.3659ZM5.60013 61.1659C5.60013 60.9739 5.60013 60.6219 5.60013 60.1099C5.60013 59.5979 5.60013 59.0539 5.60013 58.4779C5.60013 57.8379 5.60013 57.2299 5.60013 56.6539C5.60013 56.0139 5.60013 55.5339 5.60013 55.2139C5.60013 55.3419 5.60013 55.6939 5.60013 56.2699C5.66413 56.7819 5.69613 57.3899 5.69613 58.0939C5.69613 58.7339 5.66413 59.3739 5.60013 60.0139C5.60013 60.5899 5.60013 60.9739 5.60013 61.1659ZM7.23213 57.0379C7.23213 57.1019 7.20013 57.1339 7.13613 57.1339C7.13613 57.1339 7.16813 57.0699 7.23213 56.9419V57.0379ZM11.1681 55.5979C11.2321 55.6619 11.2641 55.7259 11.2641 55.7899C11.2001 55.7899 11.1681 55.7579 11.1681 55.6939V55.5979ZM11.0721 58.0939C11.0721 58.0939 11.0721 57.9339 11.0721 57.6139V58.0939ZM20.1921 6.34994C19.6161 6.34994 18.4961 6.38194 16.8321 6.44594C15.2321 6.44594 13.4721 6.44594 11.5521 6.44594C9.69613 6.44594 7.87213 6.44594 6.08013 6.44594C4.28813 6.44594 2.94413 6.41394 2.04813 6.34994C2.88013 6.28593 4.22413 6.25393 6.08013 6.25393C8.00013 6.18993 9.95213 6.15793 11.9361 6.15793C13.9201 6.15793 15.7121 6.18993 17.3121 6.25393C18.9121 6.25393 19.8721 6.28593 20.1921 6.34994ZM18.1761 16.3339C17.7281 16.3339 16.9601 16.3659 15.8721 16.4299C14.8481 16.4299 13.7601 16.4299 12.6081 16.4299C11.4561 16.4299 10.3681 16.4299 9.34413 16.4299C8.32013 16.4299 7.61613 16.3979 7.23213 16.3339C7.48813 16.2699 8.12813 16.2379 9.15213 16.2379C10.2401 16.2379 11.3921 16.2379 12.6081 16.2379C13.8241 16.2379 14.9761 16.2379 16.0641 16.2379C17.1521 16.2379 17.8561 16.2699 18.1761 16.3339ZM18.1761 13.9339C18.0481 13.9979 17.8241 14.0299 17.5041 14.0299C17.1841 14.0299 16.9921 13.9979 16.9281 13.9339C17.1841 13.8059 17.6001 13.8059 18.1761 13.9339ZM4.16013 15.8539C4.35213 15.7899 4.48013 15.7899 4.54413 15.8539C4.67213 15.9179 4.67213 15.9819 4.54413 16.0459C4.41613 16.0459 4.25613 16.0459 4.06413 16.0459C3.93613 16.0459 3.96813 15.9819 4.16013 15.8539ZM7.13613 7.30994C7.26413 7.24594 7.36013 7.24594 7.42413 7.30994C7.48813 7.30994 7.45613 7.34194 7.32813 7.40594C7.20013 7.46993 7.10413 7.46993 7.04013 7.40594C7.04013 7.34194 7.07213 7.30994 7.13613 7.30994ZM12.2241 5.86994C11.9681 5.93394 11.7441 5.93394 11.5521 5.86994C11.6801 5.67794 11.9041 5.67794 12.2241 5.86994ZM21.3441 36.9739C20.8961 37.0379 20.1281 37.1019 19.0401 37.1659C18.0161 37.1659 16.9281 37.1659 15.7761 37.1659C14.6241 37.1659 13.5361 37.1659 12.5121 37.1659C11.4881 37.1019 10.7841 37.0379 10.4001 36.9739C10.6561 36.9739 11.2961 36.9739 12.3201 36.9739C13.4081 36.9099 14.5601 36.8779 15.7761 36.8779C16.9921 36.8779 18.1441 36.9099 19.2321 36.9739C20.3201 36.9739 21.0241 36.9739 21.3441 36.9739ZM21.3441 34.6699C21.2161 34.7339 20.9921 34.7659 20.6721 34.7659C20.3521 34.7659 20.1601 34.7339 20.0961 34.6699C20.2241 34.5419 20.3841 34.5099 20.5761 34.5739C20.8321 34.5739 21.0881 34.6059 21.3441 34.6699ZM7.32813 36.5899C7.52013 36.4619 7.64813 36.4619 7.71213 36.5899C7.84013 36.6539 7.84013 36.6859 7.71213 36.6859C7.58413 36.7499 7.42413 36.7819 7.23213 36.7819C7.10413 36.7819 7.13613 36.7179 7.32813 36.5899ZM10.4961 28.0459C10.3681 28.1099 10.2721 28.1099 10.2081 28.0459C10.2081 27.9819 10.2401 27.9499 10.3041 27.9499C10.4321 27.9499 10.5281 27.9819 10.5921 28.0459C10.6561 28.0459 10.6241 28.0459 10.4961 28.0459ZM15.3921 26.5099C15.1361 26.7019 14.9121 26.7019 14.7201 26.5099C14.8481 26.3819 15.0721 26.3819 15.3921 26.5099ZM39.2961 0.973938V36.9739C39.2321 37.0379 39.0721 37.1979 38.8161 37.4539C38.5601 37.6459 38.3041 37.8699 38.0481 38.1259C37.7921 38.3819 37.5361 38.6379 37.2801 38.8939C37.0881 39.0859 36.9601 39.2139 36.8961 39.2779H21.0561V47.7259C20.9281 47.8539 20.5121 48.2059 19.8081 48.7819C19.1681 49.3579 18.7841 49.7099 18.6561 49.8379H3.29613V24.0139C3.36013 23.9499 3.48813 23.8219 3.68013 23.6299C3.93613 23.3739 4.16013 23.1179 4.35213 22.8619C4.60813 22.6059 4.83213 22.3819 5.02413 22.1899C5.21613 21.9339 5.34413 21.7739 5.40813 21.7099H21.8241V18.4459H0.128131V3.37394C0.192131 3.30994 0.320131 3.14994 0.512131 2.89394C0.768131 2.63794 0.992131 2.38194 1.18413 2.12593C1.44013 1.86993 1.66413 1.64594 1.85613 1.45394C2.04813 1.19794 2.17613 1.03794 2.24013 0.973938H24.2241H38.5281H39.2961ZM7.61613 46.5739V39.0859H7.23213V46.5739H7.61613ZM19.7121 39.0859H19.0401V39.1819V39.0859H18.0801C18.0801 39.4059 18.0801 39.8219 18.0801 40.3339C18.1441 40.8459 18.1761 41.3899 18.1761 41.9659C18.1761 42.5419 18.1441 43.1179 18.0801 43.6939C18.0801 44.2059 18.0801 44.5899 18.0801 44.8459V39.0859H16.7361C16.7361 39.9179 16.7041 40.6219 16.6401 41.1979C16.6401 41.7739 16.6401 42.1579 16.6401 42.3499V39.0859H16.2561C16.2561 40.5579 16.2561 41.9659 16.2561 43.3099C16.2561 44.5899 16.2241 45.4859 16.1601 45.9979C16.0961 45.6139 16.0321 44.7499 15.9681 43.4059C15.9681 41.9979 16.0001 40.5579 16.0641 39.0859H15.0081V39.7579C14.8801 39.6299 14.8801 39.4059 15.0081 39.0859H12.8961C12.8961 40.3659 12.8961 41.6139 12.8961 42.8299C12.8961 43.9819 12.8641 44.5899 12.8001 44.6539C12.8001 44.5259 12.7681 43.8859 12.7041 42.7339C12.7041 41.5819 12.7041 40.3659 12.7041 39.0859H12.3201V40.2379V39.0859H10.0161C10.0161 40.5579 10.0161 41.8379 10.0161 42.9259C10.0161 43.9499 9.98413 44.4939 9.92013 44.5579V39.0859H9.53613C9.53613 39.9819 9.50413 40.7499 9.44013 41.3899C9.44013 41.9659 9.44013 42.2859 9.44013 42.3499C9.44013 42.2219 9.44013 41.8699 9.44013 41.2939C9.44013 40.7179 9.40813 39.9819 9.34413 39.0859H7.90413C7.84013 40.4939 7.80813 41.8699 7.80813 43.2139C7.80813 44.5579 7.77613 45.6779 7.71213 46.5739H9.05613C9.05613 46.2539 9.05613 45.9339 9.05613 45.6139C9.12013 45.2939 9.15213 45.0699 9.15213 44.9419C9.21613 45.1339 9.24813 45.3899 9.24813 45.7099C9.24813 46.0299 9.28013 46.3179 9.34413 46.5739H10.2081V45.9979C10.2081 46.1259 10.2081 46.2219 10.2081 46.2859C10.2721 46.3499 10.3041 46.4459 10.3041 46.5739H13.5681C13.5681 46.3819 13.5681 46.2219 13.5681 46.0939C13.6321 45.9019 13.6641 45.7419 13.6641 45.6139C13.6641 45.8699 13.6641 46.0619 13.6641 46.1899C13.7281 46.3179 13.7601 46.4459 13.7601 46.5739H14.8161C14.8801 46.3179 14.9121 45.9659 14.9121 45.5179C14.9761 45.0699 15.0081 44.7499 15.0081 44.5579C15.0721 44.9419 15.1041 45.2939 15.1041 45.6139C15.1681 45.9339 15.2321 46.2539 15.2961 46.5739H15.3921V45.9019C15.4561 46.0939 15.4881 46.3179 15.4881 46.5739H16.6401C16.6401 46.3819 16.6401 46.2219 16.6401 46.0939C16.7041 45.9659 16.7361 45.8379 16.7361 45.7099C16.7361 45.8379 16.7361 45.9979 16.7361 46.1899C16.8001 46.3179 16.8321 46.4459 16.8321 46.5739H18.7521V46.0939C18.8161 46.1579 18.8481 46.3179 18.8481 46.5739H19.7121V39.0859ZM21.8241 30.4459C20.6081 30.5099 19.2961 30.5419 17.8881 30.5419C16.5441 30.5419 15.3921 30.5099 14.4321 30.4459C14.4321 31.2779 14.0161 31.6939 13.1841 31.6939C12.3521 31.6939 11.9361 31.2779 11.9361 30.4459C11.9361 30.2539 11.9681 30.0939 12.0321 29.9659C10.5601 30.0299 9.08813 30.0619 7.61613 30.0619C6.20813 30.0619 5.18413 30.0299 4.54413 29.9659V31.5979C4.80013 31.5979 5.05613 31.6299 5.31213 31.6939C5.63213 31.6939 5.88813 31.6939 6.08013 31.6939C5.95213 31.6939 5.72813 31.7259 5.40813 31.7899C5.15213 31.7899 4.86413 31.7899 4.54413 31.7899V34.4779C5.24813 34.4779 6.17613 34.4779 7.32813 34.4779C8.48013 34.4139 9.63213 34.3819 10.7841 34.3819C12.0001 34.3819 13.0881 34.4139 14.0481 34.4779C15.0081 34.4779 15.6481 34.4779 15.9681 34.4779C15.5841 34.5419 14.8801 34.6059 13.8561 34.6699C12.8961 34.6699 11.8401 34.6699 10.6881 34.6699C9.53613 34.6699 8.38413 34.6699 7.23213 34.6699C6.14413 34.6059 5.24813 34.5739 4.54413 34.5739V36.6859C4.73613 36.6859 4.89613 36.7179 5.02413 36.7819C4.83213 36.7819 4.67213 36.8139 4.54413 36.8779V37.7419H21.8241V36.2059C21.3121 36.2059 20.8321 36.2059 20.3841 36.2059C20.0001 36.2059 19.6161 36.1739 19.2321 36.1099C19.5521 36.1099 19.9361 36.1099 20.3841 36.1099C20.8321 36.0459 21.3121 36.0139 21.8241 36.0139V33.3259C20.9921 33.3259 20.5761 33.2939 20.5761 33.2299H21.8241V32.8459C19.5841 32.8459 17.5361 32.8459 15.6801 32.8459C13.8881 32.8459 12.6081 32.8139 11.8401 32.7499C12.5441 32.6859 13.8241 32.6539 15.6801 32.6539C17.5361 32.5899 19.5841 32.5579 21.8241 32.5579V30.4459ZM21.8241 25.3579H4.54413V26.5099H4.83213C4.83213 26.5739 4.80013 26.6059 4.73613 26.6059H4.54413V28.7179C4.67213 28.7179 4.80013 28.7179 4.92813 28.7179C5.05613 28.7179 5.18413 28.7499 5.31213 28.8139C5.24813 28.8139 5.12013 28.8459 4.92813 28.9099C4.80013 28.9099 4.67213 28.9099 4.54413 28.9099V29.1979C4.80013 29.1979 5.24813 29.2299 5.88813 29.2939C6.59213 29.2939 7.00813 29.3259 7.13613 29.3899C7.07213 29.3899 6.68813 29.4219 5.98413 29.4859C5.34413 29.4859 4.86413 29.4859 4.54413 29.4859V29.8699C5.12013 29.8059 6.14413 29.7739 7.61613 29.7739C9.15213 29.7739 10.6561 29.7739 12.1281 29.7739C12.3201 29.3899 12.6721 29.1979 13.1841 29.1979C13.6321 29.1979 14.0161 29.3899 14.3361 29.7739C14.8481 29.8379 15.2961 29.8699 15.6801 29.8699C16.1281 29.8699 16.4481 29.8699 16.6401 29.8699C16.3201 29.9339 15.5521 29.9659 14.3361 29.9659C14.4001 30.0299 14.4321 30.1579 14.4321 30.3499C15.3921 30.2859 16.5441 30.2539 17.8881 30.2539C19.2961 30.2539 20.6081 30.2539 21.8241 30.2539V29.1979H20.0001C20.1281 29.1339 20.7361 29.1019 21.8241 29.1019V27.0859C20.8001 27.0859 19.4881 27.1179 17.8881 27.1819C16.3521 27.1819 14.7521 27.1819 13.0881 27.1819C11.4881 27.1819 9.95213 27.1819 8.48013 27.1819C7.07213 27.1179 5.98413 27.0539 5.21613 26.9899C5.92013 26.9259 7.00813 26.8939 8.48013 26.8939C9.95213 26.8939 11.4881 26.8939 13.0881 26.8939C14.7521 26.8939 16.3841 26.9259 17.9841 26.9899C19.5841 26.9899 20.8641 26.9899 21.8241 26.9899V25.3579ZM21.8241 4.62194H1.37613V5.77393C1.50413 5.77393 1.60013 5.80593 1.66413 5.86994H1.37613V7.98193C1.50413 7.98193 1.63213 8.01394 1.76013 8.07794C1.88813 8.07794 2.01613 8.07794 2.14413 8.07794C2.08013 8.07794 1.95213 8.10994 1.76013 8.17394C1.63213 8.17394 1.50413 8.17394 1.37613 8.17394V8.46193C1.63213 8.46193 2.08013 8.49393 2.72013 8.55794C3.42413 8.55794 3.84013 8.58994 3.96813 8.65394C3.90413 8.65394 3.52013 8.68594 2.81613 8.74994C2.17613 8.74994 1.69613 8.78193 1.37613 8.84593V9.13394C1.88813 9.13394 2.72013 9.13394 3.87213 9.13394C5.08813 9.06994 6.33613 9.03794 7.61613 9.03794C8.96013 9.03794 10.1761 9.06994 11.2641 9.13394C12.4161 9.13394 13.1521 9.16594 13.4721 9.22993C13.0241 9.22993 12.2241 9.26193 11.0721 9.32593C9.98413 9.32593 8.80013 9.32593 7.52013 9.32593C6.24013 9.32593 5.02413 9.32593 3.87213 9.32593C2.72013 9.32593 1.88813 9.29393 1.37613 9.22993V10.8619C1.63213 10.9259 1.88813 10.9579 2.14413 10.9579C2.46413 10.9579 2.72013 10.9899 2.91213 11.0539C2.78413 11.0539 2.56013 11.0539 2.24013 11.0539C1.98413 11.0539 1.69613 11.0859 1.37613 11.1499V13.7419C2.08013 13.7419 3.00813 13.7419 4.16013 13.7419C5.31213 13.6779 6.46413 13.6459 7.61613 13.6459C8.83213 13.6459 9.92013 13.6779 10.8801 13.7419C11.8401 13.7419 12.4801 13.7739 12.8001 13.8379C12.4161 13.8379 11.7121 13.8699 10.6881 13.9339C9.72813 13.9339 8.67213 13.9339 7.52013 13.9339C6.36813 13.9339 5.21613 13.9339 4.06413 13.9339C2.97613 13.9339 2.08013 13.9019 1.37613 13.8379V15.9499C1.44013 15.9499 1.50413 15.9819 1.56813 16.0459C1.63213 16.0459 1.72813 16.0459 1.85613 16.0459C1.79213 16.0459 1.72813 16.0779 1.66413 16.1419C1.60013 16.1419 1.50413 16.1419 1.37613 16.1419V17.0059H21.8241V15.5659C20.6721 15.5659 19.5841 15.5659 18.5601 15.5659C17.6001 15.5019 16.7681 15.4699 16.0641 15.4699C16.7041 15.4059 17.5041 15.3739 18.4641 15.3739C19.4881 15.3099 20.6081 15.2779 21.8241 15.2779V12.5899H20.5761C20.5761 12.5259 20.9921 12.4939 21.8241 12.4939V12.1099C18.8801 12.1739 16.1601 12.2059 13.6641 12.2059C11.1681 12.1419 9.50413 12.0779 8.67213 12.0139C9.05613 12.0139 9.66413 12.0139 10.4961 12.0139C11.3921 11.9499 12.4161 11.9179 13.5681 11.9179C14.7841 11.9179 16.0961 11.9179 17.5041 11.9179C18.9121 11.9179 20.3521 11.9179 21.8241 11.9179V9.80593C20.8001 9.80593 19.6481 9.80593 18.3681 9.80593C17.0881 9.80593 15.8401 9.80593 14.6241 9.80593C13.4721 9.80593 12.4481 9.80593 11.5521 9.80593C10.6561 9.74193 10.0801 9.70993 9.82413 9.70993C10.0161 9.70993 10.5601 9.70993 11.4561 9.70993C12.3521 9.64594 13.3761 9.61394 14.5281 9.61394C15.7441 9.61394 16.9921 9.61394 18.2721 9.61394C19.6161 9.61394 20.8001 9.61394 21.8241 9.61394V8.55794C20.5441 8.55794 19.4241 8.55794 18.4641 8.55794C17.5681 8.55794 17.0241 8.52594 16.8321 8.46193C16.9601 8.39793 17.4721 8.36593 18.3681 8.36593C19.3281 8.36593 20.4801 8.36593 21.8241 8.36593V4.62194ZM35.6481 4.62194H34.4001V5.38994C34.4001 5.26194 34.3681 5.13394 34.3041 5.00594C34.3041 4.87794 34.3041 4.74994 34.3041 4.62194H31.8081C31.8081 6.02994 31.8081 7.66194 31.8081 9.51794C31.8721 11.3099 31.9041 13.0699 31.9041 14.7979C31.9041 16.4619 31.8721 17.9019 31.8081 19.1179C31.8081 20.3339 31.8081 21.0699 31.8081 21.3259C31.7441 21.0059 31.6801 20.2379 31.6161 19.0219C31.6161 17.7419 31.6161 16.2699 31.6161 14.6059C31.6161 12.9419 31.6161 11.2139 31.6161 9.42194C31.6801 7.62994 31.7121 6.02994 31.7121 4.62194H30.5601C30.5601 4.94194 30.5281 5.35794 30.4641 5.86994C30.4641 6.38194 30.4641 6.79793 30.4641 7.11793C30.4641 6.79793 30.4321 6.44593 30.3681 6.06194C30.3041 5.61394 30.2721 5.13394 30.2721 4.62194H28.2561C28.2561 6.02994 28.2561 8.01394 28.2561 10.5739C28.3201 13.0699 28.3521 15.6299 28.3521 18.2539C28.3521 20.8779 28.3201 23.3099 28.2561 25.5499C28.2561 27.7259 28.2241 29.2299 28.1601 30.0619C28.0961 29.2299 28.0641 27.6939 28.0641 25.4539C28.0641 23.2139 28.0641 20.8139 28.0641 18.2539C28.0641 15.6299 28.0641 13.0699 28.0641 10.5739C28.1281 8.07794 28.1601 6.09394 28.1601 4.62194H26.8161C26.8161 4.87794 26.7841 5.10194 26.7201 5.29393C26.7201 5.48594 26.7201 5.64594 26.7201 5.77393C26.7201 5.64594 26.6881 5.48594 26.6241 5.29393C26.6241 5.03793 26.6241 4.81393 26.6241 4.62194H26.5281C26.5281 4.94194 26.4961 5.29394 26.4321 5.67793C26.4321 5.99793 26.4321 6.22194 26.4321 6.34994C26.4321 6.09394 26.4001 5.83794 26.3361 5.58194C26.3361 5.26194 26.3361 4.94194 26.3361 4.62194H23.8401V5.67793C23.8401 5.54994 23.8081 5.38994 23.7441 5.19794C23.7441 5.00593 23.7441 4.81393 23.7441 4.62194H23.1681V37.9339H24.0321C24.0321 37.8699 24.0321 37.8379 24.0321 37.8379C24.0961 37.7739 24.1281 37.7099 24.1281 37.6459V37.4539C24.1921 37.5819 24.2241 37.7419 24.2241 37.9339H26.3361C26.3361 37.1659 26.3361 36.2059 26.3361 35.0539C26.3361 33.8379 26.3361 32.6219 26.3361 31.4059C26.3361 30.1259 26.3361 28.9739 26.3361 27.9499C26.4001 26.8619 26.4321 26.0939 26.4321 25.6459C26.4321 25.9659 26.4321 26.6379 26.4321 27.6619C26.4961 28.6859 26.5281 29.8379 26.5281 31.1179C26.5281 32.3979 26.4961 33.6779 26.4321 34.9579C26.4321 36.1739 26.4321 37.1659 26.4321 37.9339H29.1201C29.1201 37.6139 29.1201 37.2939 29.1201 36.9739C29.1841 36.6539 29.2161 36.4299 29.2161 36.3019C29.2801 36.4939 29.3121 36.7499 29.3121 37.0699C29.3121 37.3259 29.3121 37.6139 29.3121 37.9339H31.0401C30.9761 37.3579 30.9441 36.4619 30.9441 35.2459C30.9441 33.9659 30.9441 32.6539 30.9441 31.3099C30.9441 29.9659 30.9441 28.7179 30.9441 27.5659C31.0081 26.3499 31.0401 25.4859 31.0401 24.9739C31.1041 25.2939 31.1361 26.0619 31.1361 27.2779C31.1361 28.4939 31.1361 29.8059 31.1361 31.2139C31.1361 32.5579 31.1041 33.9019 31.0401 35.2459C31.0401 36.5259 31.0401 37.4219 31.0401 37.9339H31.4241C31.4881 37.6139 31.5201 37.1019 31.5201 36.3979C31.5841 35.6299 31.6161 35.2139 31.6161 35.1499C31.6161 35.2779 31.6161 35.6939 31.6161 36.3979C31.6801 37.1019 31.7121 37.6139 31.7121 37.9339H32.0001C32.0001 37.8699 32.0001 37.8059 32.0001 37.7419C32.0641 37.6779 32.0961 37.5819 32.0961 37.4539V37.1659C32.1601 37.2939 32.1921 37.4219 32.1921 37.5499C32.1921 37.6779 32.1921 37.8059 32.1921 37.9339H34.3041C34.3041 37.9339 34.3361 37.8699 34.4001 37.7419V37.6459V37.9339H35.6481V4.62194ZM24.8001 22.1899C24.7361 21.2299 24.7041 20.1099 24.7041 18.8299C24.7041 17.4859 24.7041 16.1739 24.7041 14.8939C24.7041 13.6139 24.7041 12.3979 24.7041 11.2459C24.7681 10.0939 24.8001 9.19794 24.8001 8.55794C24.8001 8.94194 24.8001 9.67794 24.8001 10.7659C24.8641 11.8539 24.8961 13.1019 24.8961 14.5099C24.8961 15.8539 24.8961 17.2299 24.8961 18.6379C24.8961 20.0459 24.8641 21.2299 24.8001 22.1899ZM33.9201 37.2619C33.8561 36.3019 33.8241 35.0219 33.8241 33.4219C33.8241 31.8219 33.8241 30.1899 33.8241 28.5259C33.8241 26.8619 33.8241 25.3259 33.8241 23.9179C33.8881 22.5099 33.9201 21.4859 33.9201 20.8459C33.9201 21.1659 33.9201 22.0299 33.9201 23.4379C33.9841 24.8459 34.0161 26.4139 34.0161 28.1419C34.0161 29.8699 34.0161 31.5979 34.0161 33.3259C34.0161 34.9899 33.9841 36.3019 33.9201 37.2619ZM30.5601 16.0459C30.5601 16.4299 30.5601 17.2619 30.5601 18.5419C30.6241 19.8219 30.6561 21.1979 30.6561 22.6699C30.6561 24.0779 30.6241 25.4219 30.5601 26.7019C30.5601 27.9179 30.5601 28.6539 30.5601 28.9099C30.4961 28.5259 30.4321 27.7259 30.3681 26.5099C30.3681 25.2939 30.3681 24.0139 30.3681 22.6699C30.3681 21.2619 30.3681 19.9499 30.3681 18.7339C30.4321 17.4539 30.4961 16.5579 30.5601 16.0459ZM23.9361 31.5979C23.8721 31.2139 23.8401 30.4779 23.8401 29.3899C23.8401 28.3019 23.8401 27.1499 23.8401 25.9339C23.8401 24.6539 23.8401 23.4699 23.8401 22.3819C23.9041 21.2299 23.9361 20.3979 23.9361 19.8859C24.0001 20.2699 24.0321 21.0379 24.0321 22.1899C24.0321 23.3419 24.0321 24.5579 24.0321 25.8379C24.0321 27.1179 24.0001 28.3339 23.9361 29.4859C23.9361 30.6379 23.9361 31.3419 23.9361 31.5979ZM34.6881 5.19794C34.7521 5.58193 34.7841 6.38194 34.7841 7.59794C34.7841 8.74994 34.7841 9.96593 34.7841 11.2459C34.7841 12.5259 34.7521 13.7419 34.6881 14.8939C34.6881 16.0459 34.6881 16.7499 34.6881 17.0059C34.6241 16.6219 34.5921 15.8859 34.5921 14.7979C34.5921 13.7099 34.5921 12.5579 34.5921 11.3419C34.5921 10.0619 34.5921 8.84594 34.5921 7.69394C34.6561 6.54194 34.6881 5.70994 34.6881 5.19794ZM26.3361 21.1339C26.2081 21.1339 26.1441 20.9739 26.1441 20.6539C26.1441 20.2699 26.2081 20.0139 26.3361 19.8859C26.3361 20.2059 26.3361 20.4939 26.3361 20.7499C26.4001 20.9419 26.4001 21.0699 26.3361 21.1339ZM27.6801 20.4619C27.6801 20.4619 27.6481 19.9179 27.5841 18.8299C27.5841 17.7419 27.5841 16.5579 27.5841 15.2779C27.5841 13.9979 27.5841 12.8139 27.5841 11.7259C27.6481 10.6379 27.6801 10.0619 27.6801 9.99794C27.6801 10.1259 27.6801 10.7339 27.6801 11.8219C27.6801 12.9099 27.6801 14.0939 27.6801 15.3739C27.6801 16.6539 27.6801 17.8059 27.6801 18.8299C27.6801 19.8539 27.6801 20.3979 27.6801 20.4619ZM24.2241 34.4779C24.2881 34.3499 24.3521 34.3499 24.4161 34.4779C24.4801 34.6059 24.4481 34.7659 24.3201 34.9579C24.1921 35.2139 24.1281 35.2459 24.1281 35.0539C24.1281 34.7979 24.1601 34.6059 24.2241 34.4779ZM33.4401 12.9739C33.3761 12.7819 33.3441 12.4619 33.3441 12.0139C33.4081 12.2059 33.4401 12.3659 33.4401 12.4939C33.5041 12.5579 33.5041 12.7179 33.4401 12.9739ZM26.1441 7.98193C25.9521 7.98193 25.9521 7.72593 26.1441 7.21394C26.2081 7.34194 26.2401 7.50194 26.2401 7.69394C26.2401 7.88593 26.2081 7.98193 26.1441 7.98193ZM32.6721 5.38994C32.6721 5.32594 32.7041 5.32594 32.7681 5.38994C32.8961 5.45394 32.9281 5.58194 32.8641 5.77393C32.8001 5.96593 32.7361 5.99794 32.6721 5.86994C32.6721 5.74194 32.6721 5.58194 32.6721 5.38994ZM32.8641 31.5019C32.8641 31.3739 32.8641 31.3739 32.8641 31.5019C32.9281 31.5659 32.9601 31.6619 32.9601 31.7899C32.9601 31.8539 32.9281 31.8539 32.8641 31.7899C32.8001 31.7259 32.8001 31.6299 32.8641 31.5019ZM34.4001 26.9899C34.1441 26.7979 34.1441 26.5739 34.4001 26.3179C34.5281 26.6379 34.5281 26.8619 34.4001 26.9899ZM29.6961 9.80593C30.5281 9.80593 30.9441 10.2219 30.9441 11.0539C30.9441 11.8859 30.5281 12.3019 29.6961 12.3019C28.8641 12.3019 28.4481 11.8859 28.4481 11.0539C28.4481 10.2219 28.8641 9.80593 29.6961 9.80593ZM29.6001 31.1179C30.4961 31.1179 30.9441 31.5339 30.9441 32.3659C30.9441 33.1979 30.4961 33.6139 29.6001 33.6139C28.7681 33.6139 28.3521 33.1979 28.3521 32.3659C28.3521 31.5339 28.7681 31.1179 29.6001 31.1179Z" fill="#DF8080"/>
</svg>
