<svg width="23" height="18" viewBox="0 0 23 18" fill="none" xmlns="http://www.w3.org/2000/svg">
<path d="M0.826 0.367998H19.93C20.058 0.495998 20.41 0.911999 20.986 1.616C21.562 2.256 21.914 2.64 22.042 2.768V17.84H2.938C2.874 17.776 2.714 17.648 2.458 17.456C2.266 17.2 2.042 16.944 1.786 16.688C1.594 16.368 1.402 16.112 1.21 15.92C1.018 15.664 0.89 15.504 0.826 15.44V0.367998ZM3.994 4.016V4.4C4.89 4.4 6.042 4.4 7.45 4.4C8.858 4.4 10.298 4.4 11.77 4.4C13.306 4.4 14.714 4.432 15.994 4.496C17.338 4.496 18.362 4.528 19.066 4.592C18.298 4.592 17.242 4.592 15.898 4.592C14.618 4.592 13.242 4.592 11.77 4.592C10.362 4.592 8.954 4.592 7.546 4.592C6.138 4.528 4.954 4.496 3.994 4.496V5.84C4.314 5.84 4.634 5.872 4.954 5.936C5.338 5.936 5.594 5.936 5.722 5.936C5.466 6 5.178 6.032 4.858 6.032C4.602 6.032 4.314 6.064 3.994 6.128V6.896C4.186 6.96 4.41 6.992 4.666 6.992C4.41 6.992 4.186 7.024 3.994 7.088V10.352C4.186 10.352 4.346 10.384 4.474 10.448C4.666 10.448 4.826 10.448 4.954 10.448C4.762 10.448 4.57 10.48 4.378 10.544C4.25 10.544 4.122 10.544 3.994 10.544V11.6C4.314 11.6 4.666 11.632 5.05 11.696C5.498 11.76 5.818 11.792 6.01 11.792C5.626 11.856 5.274 11.92 4.954 11.984C4.634 11.984 4.314 12.016 3.994 12.08C4.186 12.144 4.41 12.176 4.666 12.176C4.538 12.176 4.41 12.208 4.282 12.272C4.218 12.272 4.122 12.272 3.994 12.272V13.424C4.506 13.424 4.826 13.456 4.954 13.52C4.506 13.52 4.186 13.552 3.994 13.616V15.536H4.57C4.442 15.6 4.25 15.632 3.994 15.632V16.496H20.794V15.824C20.41 15.824 19.706 15.856 18.682 15.92C17.658 15.92 16.602 15.92 15.514 15.92C14.49 15.92 13.562 15.92 12.73 15.92C11.898 15.856 11.45 15.824 11.386 15.824C11.514 15.824 11.994 15.824 12.826 15.824C13.658 15.76 14.586 15.728 15.61 15.728C16.698 15.728 17.722 15.76 18.682 15.824C19.706 15.824 20.41 15.824 20.794 15.824V15.152C20.474 15.152 20.154 15.152 19.834 15.152C19.514 15.088 19.29 15.056 19.162 15.056C19.354 14.992 19.61 14.96 19.93 14.96C20.25 14.96 20.538 14.928 20.794 14.864V13.328C20.666 13.264 20.474 13.232 20.218 13.232C19.962 13.232 19.77 13.232 19.642 13.232C19.77 13.168 19.962 13.136 20.218 13.136C20.474 13.136 20.666 13.136 20.794 13.136C20.666 13.072 20.506 13.04 20.314 13.04C20.186 13.04 20.09 13.04 20.026 13.04C20.154 13.04 20.282 13.04 20.41 13.04C20.538 12.976 20.666 12.944 20.794 12.944V10.928H20.314C20.442 10.928 20.506 10.928 20.506 10.928C20.57 10.864 20.666 10.832 20.794 10.832V10.544C20.666 10.48 20.506 10.448 20.314 10.448C20.186 10.448 20.058 10.448 19.93 10.448C20.122 10.384 20.41 10.352 20.794 10.352V9.296C20.154 9.296 19.258 9.296 18.106 9.296C17.018 9.232 15.898 9.2 14.746 9.2C13.594 9.136 12.57 9.104 11.674 9.104C10.842 9.104 10.394 9.104 10.33 9.104C10.458 9.104 10.938 9.104 11.77 9.104C12.666 9.04 13.658 9.008 14.746 9.008C15.898 9.008 17.018 9.008 18.106 9.008C19.258 8.944 20.154 8.912 20.794 8.912V6.704C20.282 6.704 19.226 6.736 17.626 6.8C16.026 6.8 14.362 6.8 12.634 6.8C10.97 6.8 9.466 6.8 8.122 6.8C6.778 6.736 6.074 6.704 6.01 6.704C6.138 6.704 6.874 6.704 8.218 6.704C9.562 6.704 11.066 6.704 12.73 6.704C14.458 6.704 16.09 6.704 17.626 6.704C19.226 6.704 20.282 6.704 20.794 6.704V6.608C20.602 6.608 20.314 6.608 19.93 6.608C19.61 6.544 19.386 6.512 19.258 6.512C19.386 6.512 19.61 6.512 19.93 6.512C20.314 6.448 20.602 6.416 20.794 6.416V4.784C20.474 4.72 20.122 4.688 19.738 4.688C19.418 4.688 19.194 4.688 19.066 4.688C19.258 4.624 19.514 4.592 19.834 4.592C20.154 4.592 20.474 4.56 20.794 4.496V4.016H3.994ZM16.954 12.944C16.57 13.008 15.802 13.04 14.65 13.04C13.498 13.04 12.25 13.04 10.906 13.04C9.562 13.04 8.282 13.04 7.066 13.04C5.85 12.976 5.018 12.944 4.57 12.944C4.954 12.88 5.754 12.848 6.97 12.848C8.186 12.848 9.498 12.848 10.906 12.848C12.314 12.848 13.594 12.848 14.746 12.848C15.962 12.848 16.698 12.88 16.954 12.944ZM15.61 9.584C15.61 9.584 15.098 9.616 14.074 9.68C13.114 9.68 12.026 9.68 10.81 9.68C9.594 9.68 8.474 9.68 7.45 9.68C6.49 9.616 5.978 9.584 5.914 9.584C6.042 9.584 6.618 9.584 7.642 9.584C8.666 9.52 9.754 9.488 10.906 9.488C12.058 9.488 13.114 9.52 14.074 9.584C15.098 9.584 15.61 9.584 15.61 9.584ZM18.586 6.224C18.394 6.224 17.754 6.256 16.666 6.32C15.642 6.32 14.49 6.32 13.21 6.32C11.994 6.32 10.874 6.32 9.85 6.32C8.89 6.256 8.378 6.224 8.314 6.224C8.442 6.224 9.018 6.224 10.042 6.224C11.066 6.16 12.154 6.128 13.306 6.128C14.522 6.128 15.642 6.16 16.666 6.224C17.754 6.224 18.394 6.224 18.586 6.224ZM6.97 6.224C7.162 6.16 7.386 6.16 7.642 6.224H6.97ZM5.338 14.48C5.274 14.48 5.242 14.448 5.242 14.384C5.306 14.32 5.402 14.32 5.53 14.384C5.658 14.448 5.69 14.512 5.626 14.576C5.562 14.576 5.466 14.544 5.338 14.48ZM8.122 8.336C8.122 8.336 8.122 8.304 8.122 8.24C8.25 8.176 8.314 8.208 8.314 8.336C8.314 8.4 8.25 8.4 8.122 8.336ZM17.242 14.864C17.37 14.8 17.658 14.8 18.106 14.864C18.618 14.864 19.002 14.864 19.258 14.864C19.002 14.928 18.586 14.96 18.01 14.96C17.434 14.96 17.178 14.928 17.242 14.864ZM19.354 14.864C19.354 14.928 19.322 14.928 19.258 14.864H19.354ZM18.49 8.336C18.746 8.208 19.002 8.208 19.258 8.336H18.49ZM13.306 11.792C13.434 11.792 13.754 11.792 14.266 11.792C14.842 11.728 15.45 11.696 16.09 11.696C16.794 11.696 17.434 11.728 18.01 11.792C18.586 11.792 18.97 11.792 19.162 11.792H13.306ZM9.754 12.464C9.434 12.464 8.858 12.496 8.026 12.56C7.258 12.56 6.554 12.528 5.914 12.464C6.106 12.4 6.682 12.368 7.642 12.368C8.666 12.368 9.37 12.4 9.754 12.464ZM11.77 14.864C11.578 14.864 11.226 14.896 10.714 14.96C10.202 14.96 9.626 14.96 8.986 14.96C8.346 14.96 7.706 14.96 7.066 14.96C6.49 14.896 6.074 14.864 5.818 14.864C5.882 14.864 6.202 14.864 6.778 14.864C7.354 14.8 7.962 14.768 8.602 14.768C9.306 14.768 9.946 14.8 10.522 14.864C11.162 14.864 11.578 14.864 11.77 14.864ZM20.026 13.424C19.898 13.424 19.258 13.456 18.106 13.52C16.954 13.52 15.706 13.52 14.362 13.52C13.018 13.52 11.738 13.52 10.522 13.52C9.306 13.456 8.57 13.424 8.314 13.424C8.378 13.424 8.986 13.424 10.138 13.424C11.354 13.36 12.666 13.328 14.074 13.328C15.482 13.328 16.762 13.36 17.914 13.424C19.13 13.424 19.834 13.424 20.026 13.424ZM10.81 11.792C10.874 11.728 10.97 11.696 11.098 11.696C11.29 11.696 11.418 11.728 11.482 11.792H10.81Z" fill="white"/>
</svg>
