<svg width="42" height="52" viewBox="0 0 42 52" fill="none" xmlns="http://www.w3.org/2000/svg">
<path d="M0.34175 13.464L9.17375 1.272C9.23775 1.272 9.42975 1.24 9.74975 1.17599C10.0698 1.048 10.3898 0.951998 10.7098 0.887999C11.0298 0.823999 11.3498 0.759998 11.6698 0.695995C11.9898 0.631996 12.1818 0.599997 12.2458 0.599997L41.7178 21.72L38.5498 26.136L41.7178 30.552L12.2458 51.672C12.1818 51.672 11.9898 51.64 11.6698 51.576C11.3498 51.512 11.0298 51.448 10.7098 51.384C10.3898 51.32 10.0698 51.224 9.74975 51.096C9.42975 51.032 9.23775 51 9.17375 51L0.34175 38.808L17.9098 26.136L0.34175 13.464ZM9.36575 3L8.69375 3.96C8.82175 3.96 8.88575 4.024 8.88575 4.152C8.82175 4.088 8.75775 4.056 8.69375 4.056L7.44575 5.688C7.50975 5.816 7.57375 5.912 7.63775 5.976C7.76575 6.04 7.89375 6.136 8.02175 6.264C7.95775 6.264 7.86175 6.232 7.73375 6.168C7.60575 6.04 7.47775 5.944 7.34975 5.88L7.15775 6.072C7.34975 6.264 7.70175 6.584 8.21375 7.032C8.72575 7.416 9.04575 7.672 9.17375 7.8C9.10975 7.736 8.78975 7.512 8.21375 7.128C7.63775 6.744 7.22175 6.488 6.96575 6.36L6.77375 6.648C7.15775 6.904 7.82975 7.384 8.78975 8.088C9.81375 8.792 10.8378 9.528 11.8618 10.296C12.9498 11.064 13.9418 11.8 14.8378 12.504C15.7338 13.144 16.3098 13.56 16.5658 13.752C16.1818 13.496 15.5098 13.048 14.5498 12.408C13.6538 11.768 12.6938 11.096 11.6698 10.392C10.6458 9.688 9.65375 8.984 8.69375 8.28C7.73375 7.576 7.06175 7.064 6.67775 6.744L5.71775 8.088C6.16575 8.408 6.58175 8.728 6.96575 9.048C6.83775 8.984 6.64575 8.888 6.38975 8.76C6.13375 8.568 5.87775 8.408 5.62175 8.28L4.08575 10.392C4.66175 10.776 5.42975 11.32 6.38975 12.024C7.34975 12.664 8.30975 13.336 9.26975 14.04C10.2298 14.744 11.0938 15.384 11.8618 15.96C12.6298 16.536 13.1098 16.92 13.3018 17.112C12.9818 16.92 12.4058 16.568 11.5738 16.056C10.8058 15.48 9.94175 14.872 8.98175 14.232C8.02175 13.528 7.09375 12.856 6.19775 12.216C5.30175 11.512 4.56575 10.936 3.98975 10.488L2.74175 12.216L3.12575 12.6C2.99775 12.472 2.83775 12.408 2.64575 12.408L2.16575 13.08L19.0618 25.272L20.4058 24.408C19.3178 23.576 18.2938 22.84 17.3338 22.2C16.3738 21.496 15.6058 20.888 15.0298 20.376C15.6058 20.76 16.4058 21.304 17.4298 22.008C18.4538 22.648 19.5098 23.384 20.5978 24.216L22.9018 22.584C22.5178 22.328 22.1658 22.104 21.8458 21.912C21.5898 21.656 21.3338 21.432 21.0778 21.24C20.8218 20.984 20.5658 20.792 20.3098 20.664C20.3738 20.664 20.6618 20.856 21.1738 21.24C21.6858 21.56 22.2938 21.976 22.9978 22.488L23.2858 22.296C21.9418 21.336 20.5978 20.376 19.2538 19.416C17.9738 18.456 16.7898 17.592 15.7018 16.824C14.6138 15.992 13.6538 15.288 12.8218 14.712C11.9898 14.072 11.3818 13.592 10.9978 13.272C11.3818 13.528 11.9898 13.944 12.8218 14.52C13.7178 15.096 14.7098 15.8 15.7978 16.632C16.9498 17.4 18.1658 18.264 19.4458 19.224C20.7898 20.184 22.1338 21.144 23.4778 22.104L26.3578 20.088C24.6938 18.872 23.2218 17.816 21.9418 16.92C20.6618 15.96 19.8938 15.352 19.6378 15.096C19.8938 15.224 20.6938 15.768 22.0378 16.728C23.3818 17.624 24.8858 18.68 26.5498 19.896L28.8538 18.264C28.4058 17.944 28.0218 17.656 27.7018 17.4C27.3818 17.144 27.1578 16.952 27.0298 16.824C27.1578 16.952 27.3818 17.144 27.7018 17.4C28.0858 17.592 28.5338 17.848 29.0458 18.168L29.7178 17.592L9.36575 3ZM36.9178 22.776L35.1898 21.624L36.5338 23.352L36.9178 22.776ZM2.16575 39.192L2.64575 39.864C2.83775 39.864 2.99775 39.8 3.12575 39.672L2.74175 40.056L3.98975 41.784C4.56575 41.336 5.30175 40.792 6.19775 40.152C7.09375 39.448 8.02175 38.776 8.98175 38.136C9.94175 37.432 10.8058 36.824 11.5738 36.312C12.4058 35.736 12.9818 35.352 13.3018 35.16C13.1098 35.352 12.6298 35.736 11.8618 36.312C11.0938 36.888 10.2298 37.528 9.26975 38.232C8.30975 38.936 7.34975 39.64 6.38975 40.344C5.42975 40.984 4.66175 41.496 4.08575 41.88L5.62175 43.992C5.87775 43.864 6.13375 43.736 6.38975 43.608C6.64575 43.416 6.83775 43.288 6.96575 43.224C6.83775 43.352 6.64575 43.512 6.38975 43.704C6.19775 43.896 5.97375 44.056 5.71775 44.184L6.67775 45.528C7.06175 45.208 7.73375 44.696 8.69375 43.992C9.65375 43.288 10.6458 42.584 11.6698 41.88C12.6938 41.176 13.6538 40.504 14.5498 39.864C15.5098 39.224 16.1818 38.776 16.5658 38.52C16.3098 38.712 15.7338 39.16 14.8378 39.864C13.9418 40.504 12.9498 41.208 11.8618 41.976C10.8378 42.744 9.81375 43.48 8.78975 44.184C7.82975 44.888 7.15775 45.368 6.77375 45.624L6.96575 45.912C7.22175 45.72 7.63775 45.464 8.21375 45.144C8.78975 44.76 9.10975 44.536 9.17375 44.472C9.04575 44.6 8.72575 44.888 8.21375 45.336C7.70175 45.72 7.34975 45.976 7.15775 46.104L7.34975 46.392C7.47775 46.328 7.60575 46.264 7.73375 46.2C7.86175 46.072 7.95775 46.008 8.02175 46.008C7.89375 46.136 7.76575 46.232 7.63775 46.296C7.57375 46.36 7.50975 46.456 7.44575 46.584L8.69375 48.216C8.82175 48.152 8.88575 48.12 8.88575 48.12C8.88575 48.248 8.82175 48.312 8.69375 48.312L9.36575 49.272L36.9178 29.496L36.2458 28.536C36.1178 28.664 35.9898 28.76 35.8618 28.824C35.7338 28.824 35.6378 28.856 35.5738 28.92C35.8298 28.664 36.0218 28.504 36.1498 28.44L34.7098 26.424C33.6218 27.192 32.2778 28.184 30.6778 29.4C29.0778 30.552 27.4778 31.704 25.8778 32.856C24.3418 33.944 22.9658 34.904 21.7498 35.736C20.5338 36.568 19.8298 37.048 19.6378 37.176C19.8938 36.984 20.5978 36.44 21.7498 35.544C22.9658 34.648 24.3418 33.656 25.8778 32.568C27.4138 31.416 28.9818 30.296 30.5818 29.208C32.1818 28.056 33.5258 27.096 34.6138 26.328L34.0378 25.368C33.7178 25.56 33.3658 25.784 32.9818 26.04C32.5978 26.296 32.2778 26.488 32.0218 26.616C32.2138 26.488 32.4698 26.296 32.7898 26.04C33.1098 25.72 33.4618 25.4 33.8458 25.08L32.5978 23.448C32.2778 23.768 31.8618 24.12 31.3498 24.504C30.8378 24.824 30.2938 25.208 29.7178 25.656C30.1018 25.912 30.2938 26.264 30.2938 26.712C30.2938 27.544 29.8778 27.96 29.0458 27.96C28.3418 27.96 27.9258 27.64 27.7978 27C26.2618 28.088 24.5978 29.272 22.8058 30.552C21.0778 31.832 19.4138 33.048 17.8138 34.2C16.2138 35.352 14.7738 36.376 13.4938 37.272C12.2778 38.104 11.4458 38.68 10.9978 39C11.4458 38.616 12.2778 37.976 13.4938 37.08C14.7738 36.12 16.2138 35.064 17.8138 33.912C19.4138 32.76 21.0778 31.576 22.8058 30.36C24.5978 29.08 26.2618 27.896 27.7978 26.808V26.712C27.7978 26.456 27.8298 26.296 27.8938 26.232C27.5098 26.552 26.9018 27 26.0698 27.576C25.2378 28.152 24.4058 28.76 23.5738 29.4C22.7418 29.976 22.0058 30.488 21.3658 30.936C20.7258 31.384 20.3738 31.608 20.3098 31.608C20.3098 31.608 20.6298 31.352 21.2698 30.84C21.9738 30.328 22.7418 29.784 23.5738 29.208C24.4698 28.568 25.3338 27.96 26.1658 27.384C26.9978 26.744 27.6058 26.328 27.9898 26.136C28.1818 25.688 28.5338 25.464 29.0458 25.464C29.2378 25.464 29.3978 25.496 29.5258 25.56C30.1658 25.112 30.7418 24.728 31.2538 24.408C31.7658 24.024 32.2138 23.704 32.5978 23.448L31.8298 22.296C31.6378 22.424 31.4458 22.552 31.2538 22.68C31.0618 22.744 30.9338 22.808 30.8698 22.872C31.1898 22.552 31.4458 22.328 31.6378 22.2V22.104C31.3818 22.232 31.0938 22.392 30.7738 22.584C30.5178 22.776 30.3578 22.904 30.2938 22.968C30.4218 22.84 30.5818 22.68 30.7738 22.488C31.0298 22.232 31.2538 22.04 31.4458 21.912L30.1018 19.896C29.9738 20.024 29.8138 20.12 29.6218 20.184C29.4938 20.248 29.3658 20.344 29.2378 20.472C29.3658 20.344 29.4938 20.248 29.6218 20.184C29.7498 20.056 29.8778 19.928 30.0058 19.8L29.6218 19.32L2.16575 39.192ZM23.6698 15.384C23.1578 15.064 22.2298 14.456 20.8858 13.56C19.6058 12.6 18.1978 11.576 16.6618 10.488C15.1258 9.336 13.6218 8.248 12.1498 7.224C10.6778 6.136 9.58975 5.304 8.88575 4.728C9.65375 5.176 10.8058 5.944 12.3418 7.032C13.8778 8.12 15.4458 9.24 17.0458 10.392C18.6458 11.544 20.0858 12.632 21.3658 13.656C22.6458 14.616 23.4138 15.192 23.6698 15.384ZM13.3018 12.024C13.5578 12.152 14.2618 12.632 15.4138 13.464C16.6298 14.296 17.9098 15.224 19.2538 16.248C20.6618 17.208 21.9738 18.136 23.1898 19.032C24.4058 19.928 25.1418 20.504 25.3978 20.76C25.0138 20.504 24.2138 19.96 22.9978 19.128C21.7818 18.296 20.5018 17.4 19.1578 16.44C17.8138 15.416 16.5658 14.488 15.4138 13.656C14.2618 12.824 13.5578 12.28 13.3018 12.024ZM7.34975 15.96C7.60575 16.088 8.14975 16.44 8.98175 17.016C9.87775 17.592 10.8058 18.232 11.7657 18.936C12.7257 19.64 13.6218 20.312 14.4538 20.952C15.3498 21.592 15.9258 22.04 16.1818 22.296C15.7978 22.04 15.1578 21.624 14.2618 21.048C13.4298 20.472 12.5338 19.864 11.5738 19.224C10.6138 18.52 9.71775 17.88 8.88575 17.304C8.11775 16.664 7.60575 16.216 7.34975 15.96ZM16.6618 19.608C16.7898 19.608 17.1098 19.864 17.6218 20.376C17.4938 20.376 17.2698 20.28 16.9498 20.088C16.6938 19.896 16.5978 19.736 16.6618 19.608ZM5.04575 13.752C5.23775 13.816 5.36575 13.912 5.42975 14.04C5.49375 14.104 5.46175 14.136 5.33375 14.136C5.20575 14.072 5.07775 13.976 4.94975 13.848C4.82175 13.72 4.85375 13.688 5.04575 13.752ZM12.5338 8.472C12.6618 8.536 12.7258 8.6 12.7258 8.664C12.7898 8.728 12.7578 8.76 12.6298 8.76C12.5018 8.696 12.4378 8.632 12.4378 8.568C12.4378 8.504 12.4698 8.472 12.5338 8.472ZM16.9498 9.912C17.0778 9.784 17.2698 9.912 17.5258 10.296C17.1418 10.296 16.9498 10.168 16.9498 9.912ZM27.6058 22.872C27.3498 23.064 26.6778 23.576 25.5898 24.408C24.5658 25.176 23.3818 26.04 22.0378 27C20.7578 27.96 19.4458 28.92 18.1018 29.88C16.8218 30.776 15.7978 31.448 15.0298 31.896C15.7338 31.32 16.6938 30.616 17.9098 29.784C19.1258 28.888 20.3418 27.992 21.5578 27.096C22.8378 26.136 24.0218 25.272 25.1098 24.504C26.2618 23.736 27.0938 23.192 27.6058 22.872ZM8.88575 47.544C9.58975 46.968 10.6778 46.168 12.1498 45.144C13.6218 44.056 15.1258 42.968 16.6618 41.88C18.1978 40.728 19.6058 39.704 20.8858 38.808C22.2298 37.848 23.1578 37.208 23.6698 36.888C23.4138 37.08 22.6458 37.688 21.3658 38.712C20.0858 39.672 18.6458 40.728 17.0458 41.88C15.4458 43.032 13.8778 44.152 12.3418 45.24C10.8058 46.328 9.65375 47.096 8.88575 47.544ZM13.3018 40.248C13.5578 39.992 14.2618 39.448 15.4138 38.616C16.5658 37.72 17.8138 36.792 19.1578 35.832C20.5018 34.872 21.7818 33.976 22.9978 33.144C24.2138 32.312 25.0138 31.768 25.3978 31.512C25.1418 31.768 24.4058 32.344 23.1898 33.24C21.9738 34.136 20.6618 35.096 19.2538 36.12C17.9098 37.08 16.6298 37.976 15.4138 38.808C14.2618 39.64 13.5578 40.12 13.3018 40.248ZM16.1818 29.976C15.9258 30.232 15.3498 30.68 14.4538 31.32C13.6218 31.96 12.7257 32.632 11.7657 33.336C10.8058 34.04 9.87775 34.68 8.98175 35.256C8.14975 35.832 7.60575 36.184 7.34975 36.312C7.60575 36.056 8.11775 35.64 8.88575 35.064C9.71775 34.488 10.6138 33.88 11.5738 33.24C12.5338 32.536 13.4298 31.896 14.2618 31.32C15.1578 30.68 15.7978 30.232 16.1818 29.976ZM35.9578 29.016C35.7018 29.272 35.1258 29.72 34.2298 30.36C33.3978 31 32.4698 31.672 31.4458 32.376C30.4858 33.08 29.5578 33.752 28.6618 34.392C27.8298 34.968 27.2858 35.32 27.0298 35.448C27.2858 35.192 27.8298 34.776 28.6618 34.2C29.4938 33.56 30.3578 32.92 31.2538 32.28C32.2138 31.576 33.1418 30.936 34.0378 30.36C34.9338 29.72 35.5738 29.272 35.9578 29.016ZM17.6218 31.896C17.4298 32.088 17.2378 32.28 17.0458 32.472C16.8538 32.6 16.7258 32.664 16.6618 32.664C16.5978 32.536 16.6938 32.376 16.9498 32.184C17.2698 31.992 17.4938 31.896 17.6218 31.896ZM5.04575 38.52C4.85375 38.584 4.82175 38.552 4.94975 38.424C5.07775 38.296 5.20575 38.2 5.33375 38.136C5.46175 38.136 5.49375 38.2 5.42975 38.328C5.36575 38.392 5.23775 38.456 5.04575 38.52ZM29.3338 32.184C29.3978 32.056 29.4938 31.96 29.6218 31.896C29.7498 31.832 29.8778 31.768 30.0058 31.704C29.8138 31.96 29.5898 32.12 29.3338 32.184ZM29.3338 23.16C29.3338 23.288 29.2698 23.416 29.1418 23.544C29.0138 23.608 28.9178 23.608 28.8538 23.544C28.7898 23.48 28.9498 23.352 29.3338 23.16ZM34.4218 27.864C34.2938 27.928 34.2618 27.928 34.3258 27.864C34.3898 27.736 34.4858 27.608 34.6138 27.48C34.6778 27.48 34.7098 27.544 34.7098 27.672C34.7098 27.736 34.6138 27.8 34.4218 27.864ZM12.5338 43.8C12.4698 43.8 12.4378 43.768 12.4378 43.704C12.4378 43.64 12.5018 43.576 12.6298 43.512C12.7578 43.448 12.7898 43.48 12.7258 43.608C12.7258 43.672 12.6618 43.736 12.5338 43.8ZM17.5258 41.976C17.2698 42.36 17.0778 42.488 16.9498 42.36C16.9498 42.104 17.1418 41.976 17.5258 41.976Z" fill="white"/>
</svg>
