<svg width="86" height="139" viewBox="0 0 86 139" fill="none" xmlns="http://www.w3.org/2000/svg">
<path d="M36.6766 0.799991V134.4C36.5432 134.533 36.2099 134.8 35.6766 135.2C35.1432 135.6 34.6099 136.067 34.0766 136.6C33.5432 137.133 33.0099 137.6 32.4766 138C32.0766 138.4 31.8099 138.667 31.6766 138.8H0.276563V5.19999C0.409896 5.06666 0.676563 4.8 1.07656 4.39999C1.6099 3.99999 2.14323 3.53333 2.67656 3C3.2099 2.46666 3.74323 2 4.27656 1.59999C4.8099 1.19999 5.14323 0.933323 5.27656 0.799991H36.6766ZM29.0766 7.6H26.2766C26.1432 7.99999 26.0766 8.46666 26.0766 8.99999C26.0766 9.26666 26.0099 9.53333 25.8766 9.79999C25.6099 9.26666 25.4766 8.59999 25.4766 7.8C25.3432 7.93333 25.2766 8.13333 25.2766 8.39999V8.6C25.2766 8.46666 25.2099 8.33332 25.0766 8.19999C25.0766 8.06666 25.0766 7.86666 25.0766 7.6H24.2766C24.1432 7.86666 24.0766 8.13333 24.0766 8.39999V8.6C24.0766 8.46666 24.0099 8.33332 23.8766 8.19999C23.8766 8.06666 23.8766 7.86666 23.8766 7.6H18.2766L17.8766 9.6C17.6099 9.06666 17.4766 8.4 17.4766 7.6H15.6766C15.5432 7.86666 15.4766 8.13333 15.4766 8.39999V8.6C15.4766 8.46666 15.4099 8.33332 15.2766 8.19999C15.2766 8.06666 15.2766 7.86666 15.2766 7.6H11.6766C11.8099 11.0667 11.8766 14.3333 11.8766 17.4C11.8766 20.3333 11.8766 23.2 11.8766 26C11.8766 28.8 11.8766 31.5333 11.8766 34.2C11.8766 36.7333 11.8099 39.4 11.6766 42.2C11.5432 39.6667 11.4099 36.6667 11.2766 33.2C11.2766 29.6 11.2766 26.1333 11.2766 22.8C11.2766 19.4667 11.2766 16.4 11.2766 13.6C11.4099 10.8 11.5432 8.8 11.6766 7.6H7.47656C7.34323 7.86666 7.27656 8.26666 7.27656 8.8C7.27656 9.06666 7.2099 9.26666 7.07656 9.4C7.07656 9 7.0099 8.66666 6.87656 8.39999C6.74323 8.66666 6.67656 9.06666 6.67656 9.6V9.99999C6.54323 9.73333 6.4099 9.4 6.27656 8.99999C6.27656 8.46666 6.2099 7.99999 6.07656 7.6H3.87656C3.74323 7.86666 3.67656 8.13333 3.67656 8.39999V8.6C3.67656 8.46666 3.6099 8.33332 3.47656 8.19999C3.47656 8.06666 3.47656 7.86666 3.47656 7.6H3.07656V136.4H5.27656L5.67656 134.8C5.67656 135.467 5.74323 136 5.87656 136.4C5.87656 135.733 6.0099 134.867 6.27656 133.8C6.4099 133.267 6.47656 132.733 6.47656 132.2C6.47656 132.467 6.47656 133.067 6.47656 134C6.6099 134.933 6.74323 135.733 6.87656 136.4H17.8766C17.7432 133.333 17.6766 129.133 17.6766 123.8C17.6766 118.467 17.6766 113.133 17.6766 107.8C17.8099 102.467 17.9432 97.7333 18.0766 93.6C18.2099 89.4667 18.3432 87.0667 18.4766 86.4C18.6099 89.0667 18.6766 92.6667 18.6766 97.2C18.8099 101.733 18.8099 106.467 18.6766 111.4C18.6766 116.333 18.6099 121.133 18.4766 125.8C18.3432 130.333 18.2099 133.867 18.0766 136.4H18.2766L18.6766 134.8C18.6766 135.067 18.6766 135.333 18.6766 135.6C18.8099 135.867 18.8766 136.133 18.8766 136.4H25.6766C25.6766 135.867 25.6766 135.4 25.6766 135C25.8099 134.467 25.8766 133.933 25.8766 133.4C25.8766 132.867 25.9432 132.333 26.0766 131.8C26.0766 132.067 26.0766 132.667 26.0766 133.6C26.2099 134.533 26.2766 135.467 26.2766 136.4C26.2766 136.267 26.2766 136.2 26.2766 136.2C26.4099 136.2 26.4766 136.133 26.4766 136V135.8V136C26.4766 136.133 26.5432 136.267 26.6766 136.4H26.8766L27.2766 134.8C27.2766 135.067 27.2766 135.333 27.2766 135.6C27.4099 135.867 27.4766 136.133 27.4766 136.4H29.0766V7.6ZM9.07656 97C9.07656 95 9.07656 92.2 9.07656 88.6C9.07656 85 9.0099 81.1333 8.87656 77C8.87656 72.7333 8.87656 68.3333 8.87656 63.8C8.87656 59.2667 8.87656 55.1333 8.87656 51.4C8.87656 47.5333 8.87656 44.2 8.87656 41.4C8.87656 38.6 8.94323 36.8 9.07656 36C9.2099 37.2 9.27656 39.5333 9.27656 43C9.4099 46.3333 9.47656 50.2667 9.47656 54.8C9.6099 59.2 9.67656 63.8 9.67656 68.6C9.67656 73.4 9.6099 77.8667 9.47656 82C9.47656 86.1333 9.4099 89.6 9.27656 92.4C9.27656 95.2 9.2099 96.7333 9.07656 97ZM13.8766 47.4C13.8766 49.6667 13.8766 53 13.8766 57.4C13.8766 61.6667 13.8766 66.5333 13.8766 72C13.8766 77.3333 13.8766 83 13.8766 89C13.8766 94.8667 13.8766 100.533 13.8766 106C13.8766 111.333 13.8099 116.2 13.6766 120.6C13.5432 124.867 13.4099 128.133 13.2766 130.4C13.1432 128.533 13.0766 125.267 13.0766 120.6C13.0766 115.8 13.0766 110.4 13.0766 104.4C13.0766 98.4 13.0766 92.1333 13.0766 85.6C13.2099 79.0667 13.2766 73.0667 13.2766 67.6C13.4099 62 13.4766 57.3333 13.4766 53.6C13.6099 49.8667 13.7432 47.8 13.8766 47.4ZM26.8766 25C27.1432 32.2 27.2099 39.1333 27.0766 45.8C27.0766 52.3333 26.9432 58.4 26.6766 64C26.5432 61.2 26.4766 57.7333 26.4766 53.6C26.4766 49.3333 26.4766 45.2 26.4766 41.2C26.4766 37.2 26.4766 33.6667 26.4766 30.6C26.6099 27.5333 26.7432 25.6667 26.8766 25ZM18.8766 83C18.7432 81.1333 18.6766 78.1333 18.6766 74C18.6766 69.7333 18.6099 65 18.4766 59.8C18.4766 54.4667 18.4099 49 18.2766 43.4C18.2766 37.6667 18.2766 32.4667 18.2766 27.8C18.4099 23 18.4766 19 18.4766 15.8C18.4766 12.4667 18.5432 10.6 18.6766 10.2C18.8099 12.8667 18.9432 16.8667 19.0766 22.2C19.2099 27.4 19.2766 33.3333 19.2766 40C19.2766 46.6667 19.2099 53.7333 19.0766 61.2C19.0766 68.6667 19.0099 75.9333 18.8766 83ZM23.6766 133.6C23.6766 132.267 23.6099 129.6 23.4766 125.6C23.4766 121.6 23.4099 116.867 23.2766 111.4C23.2766 105.8 23.2766 99.6667 23.2766 93C23.2766 86.3333 23.2766 79.6667 23.2766 73C23.2766 66.2 23.2766 59.6 23.2766 53.2C23.2766 46.8 23.2766 41.0667 23.2766 36C23.2766 30.9333 23.2766 26.8667 23.2766 23.8C23.4099 20.6 23.5432 18.8 23.6766 18.4C23.8099 20.1333 23.8766 23.6 23.8766 28.8C24.0099 33.8667 24.0766 39.8667 24.0766 46.8C24.2099 53.7333 24.2766 61.3333 24.2766 69.6C24.2766 77.7333 24.2099 85.7333 24.0766 93.6C24.0766 101.467 24.0099 108.933 23.8766 116C23.8766 123.067 23.8099 128.933 23.6766 133.6ZM5.47656 125.8C5.47656 124.467 5.4099 121.933 5.27656 118.2C5.27656 114.333 5.2099 109.867 5.07656 104.8C5.07656 99.6 5.07656 93.9333 5.07656 87.8C5.07656 81.5333 5.07656 75.2667 5.07656 69C5.07656 62.7333 5.07656 56.6667 5.07656 50.8C5.07656 44.8 5.07656 39.4667 5.07656 34.8C5.07656 30.1333 5.07656 26.3333 5.07656 23.4C5.2099 20.4667 5.34323 18.8 5.47656 18.4C5.6099 20.2667 5.67656 23.5333 5.67656 28.2C5.8099 32.8667 5.87656 38.4 5.87656 44.8C6.0099 51.2 6.07656 58.1333 6.07656 65.6C6.07656 73.0667 6.0099 80.4667 5.87656 87.8C5.87656 95.1333 5.8099 102.133 5.67656 108.8C5.67656 115.467 5.6099 121.133 5.47656 125.8ZM7.87656 28C7.74323 27.8667 7.74323 27.1333 7.87656 25.8C8.14323 26.6 8.14323 27.3333 7.87656 28ZM16.4766 73C16.3432 72.2 16.3432 71.6 16.4766 71.2C16.6099 71.4667 16.6099 72.0667 16.4766 73ZM10.8766 84.8C11.1432 85.4667 11.2099 86.2667 11.0766 87.2C10.9432 88 10.8766 88.6 10.8766 89C10.6099 88.4667 10.4766 87.8667 10.4766 87.2C10.6099 86.4 10.7432 85.6 10.8766 84.8ZM21.6766 36.2C21.6766 35.6667 21.7432 35.3333 21.8766 35.2C22.1432 34.9333 22.2766 35.2667 22.2766 36.2C22.2766 37 22.0766 37.2667 21.6766 37C21.2766 36.7333 21.2766 36.4667 21.6766 36.2ZM25.8766 104.2C25.7432 104.2 25.6766 103.533 25.6766 102.2C25.6766 101.667 25.7432 101 25.8766 100.2C26.1432 100.733 26.2766 101.467 26.2766 102.4C26.2766 103.2 26.1432 103.8 25.8766 104.2ZM10.8766 126.6C10.7432 126.333 10.6099 126.133 10.4766 126C10.4766 125.733 10.6099 125.467 10.8766 125.2C11.0099 125.2 11.0766 125.4 11.0766 125.8C11.2099 126.067 11.1432 126.333 10.8766 126.6ZM16.2766 13.6C16.4099 13.7333 16.4766 13.9333 16.4766 14.2C16.6099 14.4667 16.5432 14.7333 16.2766 15C16.1432 14.7333 16.0099 14.5333 15.8766 14.4C15.8766 14.2667 16.0099 14 16.2766 13.6ZM22.0766 130.8C21.8099 130.933 21.7432 130.733 21.8766 130.2C22.0099 129.667 22.0766 129.2 22.0766 128.8C22.2099 129.2 22.2766 129.6 22.2766 130C22.4099 130.4 22.3432 130.667 22.0766 130.8ZM85.7 0.799991V134.4C85.5667 134.533 85.2333 134.8 84.7 135.2C84.1667 135.6 83.6333 136.067 83.1 136.6C82.5667 137.133 82.0333 137.6 81.5 138C81.1 138.4 80.8333 138.667 80.7 138.8H49.3V5.19999C49.4333 5.06666 49.7 4.8 50.1 4.39999C50.6333 3.99999 51.1667 3.53333 51.7 3C52.2333 2.46666 52.7667 2 53.3 1.59999C53.8333 1.19999 54.1667 0.933323 54.3 0.799991H85.7ZM78.1 7.6H75.3C75.1667 7.99999 75.1 8.46666 75.1 8.99999C75.1 9.26666 75.0333 9.53333 74.9 9.79999C74.6333 9.26666 74.5 8.59999 74.5 7.8C74.3667 7.93333 74.3 8.13333 74.3 8.39999V8.6C74.3 8.46666 74.2333 8.33332 74.1 8.19999C74.1 8.06666 74.1 7.86666 74.1 7.6H73.3C73.1667 7.86666 73.1 8.13333 73.1 8.39999V8.6C73.1 8.46666 73.0333 8.33332 72.9 8.19999C72.9 8.06666 72.9 7.86666 72.9 7.6H67.3L66.9 9.6C66.6333 9.06666 66.5 8.4 66.5 7.6H64.7C64.5667 7.86666 64.5 8.13333 64.5 8.39999V8.6C64.5 8.46666 64.4333 8.33332 64.3 8.19999C64.3 8.06666 64.3 7.86666 64.3 7.6H60.7C60.8333 11.0667 60.9 14.3333 60.9 17.4C60.9 20.3333 60.9 23.2 60.9 26C60.9 28.8 60.9 31.5333 60.9 34.2C60.9 36.7333 60.8333 39.4 60.7 42.2C60.5667 39.6667 60.4333 36.6667 60.3 33.2C60.3 29.6 60.3 26.1333 60.3 22.8C60.3 19.4667 60.3 16.4 60.3 13.6C60.4333 10.8 60.5667 8.8 60.7 7.6H56.5C56.3667 7.86666 56.3 8.26666 56.3 8.8C56.3 9.06666 56.2333 9.26666 56.1 9.4C56.1 9 56.0333 8.66666 55.9 8.39999C55.7667 8.66666 55.7 9.06666 55.7 9.6V9.99999C55.5667 9.73333 55.4333 9.4 55.3 8.99999C55.3 8.46666 55.2333 7.99999 55.1 7.6H52.9C52.7667 7.86666 52.7 8.13333 52.7 8.39999V8.6C52.7 8.46666 52.6333 8.33332 52.5 8.19999C52.5 8.06666 52.5 7.86666 52.5 7.6H52.1V136.4H54.3L54.7 134.8C54.7 135.467 54.7667 136 54.9 136.4C54.9 135.733 55.0333 134.867 55.3 133.8C55.4333 133.267 55.5 132.733 55.5 132.2C55.5 132.467 55.5 133.067 55.5 134C55.6333 134.933 55.7667 135.733 55.9 136.4H66.9C66.7667 133.333 66.7 129.133 66.7 123.8C66.7 118.467 66.7 113.133 66.7 107.8C66.8333 102.467 66.9667 97.7333 67.1 93.6C67.2333 89.4667 67.3667 87.0667 67.5 86.4C67.6333 89.0667 67.7 92.6667 67.7 97.2C67.8333 101.733 67.8333 106.467 67.7 111.4C67.7 116.333 67.6333 121.133 67.5 125.8C67.3667 130.333 67.2333 133.867 67.1 136.4H67.3L67.7 134.8C67.7 135.067 67.7 135.333 67.7 135.6C67.8333 135.867 67.9 136.133 67.9 136.4H74.7C74.7 135.867 74.7 135.4 74.7 135C74.8333 134.467 74.9 133.933 74.9 133.4C74.9 132.867 74.9667 132.333 75.1 131.8C75.1 132.067 75.1 132.667 75.1 133.6C75.2333 134.533 75.3 135.467 75.3 136.4C75.3 136.267 75.3 136.2 75.3 136.2C75.4333 136.2 75.5 136.133 75.5 136V135.8V136C75.5 136.133 75.5667 136.267 75.7 136.4H75.9L76.3 134.8C76.3 135.067 76.3 135.333 76.3 135.6C76.4333 135.867 76.5 136.133 76.5 136.4H78.1V7.6ZM58.1 97C58.1 95 58.1 92.2 58.1 88.6C58.1 85 58.0333 81.1333 57.9 77C57.9 72.7333 57.9 68.3333 57.9 63.8C57.9 59.2667 57.9 55.1333 57.9 51.4C57.9 47.5333 57.9 44.2 57.9 41.4C57.9 38.6 57.9667 36.8 58.1 36C58.2333 37.2 58.3 39.5333 58.3 43C58.4333 46.3333 58.5 50.2667 58.5 54.8C58.6333 59.2 58.7 63.8 58.7 68.6C58.7 73.4 58.6333 77.8667 58.5 82C58.5 86.1333 58.4333 89.6 58.3 92.4C58.3 95.2 58.2333 96.7333 58.1 97ZM62.9 47.4C62.9 49.6667 62.9 53 62.9 57.4C62.9 61.6667 62.9 66.5333 62.9 72C62.9 77.3333 62.9 83 62.9 89C62.9 94.8667 62.9 100.533 62.9 106C62.9 111.333 62.8333 116.2 62.7 120.6C62.5667 124.867 62.4333 128.133 62.3 130.4C62.1667 128.533 62.1 125.267 62.1 120.6C62.1 115.8 62.1 110.4 62.1 104.4C62.1 98.4 62.1 92.1333 62.1 85.6C62.2333 79.0667 62.3 73.0667 62.3 67.6C62.4333 62 62.5 57.3333 62.5 53.6C62.6333 49.8667 62.7667 47.8 62.9 47.4ZM75.9 25C76.1667 32.2 76.2333 39.1333 76.1 45.8C76.1 52.3333 75.9667 58.4 75.7 64C75.5667 61.2 75.5 57.7333 75.5 53.6C75.5 49.3333 75.5 45.2 75.5 41.2C75.5 37.2 75.5 33.6667 75.5 30.6C75.6333 27.5333 75.7667 25.6667 75.9 25ZM67.9 83C67.7667 81.1333 67.7 78.1333 67.7 74C67.7 69.7333 67.6333 65 67.5 59.8C67.5 54.4667 67.4333 49 67.3 43.4C67.3 37.6667 67.3 32.4667 67.3 27.8C67.4333 23 67.5 19 67.5 15.8C67.5 12.4667 67.5667 10.6 67.7 10.2C67.8333 12.8667 67.9667 16.8667 68.1 22.2C68.2333 27.4 68.3 33.3333 68.3 40C68.3 46.6667 68.2333 53.7333 68.1 61.2C68.1 68.6667 68.0333 75.9333 67.9 83ZM72.7 133.6C72.7 132.267 72.6333 129.6 72.5 125.6C72.5 121.6 72.4333 116.867 72.3 111.4C72.3 105.8 72.3 99.6667 72.3 93C72.3 86.3333 72.3 79.6667 72.3 73C72.3 66.2 72.3 59.6 72.3 53.2C72.3 46.8 72.3 41.0667 72.3 36C72.3 30.9333 72.3 26.8667 72.3 23.8C72.4333 20.6 72.5667 18.8 72.7 18.4C72.8333 20.1333 72.9 23.6 72.9 28.8C73.0333 33.8667 73.1 39.8667 73.1 46.8C73.2333 53.7333 73.3 61.3333 73.3 69.6C73.3 77.7333 73.2333 85.7333 73.1 93.6C73.1 101.467 73.0333 108.933 72.9 116C72.9 123.067 72.8333 128.933 72.7 133.6ZM54.5 125.8C54.5 124.467 54.4333 121.933 54.3 118.2C54.3 114.333 54.2333 109.867 54.1 104.8C54.1 99.6 54.1 93.9333 54.1 87.8C54.1 81.5333 54.1 75.2667 54.1 69C54.1 62.7333 54.1 56.6667 54.1 50.8C54.1 44.8 54.1 39.4667 54.1 34.8C54.1 30.1333 54.1 26.3333 54.1 23.4C54.2333 20.4667 54.3667 18.8 54.5 18.4C54.6333 20.2667 54.7 23.5333 54.7 28.2C54.8333 32.8667 54.9 38.4 54.9 44.8C55.0333 51.2 55.1 58.1333 55.1 65.6C55.1 73.0667 55.0333 80.4667 54.9 87.8C54.9 95.1333 54.8333 102.133 54.7 108.8C54.7 115.467 54.6333 121.133 54.5 125.8ZM56.9 28C56.7667 27.8667 56.7667 27.1333 56.9 25.8C57.1667 26.6 57.1667 27.3333 56.9 28ZM65.5 73C65.3667 72.2 65.3667 71.6 65.5 71.2C65.6333 71.4667 65.6333 72.0667 65.5 73ZM59.9 84.8C60.1667 85.4667 60.2333 86.2667 60.1 87.2C59.9667 88 59.9 88.6 59.9 89C59.6333 88.4667 59.5 87.8667 59.5 87.2C59.6333 86.4 59.7667 85.6 59.9 84.8ZM70.7 36.2C70.7 35.6667 70.7667 35.3333 70.9 35.2C71.1667 34.9333 71.3 35.2667 71.3 36.2C71.3 37 71.1 37.2667 70.7 37C70.3 36.7333 70.3 36.4667 70.7 36.2ZM74.9 104.2C74.7667 104.2 74.7 103.533 74.7 102.2C74.7 101.667 74.7667 101 74.9 100.2C75.1667 100.733 75.3 101.467 75.3 102.4C75.3 103.2 75.1667 103.8 74.9 104.2ZM59.9 126.6C59.7667 126.333 59.6333 126.133 59.5 126C59.5 125.733 59.6333 125.467 59.9 125.2C60.0333 125.2 60.1 125.4 60.1 125.8C60.2333 126.067 60.1667 126.333 59.9 126.6ZM65.3 13.6C65.4333 13.7333 65.5 13.9333 65.5 14.2C65.6333 14.4667 65.5667 14.7333 65.3 15C65.1667 14.7333 65.0333 14.5333 64.9 14.4C64.9 14.2667 65.0333 14 65.3 13.6ZM71.1 130.8C70.8333 130.933 70.7667 130.733 70.9 130.2C71.0333 129.667 71.1 129.2 71.1 128.8C71.2333 129.2 71.3 129.6 71.3 130C71.4333 130.4 71.3667 130.667 71.1 130.8Z" fill="white"/>
</svg>
