<svg width="281" height="281" viewBox="0 0 281 281" fill="none" xmlns="http://www.w3.org/2000/svg">
<g clip-path="url(#clip0_625_105)">
<path d="M140.5 281C218.096 281 281 218.096 281 140.5C281 62.904 218.096 0 140.5 0C62.904 0 0 62.904 0 140.5C0 218.096 62.904 281 140.5 281Z" fill="#DFC680"/>
<path d="M133.721 53.25V220.25C133.554 220.417 133.137 220.75 132.471 221.25C131.804 221.75 131.137 222.333 130.471 223C129.804 223.667 129.137 224.25 128.471 224.75C127.971 225.25 127.637 225.583 127.471 225.75H88.2207V58.75C88.3874 58.5833 88.7207 58.25 89.2207 57.75C89.8874 57.25 90.554 56.6667 91.2207 56C91.8874 55.3333 92.554 54.75 93.2207 54.25C93.8874 53.75 94.304 53.4167 94.4707 53.25H133.721ZM124.221 61.75H120.721C120.554 62.25 120.471 62.8333 120.471 63.5C120.471 63.8333 120.387 64.1667 120.221 64.5C119.887 63.8333 119.721 63 119.721 62C119.554 62.1667 119.471 62.4167 119.471 62.75V63C119.471 62.8333 119.387 62.6667 119.221 62.5C119.221 62.3333 119.221 62.0833 119.221 61.75H118.221C118.054 62.0833 117.971 62.4167 117.971 62.75V63C117.971 62.8333 117.887 62.6667 117.721 62.5C117.721 62.3333 117.721 62.0833 117.721 61.75H110.721L110.221 64.25C109.887 63.5833 109.721 62.75 109.721 61.75H107.471C107.304 62.0833 107.221 62.4167 107.221 62.75V63C107.221 62.8333 107.137 62.6667 106.971 62.5C106.971 62.3333 106.971 62.0833 106.971 61.75H102.471C102.637 66.0833 102.721 70.1667 102.721 74C102.721 77.6667 102.721 81.25 102.721 84.75C102.721 88.25 102.721 91.6667 102.721 95C102.721 98.1667 102.637 101.5 102.471 105C102.304 101.833 102.137 98.0833 101.971 93.75C101.971 89.25 101.971 84.9167 101.971 80.75C101.971 76.5833 101.971 72.75 101.971 69.25C102.137 65.75 102.304 63.25 102.471 61.75H97.2207C97.054 62.0833 96.9707 62.5833 96.9707 63.25C96.9707 63.5833 96.8874 63.8333 96.7207 64C96.7207 63.5 96.6374 63.0833 96.4707 62.75C96.304 63.0833 96.2207 63.5833 96.2207 64.25V64.75C96.054 64.4167 95.8874 64 95.7207 63.5C95.7207 62.8333 95.6374 62.25 95.4707 61.75H92.7207C92.554 62.0833 92.4707 62.4167 92.4707 62.75V63C92.4707 62.8333 92.3874 62.6667 92.2207 62.5C92.2207 62.3333 92.2207 62.0833 92.2207 61.75H91.7207V222.75H94.4707L94.9707 220.75C94.9707 221.583 95.054 222.25 95.2207 222.75C95.2207 221.917 95.3874 220.833 95.7207 219.5C95.8874 218.833 95.9707 218.167 95.9707 217.5C95.9707 217.833 95.9707 218.583 95.9707 219.75C96.1374 220.917 96.304 221.917 96.4707 222.75H110.221C110.054 218.917 109.971 213.667 109.971 207C109.971 200.333 109.971 193.667 109.971 187C110.137 180.333 110.304 174.417 110.471 169.25C110.637 164.083 110.804 161.083 110.971 160.25C111.137 163.583 111.221 168.083 111.221 173.75C111.387 179.417 111.387 185.333 111.221 191.5C111.221 197.667 111.137 203.667 110.971 209.5C110.804 215.167 110.637 219.583 110.471 222.75H110.721L111.221 220.75C111.221 221.083 111.221 221.417 111.221 221.75C111.387 222.083 111.471 222.417 111.471 222.75H119.971C119.971 222.083 119.971 221.5 119.971 221C120.137 220.333 120.221 219.667 120.221 219C120.221 218.333 120.304 217.667 120.471 217C120.471 217.333 120.471 218.083 120.471 219.25C120.637 220.417 120.721 221.583 120.721 222.75C120.721 222.583 120.721 222.5 120.721 222.5C120.887 222.5 120.971 222.417 120.971 222.25C120.971 222.417 121.054 222.583 121.221 222.75H121.471L121.971 220.75C121.971 221.083 121.971 221.417 121.971 221.75C122.137 222.083 122.221 222.417 122.221 222.75H124.221V61.75ZM99.2207 173.5C99.2207 171 99.2207 167.5 99.2207 163C99.2207 158.5 99.1374 153.667 98.9707 148.5C98.9707 143.167 98.9707 137.667 98.9707 132C98.9707 126.333 98.9707 121.167 98.9707 116.5C98.9707 111.667 98.9707 107.5 98.9707 104C98.9707 100.5 99.054 98.25 99.2207 97.25C99.3874 98.75 99.4707 101.667 99.4707 106C99.6374 110.167 99.7207 115.083 99.7207 120.75C99.8874 126.25 99.9707 132 99.9707 138C99.9707 144 99.8874 149.583 99.7207 154.75C99.7207 159.917 99.6374 164.25 99.4707 167.75C99.4707 171.25 99.3874 173.167 99.2207 173.5ZM105.221 111.5C105.221 114.333 105.221 118.5 105.221 124C105.221 129.333 105.221 135.417 105.221 142.25C105.221 148.917 105.221 156 105.221 163.5C105.221 170.833 105.221 177.917 105.221 184.75C105.221 191.417 105.137 197.5 104.971 203C104.804 208.333 104.637 212.417 104.471 215.25C104.304 212.917 104.221 208.833 104.221 203C104.221 197 104.221 190.25 104.221 182.75C104.221 175.25 104.221 167.417 104.221 159.25C104.387 151.083 104.471 143.583 104.471 136.75C104.637 129.75 104.721 123.917 104.721 119.25C104.887 114.583 105.054 112 105.221 111.5ZM121.471 83.5C121.804 92.5 121.887 101.167 121.721 109.5C121.721 117.667 121.554 125.25 121.221 132.25C121.054 128.75 120.971 124.417 120.971 119.25C120.971 113.917 120.971 108.75 120.971 103.75C120.971 98.75 120.971 94.3333 120.971 90.5C121.137 86.6667 121.304 84.3333 121.471 83.5ZM111.471 156C111.304 153.667 111.221 149.917 111.221 144.75C111.221 139.417 111.137 133.5 110.971 127C110.971 120.333 110.887 113.5 110.721 106.5C110.721 99.3333 110.721 92.8333 110.721 87C110.887 81 110.971 76 110.971 72C110.971 67.8333 111.054 65.5 111.221 65C111.387 68.3333 111.554 73.3333 111.721 80C111.887 86.5 111.971 93.9167 111.971 102.25C111.971 110.583 111.887 119.417 111.721 128.75C111.721 138.083 111.637 147.167 111.471 156ZM117.471 219.25C117.471 217.583 117.387 214.25 117.221 209.25C117.221 204.25 117.137 198.333 116.971 191.5C116.971 184.5 116.971 176.833 116.971 168.5C116.971 160.167 116.971 151.833 116.971 143.5C116.971 135 116.971 126.75 116.971 118.75C116.971 110.75 116.971 103.583 116.971 97.25C116.971 90.9167 116.971 85.8333 116.971 82C117.137 78 117.304 75.75 117.471 75.25C117.637 77.4167 117.721 81.75 117.721 88.25C117.887 94.5833 117.971 102.083 117.971 110.75C118.137 119.417 118.221 128.917 118.221 139.25C118.221 149.417 118.137 159.417 117.971 169.25C117.971 179.083 117.887 188.417 117.721 197.25C117.721 206.083 117.637 213.417 117.471 219.25ZM94.7207 209.5C94.7207 207.833 94.6374 204.667 94.4707 200C94.4707 195.167 94.3874 189.583 94.2207 183.25C94.2207 176.75 94.2207 169.667 94.2207 162C94.2207 154.167 94.2207 146.333 94.2207 138.5C94.2207 130.667 94.2207 123.083 94.2207 115.75C94.2207 108.25 94.2207 101.583 94.2207 95.75C94.2207 89.9167 94.2207 85.1667 94.2207 81.5C94.3874 77.8333 94.554 75.75 94.7207 75.25C94.8874 77.5833 94.9707 81.6667 94.9707 87.5C95.1374 93.3333 95.2207 100.25 95.2207 108.25C95.3874 116.25 95.4707 124.917 95.4707 134.25C95.4707 143.583 95.3874 152.833 95.2207 162C95.2207 171.167 95.1374 179.917 94.9707 188.25C94.9707 196.583 94.8874 203.667 94.7207 209.5ZM97.7207 87.25C97.554 87.0833 97.554 86.1667 97.7207 84.5C98.054 85.5 98.054 86.4167 97.7207 87.25ZM108.471 143.5C108.304 142.5 108.304 141.75 108.471 141.25C108.637 141.583 108.637 142.333 108.471 143.5ZM101.471 158.25C101.804 159.083 101.887 160.083 101.721 161.25C101.554 162.25 101.471 163 101.471 163.5C101.137 162.833 100.971 162.083 100.971 161.25C101.137 160.25 101.304 159.25 101.471 158.25ZM114.971 97.5C114.971 96.8333 115.054 96.4167 115.221 96.25C115.554 95.9167 115.721 96.3333 115.721 97.5C115.721 98.5 115.471 98.8333 114.971 98.5C114.471 98.1667 114.471 97.8333 114.971 97.5ZM120.221 182.5C120.054 182.5 119.971 181.667 119.971 180C119.971 179.333 120.054 178.5 120.221 177.5C120.554 178.167 120.721 179.083 120.721 180.25C120.721 181.25 120.554 182 120.221 182.5ZM101.471 210.5C101.304 210.167 101.137 209.917 100.971 209.75C100.971 209.417 101.137 209.083 101.471 208.75C101.637 208.75 101.721 209 101.721 209.5C101.887 209.833 101.804 210.167 101.471 210.5ZM108.221 69.25C108.387 69.4167 108.471 69.6667 108.471 70C108.637 70.3333 108.554 70.6667 108.221 71C108.054 70.6667 107.887 70.4167 107.721 70.25C107.721 70.0833 107.887 69.75 108.221 69.25ZM115.471 215.75C115.137 215.917 115.054 215.667 115.221 215C115.387 214.333 115.471 213.75 115.471 213.25C115.637 213.75 115.721 214.25 115.721 214.75C115.887 215.25 115.804 215.583 115.471 215.75ZM195 53.25V220.25C194.833 220.417 194.417 220.75 193.75 221.25C193.083 221.75 192.417 222.333 191.75 223C191.083 223.667 190.417 224.25 189.75 224.75C189.25 225.25 188.917 225.583 188.75 225.75H149.5V58.75C149.667 58.5833 150 58.25 150.5 57.75C151.167 57.25 151.833 56.6667 152.5 56C153.167 55.3333 153.833 54.75 154.5 54.25C155.167 53.75 155.583 53.4167 155.75 53.25H195ZM185.5 61.75H182C181.833 62.25 181.75 62.8333 181.75 63.5C181.75 63.8333 181.667 64.1667 181.5 64.5C181.167 63.8333 181 63 181 62C180.833 62.1667 180.75 62.4167 180.75 62.75V63C180.75 62.8333 180.667 62.6667 180.5 62.5C180.5 62.3333 180.5 62.0833 180.5 61.75H179.5C179.333 62.0833 179.25 62.4167 179.25 62.75V63C179.25 62.8333 179.167 62.6667 179 62.5C179 62.3333 179 62.0833 179 61.75H172L171.5 64.25C171.167 63.5833 171 62.75 171 61.75H168.75C168.583 62.0833 168.5 62.4167 168.5 62.75V63C168.5 62.8333 168.417 62.6667 168.25 62.5C168.25 62.3333 168.25 62.0833 168.25 61.75H163.75C163.917 66.0833 164 70.1667 164 74C164 77.6667 164 81.25 164 84.75C164 88.25 164 91.6667 164 95C164 98.1667 163.917 101.5 163.75 105C163.583 101.833 163.417 98.0833 163.25 93.75C163.25 89.25 163.25 84.9167 163.25 80.75C163.25 76.5833 163.25 72.75 163.25 69.25C163.417 65.75 163.583 63.25 163.75 61.75H158.5C158.333 62.0833 158.25 62.5833 158.25 63.25C158.25 63.5833 158.167 63.8333 158 64C158 63.5 157.917 63.0833 157.75 62.75C157.583 63.0833 157.5 63.5833 157.5 64.25V64.75C157.333 64.4167 157.167 64 157 63.5C157 62.8333 156.917 62.25 156.75 61.75H154C153.833 62.0833 153.75 62.4167 153.75 62.75V63C153.75 62.8333 153.667 62.6667 153.5 62.5C153.5 62.3333 153.5 62.0833 153.5 61.75H153V222.75H155.75L156.25 220.75C156.25 221.583 156.333 222.25 156.5 222.75C156.5 221.917 156.667 220.833 157 219.5C157.167 218.833 157.25 218.167 157.25 217.5C157.25 217.833 157.25 218.583 157.25 219.75C157.417 220.917 157.583 221.917 157.75 222.75H171.5C171.333 218.917 171.25 213.667 171.25 207C171.25 200.333 171.25 193.667 171.25 187C171.417 180.333 171.583 174.417 171.75 169.25C171.917 164.083 172.083 161.083 172.25 160.25C172.417 163.583 172.5 168.083 172.5 173.75C172.667 179.417 172.667 185.333 172.5 191.5C172.5 197.667 172.417 203.667 172.25 209.5C172.083 215.167 171.917 219.583 171.75 222.75H172L172.5 220.75C172.5 221.083 172.5 221.417 172.5 221.75C172.667 222.083 172.75 222.417 172.75 222.75H181.25C181.25 222.083 181.25 221.5 181.25 221C181.417 220.333 181.5 219.667 181.5 219C181.5 218.333 181.583 217.667 181.75 217C181.75 217.333 181.75 218.083 181.75 219.25C181.917 220.417 182 221.583 182 222.75C182 222.583 182 222.5 182 222.5C182.167 222.5 182.25 222.417 182.25 222.25C182.25 222.417 182.333 222.583 182.5 222.75H182.75L183.25 220.75C183.25 221.083 183.25 221.417 183.25 221.75C183.417 222.083 183.5 222.417 183.5 222.75H185.5V61.75ZM160.5 173.5C160.5 171 160.5 167.5 160.5 163C160.5 158.5 160.417 153.667 160.25 148.5C160.25 143.167 160.25 137.667 160.25 132C160.25 126.333 160.25 121.167 160.25 116.5C160.25 111.667 160.25 107.5 160.25 104C160.25 100.5 160.333 98.25 160.5 97.25C160.667 98.75 160.75 101.667 160.75 106C160.917 110.167 161 115.083 161 120.75C161.167 126.25 161.25 132 161.25 138C161.25 144 161.167 149.583 161 154.75C161 159.917 160.917 164.25 160.75 167.75C160.75 171.25 160.667 173.167 160.5 173.5ZM166.5 111.5C166.5 114.333 166.5 118.5 166.5 124C166.5 129.333 166.5 135.417 166.5 142.25C166.5 148.917 166.5 156 166.5 163.5C166.5 170.833 166.5 177.917 166.5 184.75C166.5 191.417 166.417 197.5 166.25 203C166.083 208.333 165.917 212.417 165.75 215.25C165.583 212.917 165.5 208.833 165.5 203C165.5 197 165.5 190.25 165.5 182.75C165.5 175.25 165.5 167.417 165.5 159.25C165.667 151.083 165.75 143.583 165.75 136.75C165.917 129.75 166 123.917 166 119.25C166.167 114.583 166.333 112 166.5 111.5ZM182.75 83.5C183.083 92.5 183.167 101.167 183 109.5C183 117.667 182.833 125.25 182.5 132.25C182.333 128.75 182.25 124.417 182.25 119.25C182.25 113.917 182.25 108.75 182.25 103.75C182.25 98.75 182.25 94.3333 182.25 90.5C182.417 86.6667 182.583 84.3333 182.75 83.5ZM172.75 156C172.583 153.667 172.5 149.917 172.5 144.75C172.5 139.417 172.417 133.5 172.25 127C172.25 120.333 172.167 113.5 172 106.5C172 99.3333 172 92.8333 172 87C172.167 81 172.25 76 172.25 72C172.25 67.8333 172.333 65.5 172.5 65C172.667 68.3333 172.833 73.3333 173 80C173.167 86.5 173.25 93.9167 173.25 102.25C173.25 110.583 173.167 119.417 173 128.75C173 138.083 172.917 147.167 172.75 156ZM178.75 219.25C178.75 217.583 178.667 214.25 178.5 209.25C178.5 204.25 178.417 198.333 178.25 191.5C178.25 184.5 178.25 176.833 178.25 168.5C178.25 160.167 178.25 151.833 178.25 143.5C178.25 135 178.25 126.75 178.25 118.75C178.25 110.75 178.25 103.583 178.25 97.25C178.25 90.9167 178.25 85.8333 178.25 82C178.417 78 178.583 75.75 178.75 75.25C178.917 77.4167 179 81.75 179 88.25C179.167 94.5833 179.25 102.083 179.25 110.75C179.417 119.417 179.5 128.917 179.5 139.25C179.5 149.417 179.417 159.417 179.25 169.25C179.25 179.083 179.167 188.417 179 197.25C179 206.083 178.917 213.417 178.75 219.25ZM156 209.5C156 207.833 155.917 204.667 155.75 200C155.75 195.167 155.667 189.583 155.5 183.25C155.5 176.75 155.5 169.667 155.5 162C155.5 154.167 155.5 146.333 155.5 138.5C155.5 130.667 155.5 123.083 155.5 115.75C155.5 108.25 155.5 101.583 155.5 95.75C155.5 89.9167 155.5 85.1667 155.5 81.5C155.667 77.8333 155.833 75.75 156 75.25C156.167 77.5833 156.25 81.6667 156.25 87.5C156.417 93.3333 156.5 100.25 156.5 108.25C156.667 116.25 156.75 124.917 156.75 134.25C156.75 143.583 156.667 152.833 156.5 162C156.5 171.167 156.417 179.917 156.25 188.25C156.25 196.583 156.167 203.667 156 209.5ZM159 87.25C158.833 87.0833 158.833 86.1667 159 84.5C159.333 85.5 159.333 86.4167 159 87.25ZM169.75 143.5C169.583 142.5 169.583 141.75 169.75 141.25C169.917 141.583 169.917 142.333 169.75 143.5ZM162.75 158.25C163.083 159.083 163.167 160.083 163 161.25C162.833 162.25 162.75 163 162.75 163.5C162.417 162.833 162.25 162.083 162.25 161.25C162.417 160.25 162.583 159.25 162.75 158.25ZM176.25 97.5C176.25 96.8333 176.333 96.4167 176.5 96.25C176.833 95.9167 177 96.3333 177 97.5C177 98.5 176.75 98.8333 176.25 98.5C175.75 98.1667 175.75 97.8333 176.25 97.5ZM181.5 182.5C181.333 182.5 181.25 181.667 181.25 180C181.25 179.333 181.333 178.5 181.5 177.5C181.833 178.167 182 179.083 182 180.25C182 181.25 181.833 182 181.5 182.5ZM162.75 210.5C162.583 210.167 162.417 209.917 162.25 209.75C162.25 209.417 162.417 209.083 162.75 208.75C162.917 208.75 163 209 163 209.5C163.167 209.833 163.083 210.167 162.75 210.5ZM169.5 69.25C169.667 69.4167 169.75 69.6667 169.75 70C169.917 70.3333 169.833 70.6667 169.5 71C169.333 70.6667 169.167 70.4167 169 70.25C169 70.0833 169.167 69.75 169.5 69.25ZM176.75 215.75C176.417 215.917 176.333 215.667 176.5 215C176.667 214.333 176.75 213.75 176.75 213.25C176.917 213.75 177 214.25 177 214.75C177.167 215.25 177.083 215.583 176.75 215.75Z" fill="white"/>
</g>
<defs>
<clipPath id="clip0_625_105">
<rect width="281" height="281" fill="white"/>
</clipPath>
</defs>
</svg>
