<svg width="281" height="281" viewBox="0 0 281 281" fill="none" xmlns="http://www.w3.org/2000/svg">
<circle cx="140.5" cy="140.5" r="140.5" fill="#DFC680"/>
<path d="M113.285 59.8852L113.285 218.896C113.128 219.055 112.738 219.372 112.113 219.848C111.488 220.324 110.863 220.879 110.238 221.514C109.613 222.149 108.988 222.704 108.363 223.18C107.895 223.656 107.582 223.974 107.426 224.133L70.6338 224.133L70.6338 65.1221C70.79 64.9634 71.1025 64.646 71.5712 64.17C72.1961 63.6939 72.821 63.1384 73.4459 62.5037C74.0708 61.8689 74.6957 61.3135 75.3207 60.8374C75.9456 60.3613 76.3361 60.0439 76.4924 59.8852L113.285 59.8852ZM104.379 67.9786L101.098 67.9786C100.942 68.4547 100.864 69.0101 100.864 69.6449C100.864 69.9623 100.786 70.2797 100.63 70.597C100.317 69.9623 100.161 69.1688 100.161 68.2166C100.005 68.3753 99.9268 68.6134 99.9268 68.9308L99.9268 69.1688C99.9268 69.0101 99.8487 68.8514 99.6924 68.6927C99.6924 68.534 99.6924 68.296 99.6924 67.9786L98.755 67.9786C98.5988 68.296 98.5207 68.6134 98.5207 68.9308L98.5207 69.1688C98.5207 69.0101 98.4426 68.8514 98.2864 68.6927C98.2864 68.534 98.2864 68.296 98.2864 67.9786L91.7247 67.9786L91.256 70.359C90.9436 69.7242 90.7874 68.9308 90.7874 67.9786L88.6783 67.9786C88.522 68.296 88.4439 68.6134 88.4439 68.9308L88.4439 69.1688C88.4439 69.0101 88.3658 68.8514 88.2096 68.6927C88.2096 68.534 88.2096 68.296 88.2096 67.9786L83.9914 67.9786C84.1476 72.1046 84.2257 75.9926 84.2257 79.6425C84.2257 83.1338 84.2257 86.5457 84.2257 89.8782C84.2257 93.2108 84.2257 96.4641 84.2257 99.6379C84.2257 102.653 84.1476 105.827 83.9914 109.159C83.8351 106.144 83.6789 102.574 83.5227 98.4477C83.5227 94.163 83.5227 90.0369 83.5227 86.0696C83.5227 82.1023 83.5227 78.4523 83.5227 75.1198C83.6789 71.7872 83.8351 69.4068 83.9914 67.9786L79.0702 67.9786C78.9139 68.296 78.8358 68.7721 78.8358 69.4068C78.8358 69.7242 78.7577 69.9623 78.6015 70.121C78.6015 69.6449 78.5234 69.2481 78.3671 68.9308C78.2109 69.2481 78.1328 69.7242 78.1328 70.359L78.1328 70.8351C77.9766 70.5177 77.8203 70.121 77.6641 69.6449C77.6641 69.0101 77.586 68.4547 77.4298 67.9786L74.852 67.9786C74.6957 68.296 74.6176 68.6134 74.6176 68.9308L74.6176 69.1688C74.6176 69.0101 74.5395 68.8514 74.3833 68.6927C74.3833 68.534 74.3833 68.296 74.3833 67.9786L73.9146 67.9786L73.9146 221.276L76.4924 221.276L76.9611 219.372C76.9611 220.165 77.0392 220.8 77.1954 221.276C77.1954 220.483 77.3517 219.451 77.6641 218.182C77.8203 217.547 77.8984 216.912 77.8984 216.277C77.8984 216.595 77.8984 217.309 77.8984 218.42C78.0547 219.531 78.2109 220.483 78.3671 221.276L91.256 221.276C91.0998 217.626 91.0217 212.627 91.0217 206.28C91.0217 199.932 91.0217 193.584 91.0217 187.236C91.1779 180.889 91.3341 175.255 91.4904 170.336C91.6466 165.416 91.8028 162.56 91.9591 161.766C92.1153 164.94 92.1934 169.225 92.1934 174.62C92.3497 180.016 92.3497 185.649 92.1934 191.521C92.1934 197.393 92.1153 203.106 91.9591 208.66C91.8028 214.056 91.6466 218.261 91.4904 221.276L91.7247 221.276L92.1934 219.372C92.1934 219.689 92.1934 220.007 92.1934 220.324C92.3497 220.641 92.4278 220.959 92.4278 221.276L100.395 221.276C100.395 220.641 100.395 220.086 100.395 219.61C100.552 218.975 100.63 218.34 100.63 217.705C100.63 217.071 100.708 216.436 100.864 215.801C100.864 216.118 100.864 216.833 100.864 217.944C101.02 219.055 101.098 220.165 101.098 221.276C101.098 221.117 101.098 221.038 101.098 221.038C101.255 221.038 101.333 220.959 101.333 220.8C101.333 220.959 101.411 221.117 101.567 221.276L101.802 221.276L102.27 219.372C102.27 219.689 102.27 220.007 102.27 220.324C102.426 220.641 102.505 220.959 102.505 221.276L104.379 221.276L104.379 67.9786ZM80.9449 174.382C80.9449 172.002 80.9449 168.669 80.9449 164.385C80.9449 160.1 80.8668 155.498 80.7106 150.578C80.7106 145.5 80.7106 140.263 80.7106 134.868C80.7106 129.472 80.7106 124.553 80.7106 120.109C80.7106 115.507 80.7106 111.54 80.7106 108.207C80.7106 104.875 80.7887 102.732 80.9449 101.78C81.1012 103.208 81.1793 105.986 81.1793 110.112C81.3355 114.079 81.4136 118.76 81.4136 124.156C81.5698 129.393 81.6479 134.868 81.6479 140.581C81.6479 146.294 81.5698 151.61 81.4136 156.529C81.4136 161.449 81.3355 165.575 81.1793 168.907C81.1793 172.24 81.1012 174.065 80.9449 174.382ZM86.5692 115.348C86.5692 118.046 86.5692 122.014 86.5692 127.25C86.5692 132.329 86.5692 138.121 86.5692 144.627C86.5692 150.975 86.5692 157.72 86.5692 164.861C86.5692 171.843 86.5692 178.588 86.5692 185.094C86.5692 191.442 86.4911 197.234 86.3348 202.471C86.1786 207.549 86.0224 211.437 85.8661 214.135C85.7099 211.913 85.6318 208.025 85.6318 202.471C85.6318 196.758 85.6318 190.331 85.6318 183.19C85.6318 176.049 85.6318 168.59 85.6318 160.814C85.788 153.038 85.8661 145.897 85.8661 139.39C86.0224 132.725 86.1005 127.171 86.1005 122.728C86.2567 118.284 86.4129 115.825 86.5692 115.348ZM101.802 88.688C102.114 97.2575 102.192 105.51 102.036 113.444C102.036 121.22 101.88 128.441 101.567 135.106C101.411 131.773 101.333 127.647 101.333 122.728C101.333 117.65 101.333 112.73 101.333 107.969C101.333 103.208 101.333 99.003 101.333 95.3532C101.489 91.7032 101.645 89.4815 101.802 88.688ZM92.4278 157.72C92.2715 155.498 92.1934 151.927 92.1934 147.008C92.1934 141.93 92.1153 136.296 91.9591 130.107C91.9591 123.759 91.881 117.253 91.7247 110.588C91.7247 103.764 91.7247 97.5747 91.7247 92.0206C91.881 86.3077 91.9591 81.5469 91.9591 77.7382C91.9591 73.7709 92.0372 71.5492 92.1934 71.0731C92.3497 74.247 92.5059 79.0078 92.6621 85.3555C92.8184 91.5445 92.8965 98.6065 92.8965 106.541C92.8965 114.476 92.8184 122.887 92.6621 131.773C92.6621 140.66 92.584 149.309 92.4278 157.72ZM98.052 217.944C98.052 216.356 97.9739 213.183 97.8177 208.422C97.8177 203.661 97.7396 198.027 97.5833 191.521C97.5833 184.856 97.5833 177.556 97.5833 169.622C97.5833 161.687 97.5833 153.752 97.5833 145.818C97.5833 137.724 97.5833 129.869 97.5833 122.252C97.5833 114.634 97.5833 107.81 97.5833 101.78C97.5833 95.75 97.5833 90.9097 97.5833 87.2598C97.7396 83.4512 97.8958 81.3088 98.052 80.8327C98.2083 82.8957 98.2864 87.0218 98.2864 93.2108C98.4426 99.241 98.5207 106.382 98.5207 114.634C98.6769 122.887 98.755 131.932 98.755 141.771C98.755 151.451 98.6769 160.973 98.5207 170.336C98.5207 179.698 98.4426 188.585 98.2864 196.996C98.2864 205.407 98.2083 212.389 98.052 217.944ZM76.7267 208.66C76.7267 207.073 76.6486 204.058 76.4924 199.614C76.4924 195.013 76.4143 189.696 76.258 183.666C76.258 177.477 76.258 170.732 76.258 163.432C76.258 155.974 76.258 148.515 76.258 141.057C76.258 133.598 76.258 126.378 76.258 119.395C76.258 112.254 76.258 105.906 76.258 100.352C76.258 94.7979 76.258 90.275 76.258 86.7837C76.4143 83.2925 76.5705 81.3088 76.7267 80.8327C76.883 83.0544 76.9611 86.9424 76.9611 92.4967C77.1173 98.0508 77.1954 104.637 77.1954 112.254C77.3517 119.871 77.4298 128.123 77.4298 137.01C77.4298 145.897 77.3517 154.704 77.1954 163.432C77.1954 172.161 77.1173 180.492 76.9611 188.427C76.9611 196.361 76.883 203.106 76.7267 208.66ZM79.5389 92.2586C79.3826 92.0999 79.3826 91.2271 79.5389 89.6402C79.8513 90.5924 79.8513 91.4652 79.5389 92.2586ZM89.6156 145.818C89.4594 144.865 89.4594 144.151 89.6156 143.675C89.7719 143.992 89.7719 144.707 89.6156 145.818ZM83.054 159.862C83.3665 160.655 83.4446 161.607 83.2884 162.718C83.1321 163.671 83.054 164.385 83.054 164.861C82.7416 164.226 82.5853 163.512 82.5853 162.718C82.7416 161.766 82.8978 160.814 83.054 159.862ZM95.7086 102.018C95.7086 101.383 95.7867 100.987 95.9429 100.828C96.2554 100.511 96.4116 100.907 96.4116 102.018C96.4116 102.97 96.1773 103.288 95.7086 102.97C95.2399 102.653 95.2399 102.336 95.7086 102.018ZM100.63 182.952C100.474 182.952 100.395 182.158 100.395 180.571C100.395 179.936 100.474 179.143 100.63 178.191C100.942 178.826 101.098 179.698 101.098 180.809C101.098 181.762 100.942 182.476 100.63 182.952ZM83.054 209.612C82.8978 209.295 82.7416 209.057 82.5853 208.898C82.5853 208.581 82.7416 208.263 83.054 207.946C83.2103 207.946 83.2884 208.184 83.2884 208.66C83.4446 208.977 83.3665 209.295 83.054 209.612ZM89.3813 75.1198C89.5375 75.2785 89.6156 75.5165 89.6156 75.8339C89.7719 76.1513 89.6937 76.4687 89.3813 76.7861C89.2251 76.4687 89.0689 76.2306 88.9126 76.0719C88.9126 75.9132 89.0688 75.5959 89.3813 75.1198ZM96.1773 214.611C95.8648 214.77 95.7867 214.532 95.9429 213.897C96.0992 213.262 96.1773 212.707 96.1773 212.231C96.3335 212.707 96.4116 213.183 96.4116 213.659C96.5679 214.135 96.4897 214.452 96.1773 214.611Z" fill="white"/>
<path d="M244.246 162.787L118.976 221.122C118.806 221.027 118.445 220.76 117.89 220.322C117.336 219.883 116.72 219.473 116.04 219.093C115.361 218.713 114.745 218.303 114.19 217.865C113.681 217.58 113.341 217.389 113.172 217.294L102.627 181.19L227.896 122.855C228.066 122.95 228.406 123.14 228.915 123.425C229.469 123.864 230.086 124.273 230.765 124.654C231.444 125.034 232.061 125.443 232.615 125.882C233.169 126.321 233.531 126.587 233.701 126.683L244.246 162.787ZM235.318 157.017L234.377 153.798C233.958 153.819 233.498 153.946 232.998 154.179C232.748 154.295 232.475 154.335 232.18 154.298C232.591 153.759 233.171 153.314 233.921 152.965C233.751 152.87 233.542 152.881 233.291 152.997L233.104 153.084C233.229 153.026 233.332 152.891 233.412 152.68C233.537 152.622 233.724 152.534 233.974 152.418L233.706 151.498C233.411 151.461 233.139 151.501 232.889 151.617L232.701 151.705C232.826 151.646 232.929 151.512 233.009 151.3C233.134 151.242 233.321 151.154 233.571 151.038L231.691 144.599L229.681 145.013C230.092 144.473 230.672 144.029 231.422 143.679L230.818 141.61C230.523 141.573 230.25 141.613 230 141.729L229.813 141.816C229.938 141.758 230.041 141.623 230.121 141.412C230.246 141.354 230.433 141.266 230.683 141.15L229.474 137.01C226.269 138.677 223.228 140.18 220.353 141.52C217.602 142.8 214.914 144.052 212.289 145.275C209.663 146.497 207.1 147.691 204.6 148.855C202.225 149.961 199.702 151.049 197.032 152.118C199.362 150.859 202.131 149.396 205.336 147.729C208.712 146.157 211.962 144.643 215.088 143.188C218.213 141.732 221.089 140.393 223.714 139.17C226.384 138.101 228.304 137.381 229.474 137.01L228.064 132.181C227.769 132.144 227.372 132.242 226.872 132.475C226.622 132.592 226.412 132.602 226.242 132.507C226.617 132.333 226.907 132.11 227.112 131.841C226.817 131.804 226.42 131.902 225.92 132.135L225.545 132.309C225.75 132.04 226.018 131.741 226.348 131.413C226.848 131.18 227.263 130.9 227.594 130.572L226.855 128.042C226.56 128.005 226.288 128.045 226.038 128.161L225.85 128.249C225.975 128.19 226.078 128.056 226.158 127.844C226.283 127.786 226.471 127.699 226.721 127.582L226.586 127.122L105.817 183.362L106.556 185.891L108.191 185.653C107.566 185.944 107.088 186.253 106.758 186.581C107.383 186.29 108.24 186.065 109.33 185.906C109.875 185.826 110.397 185.67 110.897 185.437C110.647 185.554 110.085 185.816 109.209 186.223C108.379 186.784 107.674 187.287 107.093 187.731L110.788 200.379C113.618 198.887 117.534 196.976 122.535 194.647C127.536 192.318 132.536 189.99 137.537 187.661C142.583 185.485 147.066 183.572 150.986 181.921C154.906 180.269 157.202 179.374 157.871 179.237C155.416 180.554 152.063 182.203 147.812 184.182C143.606 186.315 139.168 188.382 134.497 190.383C129.872 192.537 125.348 194.556 120.928 196.44C116.633 198.267 113.275 199.656 110.855 200.609L110.922 200.839L112.556 200.6C112.306 200.717 112.056 200.833 111.806 200.949C111.601 201.219 111.373 201.412 111.123 201.529L113.407 209.347C113.907 209.115 114.345 208.911 114.72 208.736C115.265 208.657 115.787 208.5 116.287 208.267C116.787 208.035 117.31 207.878 117.854 207.799C117.605 207.915 117.042 208.177 116.167 208.585C115.336 209.146 114.484 209.63 113.608 210.037C113.734 209.979 113.796 209.95 113.796 209.95C113.841 210.103 113.926 210.151 114.051 210.093C113.926 210.151 113.823 210.286 113.743 210.497L113.81 210.727L115.445 210.488C115.195 210.605 114.944 210.721 114.694 210.838C114.489 211.108 114.261 211.301 114.011 211.417L114.549 213.257L235.318 157.017ZM144.776 173.057C146.651 172.184 149.276 170.961 152.652 169.389C156.027 167.817 159.63 166.052 163.461 164.094C167.462 162.231 171.588 160.31 175.838 158.33C180.089 156.351 183.964 154.546 187.465 152.916C191.091 151.228 194.216 149.772 196.842 148.55C199.467 147.327 201.177 146.618 201.972 146.422C200.892 147.099 198.726 148.194 195.476 149.708C192.395 151.317 188.729 153.111 184.479 155.09C180.398 157.165 176.107 159.25 171.606 161.346C167.106 163.442 162.895 165.316 158.975 166.967C155.099 168.772 151.826 170.209 149.156 171.278C146.53 172.501 145.07 173.094 144.776 173.057ZM192.895 156.918C190.77 157.908 187.644 159.364 183.518 161.285C179.518 163.148 174.954 165.273 169.829 167.66C164.828 169.989 159.515 172.463 153.889 175.083C148.388 177.644 143.074 180.119 137.949 182.506C132.948 184.835 128.362 186.883 124.192 188.651C120.147 190.36 117.039 191.634 114.869 192.47C116.574 191.502 119.615 189.999 123.99 187.961C128.491 185.865 133.554 183.507 139.18 180.887C144.806 178.267 150.682 175.531 156.808 172.678C162.979 169.979 168.627 167.436 173.753 165.049C179.048 162.757 183.446 160.796 186.947 159.166C190.493 157.689 192.475 156.94 192.895 156.918ZM218.264 162.085C211.602 165.536 205.124 168.64 198.828 171.397C192.702 174.25 186.969 176.746 181.628 178.884C184.209 177.508 187.437 175.918 191.313 174.113C195.313 172.25 199.189 170.445 202.94 168.699C206.69 166.952 210.003 165.409 212.879 164.07C215.799 162.885 217.594 162.223 218.264 162.085ZM161.194 178.212C162.899 177.244 165.69 175.857 169.565 174.052C173.566 172.189 177.982 170.046 182.813 167.622C187.814 165.293 192.917 162.83 198.123 160.231C203.499 157.728 208.375 155.457 212.75 153.419C217.296 151.477 221.069 149.807 224.069 148.41C227.195 146.954 228.967 146.216 229.387 146.194C226.932 147.512 223.226 149.412 218.27 151.894C213.439 154.318 207.898 156.985 201.647 159.896C195.396 162.807 188.747 165.816 181.702 168.923C174.701 172.183 167.864 175.28 161.194 178.212ZM115.361 205.825C116.611 205.243 119.089 204.002 122.795 202.102C126.545 200.356 130.961 198.212 136.042 195.672C141.293 193.227 147.044 190.548 153.295 187.638C159.546 184.727 165.797 181.816 172.048 178.905C178.424 175.936 184.612 173.054 190.613 170.259C196.614 167.465 201.99 164.961 206.741 162.749C211.491 160.537 215.305 158.761 218.18 157.422C221.225 156.178 222.958 155.545 223.378 155.524C221.797 156.434 218.569 158.024 213.693 160.295C208.987 162.661 203.384 165.357 196.883 168.384C190.427 171.565 183.323 174.96 175.572 178.57C167.945 182.121 160.422 185.538 153.001 188.819C145.625 192.254 138.601 195.438 131.93 198.37C125.305 201.456 119.781 203.941 115.361 205.825ZM116.562 181.493C117.813 180.911 120.165 179.728 123.621 177.945C127.247 176.256 131.413 174.229 136.119 171.864C140.994 169.593 146.308 167.119 152.059 164.441C157.934 161.704 163.811 158.968 169.686 156.232C175.562 153.495 181.251 150.846 186.752 148.285C192.377 145.665 197.378 143.336 201.754 141.298C206.13 139.261 209.693 137.602 212.443 136.321C215.238 135.193 216.846 134.619 217.266 134.597C215.56 135.566 212.52 137.069 208.144 139.106C203.813 141.297 198.647 143.79 192.646 146.585C186.69 149.533 180.211 152.637 173.21 155.897C166.209 159.157 159.248 162.312 152.327 165.36C145.451 168.563 138.865 171.542 132.57 174.3C126.319 177.211 120.983 179.609 116.562 181.493ZM209.07 141.549C209.15 141.337 209.838 141.017 211.133 140.588C210.472 141.244 209.785 141.564 209.07 141.549ZM169.764 171.086C170.47 170.583 171.032 170.321 171.452 170.3C171.247 170.57 170.684 170.832 169.764 171.086ZM156.819 169.8C156.284 170.397 155.556 170.823 154.636 171.077C153.841 171.273 153.256 171.459 152.881 171.633C153.292 171.094 153.81 170.679 154.435 170.388C155.23 170.192 156.024 169.996 156.819 169.8ZM206.016 160.997C206.516 160.764 206.851 160.695 207.021 160.79C207.36 160.98 207.093 161.279 206.217 161.686C205.467 162.036 205.15 161.922 205.266 161.346C205.381 160.77 205.632 160.653 206.016 160.997ZM143.666 195.517C143.622 195.364 144.224 194.996 145.475 194.414C145.975 194.181 146.622 193.967 147.417 193.771C147.006 194.31 146.364 194.784 145.488 195.191C144.738 195.541 144.131 195.649 143.666 195.517ZM117.626 188.051C117.831 187.782 117.974 187.541 118.054 187.329C118.304 187.213 118.599 187.25 118.938 187.44C118.983 187.593 118.818 187.757 118.443 187.932C118.238 188.202 117.965 188.241 117.626 188.051ZM225.393 144.919C225.313 145.131 225.148 145.295 224.898 145.411C224.693 145.681 224.42 145.721 224.081 145.531C224.286 145.261 224.429 145.02 224.509 144.809C224.634 144.751 224.929 144.787 225.393 144.919ZM117.449 202.763C117.234 202.515 117.399 202.351 117.944 202.271C118.489 202.191 118.949 202.064 119.324 201.89C118.994 202.218 118.641 202.469 118.266 202.644C117.936 202.972 117.663 203.011 117.449 202.763Z" fill="white"/>
<path d="M113.516 61.3638L231.118 118.201C231.191 118.405 231.314 118.887 231.487 119.648C231.66 120.408 231.892 121.197 232.183 122.014C232.473 122.831 232.705 123.62 232.878 124.381C233.096 124.994 233.241 125.402 233.314 125.606L222.779 160.36L105.177 103.524C105.105 103.319 104.959 102.911 104.742 102.298C104.568 101.537 104.336 100.749 104.046 99.9314C103.755 99.1142 103.524 98.3254 103.35 97.5649C103.177 96.8044 103.054 96.3221 102.982 96.1178L113.516 61.3638ZM116.952 72.6684L116.013 75.7677C116.32 76.0854 116.709 76.3577 117.178 76.5846C117.413 76.6981 117.625 76.8853 117.815 77.1463C117.256 77.2146 116.625 77.0785 115.921 76.7382C115.993 76.9425 116.147 77.1014 116.382 77.2148L116.558 77.2999C116.44 77.2432 116.301 77.2602 116.138 77.3511C116.021 77.2944 115.845 77.2093 115.61 77.0958L115.342 77.9813C115.532 78.2423 115.744 78.4295 115.979 78.543L116.155 78.6281C116.038 78.5713 115.898 78.5884 115.736 78.6793C115.618 78.6225 115.442 78.5374 115.208 78.424L113.329 84.6221L114.955 85.9157C114.396 85.9839 113.765 85.8479 113.061 85.5076L112.457 87.4998C112.647 87.7609 112.859 87.9481 113.094 88.0615L113.27 88.1466C113.152 88.0899 113.013 88.1069 112.851 88.1978C112.733 88.1411 112.557 88.056 112.322 87.9426L111.115 91.9271C114.211 93.2543 117.109 94.5702 119.808 95.8749C122.39 97.1228 124.914 98.3423 127.378 99.5335C129.843 100.725 132.249 101.888 134.596 103.022C136.827 104.1 139.151 105.308 141.571 106.647C139.297 105.717 136.611 104.588 133.515 103.261C130.346 101.729 127.294 100.254 124.36 98.8363C121.426 97.4182 118.727 96.1135 116.262 94.9223C113.842 93.5836 112.126 92.5852 111.115 91.9271L109.706 96.5757C109.896 96.8367 110.225 97.0806 110.695 97.3075C110.929 97.421 111.083 97.5798 111.156 97.7842C110.804 97.614 110.488 97.546 110.208 97.5801C110.398 97.8411 110.728 98.0851 111.198 98.312L111.55 98.4821C111.27 98.5163 110.932 98.522 110.535 98.4994C110.066 98.2725 109.633 98.1478 109.236 98.1252L108.498 100.56C108.688 100.821 108.9 101.008 109.135 101.122L109.311 101.207C109.194 101.15 109.054 101.167 108.892 101.258C108.774 101.201 108.598 101.116 108.364 101.003L108.229 101.446L221.606 156.24L222.344 153.805L221.07 152.682C221.657 152.965 222.149 153.119 222.546 153.141C221.959 152.858 221.24 152.341 220.391 151.592C219.966 151.218 219.519 150.917 219.05 150.69C219.284 150.804 219.813 151.059 220.634 151.456C221.501 151.706 222.25 151.898 222.881 152.034L226.572 139.86C223.827 138.703 220.108 136.99 215.413 134.721C210.718 132.452 206.024 130.183 201.329 127.914C196.679 125.497 192.557 123.336 188.964 121.43C185.37 119.524 183.302 118.355 182.76 117.924C185.152 118.911 188.343 120.369 192.334 122.297C196.369 124.078 200.536 126.092 204.834 128.338C209.176 130.437 213.379 132.553 217.442 134.686C221.388 136.762 224.453 138.413 226.639 139.638L226.706 139.417L225.432 138.293C225.666 138.407 225.901 138.52 226.136 138.634C226.415 138.6 226.672 138.639 226.907 138.753L229.188 131.226C228.719 130.999 228.308 130.801 227.956 130.631C227.531 130.256 227.084 129.956 226.615 129.729C226.145 129.502 225.698 129.201 225.273 128.827C225.508 128.94 226.036 129.195 226.858 129.593C227.724 129.842 228.568 130.165 229.39 130.562C229.272 130.506 229.214 130.477 229.214 130.477C229.258 130.33 229.222 130.228 229.105 130.171C229.222 130.228 229.362 130.21 229.524 130.12L229.591 129.898L228.317 128.775C228.551 128.888 228.786 129.002 229.021 129.115C229.3 129.081 229.558 129.121 229.792 129.234L230.329 127.463L116.952 72.6684ZM188.937 132.838C187.177 131.987 184.712 130.796 181.543 129.264C178.374 127.733 174.948 126.161 171.265 124.551C167.509 122.736 163.636 120.864 159.646 118.935C155.655 117.006 152.017 115.248 148.73 113.66C145.327 112.015 142.393 110.597 139.928 109.405C137.463 108.214 135.901 107.375 135.242 106.887C136.343 107.25 138.419 108.169 141.47 109.643C144.449 110.914 147.934 112.513 151.925 114.442C155.842 116.166 159.914 118.05 164.139 120.092C168.364 122.134 172.274 124.108 175.867 126.014C179.506 127.772 182.535 129.321 184.955 130.659C187.42 131.851 188.747 132.577 188.937 132.838ZM146.887 106.424C148.882 107.388 151.816 108.806 155.689 110.678C159.445 112.493 163.729 114.564 168.541 116.889C173.236 119.158 178.224 121.569 183.505 124.122C188.67 126.617 193.658 129.028 198.47 131.354C203.165 133.623 207.426 135.767 211.254 137.786C214.965 139.749 217.796 141.286 219.747 142.398C218.059 141.752 215.161 140.436 211.053 138.451C206.828 136.408 202.075 134.111 196.793 131.559C191.511 129.006 185.995 126.34 180.244 123.561C174.538 120.634 169.279 118.007 164.467 115.682C159.582 113.152 155.497 111.093 152.21 109.504C148.969 107.768 147.194 106.742 146.887 106.424ZM131.531 82.506C137.958 85.2739 144.083 88.1497 149.907 91.1334C155.658 93.9129 160.953 96.6414 165.793 99.3189C163.284 98.2753 160.21 96.8743 156.572 95.1158C152.816 93.3007 149.178 91.5423 145.657 89.8406C142.136 88.1389 139.025 86.6357 136.326 85.3311C133.671 83.8788 132.073 82.9372 131.531 82.506ZM179.901 116.035C178.214 115.389 175.551 114.186 171.912 112.428C168.156 110.613 163.967 108.673 159.345 106.608C154.651 104.339 149.816 102.087 144.842 99.8523C139.795 97.4132 135.218 95.201 131.11 93.2157C126.93 91.0261 123.431 89.2506 120.614 87.8893C117.68 86.4712 116.059 85.6033 115.752 85.2855C118.144 86.2724 121.71 87.8265 126.449 89.9479C131.071 92.0125 136.316 94.463 142.185 97.2991C148.053 100.135 154.251 103.215 160.779 106.539C167.351 109.716 173.726 112.881 179.901 116.035ZM226.053 132.249C224.879 131.682 222.509 130.621 218.944 129.067C215.423 127.365 211.234 125.425 206.377 123.247C201.447 120.865 196.048 118.255 190.18 115.419C184.312 112.583 178.443 109.747 172.575 106.911C166.589 104.018 160.78 101.21 155.146 98.4874C149.512 95.7647 144.465 93.3256 140.006 91.1701C135.546 89.0147 131.966 87.2846 129.267 85.98C126.494 84.471 124.955 83.5577 124.647 83.24C126.218 83.8298 129.292 85.2308 133.869 87.443C138.374 89.4509 143.678 91.9296 149.781 94.8793C155.929 97.6814 162.641 100.841 169.918 104.358C177.077 107.818 184.097 111.295 190.977 114.789C197.901 118.136 204.452 121.386 210.627 124.54C216.848 127.546 221.99 130.116 226.053 132.249ZM213.081 149.074C211.907 148.507 209.655 147.503 206.324 146.063C202.92 144.418 198.966 142.591 194.461 140.583C189.884 138.371 184.896 135.96 179.497 133.351C173.981 130.685 168.464 128.019 162.948 125.353C157.432 122.687 152.091 120.106 146.927 117.61C141.646 115.058 136.951 112.789 132.843 110.804C128.736 108.818 125.39 107.202 122.808 105.954C120.271 104.558 118.849 103.702 118.541 103.384C120.229 104.03 123.127 105.346 127.235 107.332C131.387 109.169 136.281 111.45 141.914 114.172C147.593 116.747 153.718 119.623 160.291 122.8C166.863 125.976 173.355 129.198 179.765 132.466C186.22 135.585 192.36 138.637 198.183 141.621C204.052 144.457 209.018 146.942 213.081 149.074ZM127.797 104.812C127.635 104.902 126.989 104.59 125.86 103.876C126.654 103.921 127.3 104.233 127.797 104.812ZM170.294 114.437C169.545 114.244 169.017 113.989 168.709 113.671C168.989 113.637 169.517 113.892 170.294 114.437ZM178.802 125.655C179.478 125.644 180.205 125.91 180.982 126.455C181.641 126.943 182.147 127.272 182.499 127.442C181.94 127.51 181.367 127.403 180.78 127.119C180.121 126.631 179.461 126.143 178.802 125.655ZM139.645 93.0261C139.175 92.7992 138.904 92.5837 138.832 92.3793C138.687 91.9708 139.025 91.9649 139.846 92.362C140.55 92.7024 140.718 93.0371 140.349 93.3665C139.98 93.6958 139.745 93.5823 139.645 93.0261ZM200.911 117.306C200.867 117.454 200.257 117.244 199.084 116.677C198.614 116.45 198.05 116.093 197.39 115.605C197.949 115.536 198.639 115.701 199.461 116.098C200.165 116.438 200.649 116.841 200.911 117.306ZM215.597 143.438C215.317 143.472 215.096 143.535 214.934 143.626C214.7 143.512 214.509 143.251 214.364 142.842C214.409 142.695 214.607 142.706 214.959 142.876C215.239 142.842 215.451 143.03 215.597 143.438ZM117.939 89.3883C118.102 89.2974 118.3 89.3087 118.535 89.4222C118.814 89.388 119.027 89.5753 119.172 89.9839C118.892 90.018 118.672 90.0805 118.509 90.1714C118.392 90.1146 118.202 89.8536 117.939 89.3883ZM223.051 132.829C223.079 133.18 222.881 133.169 222.456 132.795C222.031 132.42 221.643 132.148 221.291 131.978C221.688 132 222.062 132.097 222.414 132.267C222.811 132.289 223.023 132.477 223.051 132.829Z" fill="white"/>
</svg>
