<svg width="175" height="166" viewBox="0 0 175 166" fill="none" xmlns="http://www.w3.org/2000/svg">
<path d="M43.2846 0.885246L43.2846 159.896C43.1282 160.055 42.7375 160.372 42.1128 160.848C41.4878 161.324 40.8628 161.879 40.2381 162.514C39.613 163.149 38.988 163.704 38.3633 164.18C37.8946 164.656 37.5819 164.974 37.426 165.133L0.633788 165.133L0.633789 6.12213C0.790019 5.96342 1.10248 5.64605 1.57116 5.16997C2.19609 4.69389 2.82099 4.13844 3.44592 3.50369C4.07084 2.86891 4.69574 2.31349 5.32067 1.83742C5.9456 1.36133 6.33614 1.04394 6.49239 0.885246L43.2846 0.885246ZM34.3795 8.9786L31.0985 8.9786C30.9422 9.45468 30.8641 10.0101 30.8641 10.6449C30.8641 10.9623 30.786 11.2797 30.6298 11.597C30.3174 10.9623 30.1611 10.1688 30.1611 9.21664C30.0049 9.37531 29.9268 9.61335 29.9268 9.93076L29.9268 10.1688C29.9268 10.0101 29.8487 9.85139 29.6924 9.69272C29.6924 9.53402 29.6924 9.29598 29.6924 8.9786L28.755 8.9786C28.5988 9.29598 28.5207 9.61335 28.5207 9.93076L28.5207 10.1688C28.5207 10.0101 28.4426 9.85139 28.2864 9.69272C28.2864 9.53402 28.2864 9.29598 28.2864 8.9786L21.7247 8.9786L21.256 11.359C20.9436 10.7242 20.7874 9.93076 20.7874 8.9786L18.6783 8.9786C18.522 9.29598 18.4439 9.61335 18.4439 9.93076L18.4439 10.1688C18.4439 10.0101 18.3658 9.85139 18.2096 9.69272C18.2096 9.53402 18.2096 9.29598 18.2096 8.9786L13.9914 8.9786C14.1476 13.1046 14.2257 16.9926 14.2257 20.6425C14.2257 24.1338 14.2257 27.5457 14.2257 30.8782C14.2257 34.2108 14.2257 37.4641 14.2257 40.6379C14.2257 43.6532 14.1476 46.8269 13.9914 50.1595C13.8351 47.1442 13.6789 43.5736 13.5227 39.4477C13.5227 35.163 13.5227 31.0369 13.5227 27.0696C13.5227 23.1023 13.5227 19.4523 13.5227 16.1198C13.6789 12.7872 13.8351 10.4068 13.9914 8.9786L9.07017 8.9786C8.91393 9.29598 8.83582 9.77206 8.83582 10.4068C8.83582 10.7242 8.75772 10.9623 8.60148 11.121C8.60148 10.6449 8.52338 10.2481 8.36714 9.93076C8.21089 10.2481 8.13279 10.7242 8.13279 11.359L8.13279 11.8351C7.97655 11.5177 7.82035 11.121 7.6641 10.6449C7.6641 10.0101 7.586 9.45468 7.42976 8.9786L4.85198 8.9786C4.69574 9.29598 4.61763 9.61335 4.61763 9.93076L4.61763 10.1688C4.61763 10.0101 4.53953 9.85139 4.38329 9.69272C4.38329 9.53402 4.38329 9.29598 4.38329 8.9786L3.9146 8.9786L3.9146 162.276L6.49238 162.276L6.96107 160.372C6.96107 161.165 7.03917 161.8 7.19542 162.276C7.19542 161.483 7.35166 160.451 7.6641 159.182C7.82035 158.547 7.89845 157.912 7.89845 157.277C7.89845 157.595 7.89845 158.309 7.89845 159.42C8.05469 160.531 8.21089 161.483 8.36714 162.276L21.256 162.276C21.0998 158.626 21.0217 153.627 21.0217 147.28C21.0217 140.932 21.0217 134.584 21.0217 128.236C21.1779 121.889 21.3341 116.255 21.4904 111.336C21.6466 106.416 21.8028 103.56 21.9591 102.766C22.1153 105.94 22.1934 110.225 22.1934 115.62C22.3497 121.016 22.3497 126.649 22.1934 132.521C22.1934 138.393 22.1153 144.106 21.9591 149.66C21.8028 155.056 21.6466 159.261 21.4904 162.276L21.7247 162.276L22.1934 160.372C22.1934 160.689 22.1934 161.007 22.1934 161.324C22.3497 161.641 22.4278 161.959 22.4278 162.276L30.3955 162.276C30.3955 161.641 30.3955 161.086 30.3955 160.61C30.5517 159.975 30.6298 159.34 30.6298 158.705C30.6298 158.071 30.7079 157.436 30.8641 156.801C30.8641 157.118 30.8641 157.833 30.8641 158.944C31.0204 160.055 31.0985 161.165 31.0985 162.276C31.0985 162.117 31.0985 162.038 31.0985 162.038C31.2547 162.038 31.3328 161.959 31.3328 161.8C31.3328 161.959 31.4109 162.117 31.5672 162.276L31.8015 162.276L32.2702 160.372C32.2702 160.689 32.2702 161.007 32.2702 161.324C32.4264 161.641 32.5046 161.959 32.5046 162.276L34.3795 162.276L34.3795 8.9786ZM10.9449 115.382C10.9449 113.002 10.9449 109.669 10.9449 105.385C10.9449 101.1 10.8668 96.4979 10.7106 91.5783C10.7106 86.5003 10.7106 81.2634 10.7106 75.8677C10.7106 70.472 10.7106 65.5528 10.7106 61.1093C10.7106 56.5073 10.7106 52.5398 10.7106 49.2073C10.7106 45.8747 10.7887 43.7324 10.9449 42.7802C11.1012 44.2085 11.1793 46.9857 11.1793 51.1116C11.3355 55.0791 11.4136 59.7603 11.4136 65.1559C11.5698 70.3928 11.6479 75.8677 11.6479 81.5807C11.6479 87.2936 11.5698 92.6097 11.4136 97.5293C11.4136 102.449 11.3355 106.575 11.1793 109.907C11.1793 113.24 11.1012 115.065 10.9449 115.382ZM16.5692 56.3485C16.5692 59.0461 16.5692 63.0136 16.5692 68.2505C16.5692 73.3285 16.5692 79.1211 16.5692 85.6273C16.5692 91.9752 16.5692 98.7195 16.5692 105.861C16.5692 112.843 16.5692 119.588 16.5692 126.094C16.5692 132.442 16.4911 138.234 16.3348 143.471C16.1786 148.549 16.0224 152.437 15.8661 155.135C15.7099 152.913 15.6318 149.025 15.6318 143.471C15.6318 137.758 15.6318 131.331 15.6318 124.19C15.6318 117.049 15.6318 109.59 15.6318 101.814C15.788 94.038 15.8661 86.8968 15.8661 80.3905C16.0224 73.7254 16.1005 68.1712 16.1005 63.7277C16.2567 59.2842 16.4129 56.8246 16.5692 56.3485ZM31.8015 29.688C32.114 38.2575 32.1921 46.5096 32.0359 54.4442C32.0359 62.2202 31.8796 69.4407 31.5672 76.1058C31.4109 72.7732 31.3328 68.6473 31.3328 63.7277C31.3328 58.6497 31.3328 53.73 31.3328 48.9693C31.3328 44.2085 31.3328 40.003 31.3328 36.3532C31.4891 32.7032 31.6453 30.4815 31.8015 29.688ZM22.4278 98.7195C22.2715 96.4979 22.1934 92.9274 22.1934 88.0077C22.1934 82.9297 22.1153 77.296 21.9591 71.1069C21.9591 64.7591 21.881 58.2528 21.7247 51.5877C21.7247 44.7638 21.7247 38.5747 21.7247 33.0206C21.881 27.3077 21.9591 22.5469 21.9591 18.7382C21.9591 14.7709 22.0372 12.5492 22.1934 12.0731C22.3497 15.247 22.5059 20.0078 22.6621 26.3555C22.8184 32.5445 22.8965 39.6065 22.8965 47.541C22.8965 55.4755 22.8184 63.8865 22.6621 72.7732C22.6621 81.6599 22.584 90.3089 22.4278 98.7195ZM28.052 158.944C28.052 157.356 27.9739 154.183 27.8177 149.422C27.8177 144.661 27.7396 139.027 27.5833 132.521C27.5833 125.856 27.5833 118.556 27.5833 110.622C27.5833 102.687 27.5833 94.7521 27.5833 86.8175C27.5833 78.7242 27.5833 70.8689 27.5833 63.2516C27.5833 55.6344 27.5833 48.8104 27.5833 42.7802C27.5833 36.75 27.5833 31.9097 27.5833 28.2598C27.7396 24.4512 27.8958 22.3088 28.052 21.8327C28.2083 23.8957 28.2864 28.0218 28.2864 34.2108C28.4426 40.241 28.5207 47.3822 28.5207 55.6344C28.6769 63.8865 28.755 72.932 28.755 82.7709C28.755 92.4513 28.6769 101.973 28.5207 111.336C28.5207 120.698 28.4426 129.585 28.2864 137.996C28.2864 146.407 28.2083 153.389 28.052 158.944ZM6.72673 149.66C6.72673 148.073 6.64863 145.058 6.49238 140.614C6.49238 136.013 6.41428 130.696 6.25804 124.666C6.25804 118.477 6.25804 111.732 6.25804 104.432C6.25804 96.974 6.25804 89.5152 6.25804 82.0568C6.25804 74.5983 6.25804 67.3775 6.25804 60.3951C6.25804 53.254 6.25804 46.9061 6.25804 41.352C6.25804 35.7979 6.25804 31.275 6.25804 27.7837C6.41428 24.2925 6.57049 22.3088 6.72673 21.8327C6.88297 24.0544 6.96107 27.9424 6.96107 33.4967C7.11731 39.0508 7.19542 45.6367 7.19542 53.254C7.35166 60.8712 7.42976 69.1234 7.42976 78.0101C7.42976 86.8968 7.35166 95.7042 7.19542 104.432C7.19542 113.161 7.11731 121.492 6.96107 129.427C6.96107 137.361 6.88297 144.106 6.72673 149.66ZM9.53886 33.2586C9.38261 33.0999 9.38261 32.2271 9.53886 30.6402C9.8513 31.5924 9.8513 32.4652 9.53886 33.2586ZM19.6156 86.8175C19.4594 85.8654 19.4594 85.1513 19.6156 84.6752C19.7719 84.9925 19.7719 85.7066 19.6156 86.8175ZM13.054 100.862C13.3665 101.655 13.4446 102.607 13.2884 103.718C13.1321 104.671 13.054 105.385 13.054 105.861C12.7416 105.226 12.5853 104.512 12.5853 103.718C12.7416 102.766 12.8978 101.814 13.054 100.862ZM25.7086 43.0183C25.7086 42.3834 25.7867 41.9869 25.9429 41.8281C26.2554 41.5108 26.4116 41.9073 26.4116 43.0183C26.4116 43.9704 26.1773 44.2877 25.7086 43.9704C25.2399 43.6532 25.2399 43.3355 25.7086 43.0183ZM30.6298 123.952C30.4736 123.952 30.3955 123.158 30.3955 121.571C30.3955 120.936 30.4736 120.143 30.6298 119.191C30.9422 119.826 31.0985 120.698 31.0985 121.809C31.0985 122.762 30.9422 123.476 30.6298 123.952ZM13.054 150.612C12.8978 150.295 12.7416 150.057 12.5853 149.898C12.5853 149.581 12.7416 149.263 13.054 148.946C13.2103 148.946 13.2884 149.184 13.2884 149.66C13.4446 149.977 13.3665 150.295 13.054 150.612ZM19.3813 16.1198C19.5375 16.2785 19.6156 16.5165 19.6156 16.8339C19.7719 17.1513 19.6937 17.4687 19.3813 17.7861C19.2251 17.4687 19.0689 17.2306 18.9126 17.0719C18.9126 16.9132 19.0688 16.5959 19.3813 16.1198ZM26.1773 155.611C25.8648 155.77 25.7867 155.532 25.9429 154.897C26.0992 154.262 26.1773 153.707 26.1773 153.231C26.3335 153.707 26.4116 154.183 26.4116 154.659C26.5679 155.135 26.4897 155.452 26.1773 155.611Z" fill="white"/>
<path d="M174.246 103.787L48.9764 162.122C48.8065 162.027 48.4446 161.76 47.8905 161.322C47.3363 160.883 46.7197 160.473 46.0404 160.093C45.3611 159.713 44.7445 159.303 44.1904 158.865C43.681 158.58 43.3415 158.389 43.1716 158.294L32.6266 122.19L157.896 63.8548C158.066 63.9498 158.406 64.14 158.915 64.4253C159.469 64.8639 160.086 65.2733 160.765 65.6537C161.444 66.034 162.061 66.4435 162.615 66.8821C163.169 67.3206 163.531 67.5874 163.701 67.6825L174.246 103.787ZM165.318 98.0172L164.377 94.7976C163.958 94.8189 163.498 94.946 162.998 95.1789C162.748 95.2954 162.475 95.3352 162.18 95.2983C162.591 94.7588 163.171 94.3144 163.921 93.9651C163.751 93.87 163.542 93.8806 163.291 93.9971L163.104 94.0844C163.229 94.0262 163.332 93.8913 163.412 93.6798C163.537 93.6216 163.724 93.5343 163.974 93.4178L163.706 92.498C163.411 92.4611 163.139 92.5009 162.889 92.6173L162.701 92.7047C162.826 92.6464 162.929 92.5116 163.009 92.3C163.134 92.2418 163.321 92.1545 163.571 92.0381L161.691 85.5992L159.681 86.0125C160.092 85.473 160.672 85.0286 161.422 84.6793L160.818 82.6097C160.523 82.5728 160.25 82.6126 160 82.729L159.813 82.8164C159.938 82.7581 160.041 82.6233 160.121 82.4117C160.246 82.3535 160.433 82.2662 160.683 82.1497L159.474 78.0105C156.269 79.6775 153.228 81.1805 150.353 82.5195C147.602 83.8003 144.914 85.0521 142.289 86.2747C139.663 87.4973 137.1 88.6908 134.6 89.8551C132.225 90.9614 129.702 92.049 127.032 93.1183C129.362 91.8588 132.131 90.3956 135.336 88.7286C138.712 87.1567 141.962 85.643 145.088 84.1875C148.213 82.732 151.089 81.393 153.714 80.1704C156.384 79.1011 158.304 78.3811 159.474 78.0105L158.064 73.1813C157.769 73.1444 157.372 73.2424 156.872 73.4753C156.622 73.5917 156.412 73.6024 156.242 73.5073C156.617 73.3327 156.907 73.1105 157.112 72.8407C156.817 72.8038 156.42 72.9018 155.92 73.1347L155.545 73.3094C155.75 73.0396 156.018 72.7408 156.348 72.4128C156.848 72.1799 157.263 71.8995 157.594 71.5716L156.855 69.042C156.56 69.0051 156.288 69.0449 156.038 69.1613L155.85 69.2487C155.975 69.1905 156.078 69.0556 156.158 68.8441C156.283 68.7858 156.471 68.6985 156.721 68.5821L156.586 68.1221L35.8173 124.362L36.5561 126.891L38.1907 126.653C37.5657 126.944 37.0879 127.253 36.7576 127.581C37.3826 127.29 38.2402 127.065 39.3298 126.906C39.8748 126.826 40.3971 126.67 40.8972 126.437C40.6473 126.554 40.0847 126.816 39.2095 127.223C38.379 127.784 37.6737 128.287 37.0934 128.731L40.7875 141.379C43.6181 139.887 47.5338 137.976 52.5347 135.647C57.5356 133.318 62.5362 130.99 67.5371 128.661C72.5827 126.485 77.0655 124.572 80.986 122.921C84.9065 121.269 87.2016 120.374 87.8714 120.237C85.4159 121.554 82.0627 123.203 77.812 125.182C73.606 127.315 69.168 129.382 64.4974 131.383C59.8716 133.537 55.3485 135.556 50.9281 137.44C46.6325 139.267 43.275 140.656 40.8547 141.609L40.9219 141.839L42.5564 141.6C42.3065 141.717 42.0563 141.833 41.8063 141.949C41.6012 142.219 41.3733 142.412 41.1234 142.529L43.407 150.347C43.9072 150.115 44.3446 149.911 44.7197 149.736C45.2646 149.657 45.7869 149.5 46.2871 149.267C46.7873 149.035 47.3095 148.878 47.8545 148.799C47.6045 148.915 47.042 149.177 46.1667 149.585C45.3363 150.146 44.4837 150.63 43.6085 151.037C43.7336 150.979 43.796 150.95 43.796 150.95C43.8408 151.103 43.9256 151.151 44.0507 151.093C43.9256 151.151 43.8231 151.286 43.7428 151.497L43.81 151.727L45.4445 151.488C45.1946 151.605 44.9444 151.721 44.6944 151.838C44.4893 152.108 44.2614 152.301 44.0115 152.417L44.5488 154.257L165.318 98.0172ZM74.7756 114.057C76.6509 113.184 79.2763 111.961 82.6518 110.389C86.0273 108.817 89.6304 107.052 93.4613 105.094C97.4619 103.231 101.588 101.31 105.838 99.3304C110.089 97.3509 113.964 95.5462 117.465 93.916C121.091 92.2277 124.216 90.7722 126.842 89.5496C129.467 88.327 131.177 87.6176 131.972 87.4217C130.892 88.0989 128.726 89.1945 125.476 90.7081C122.395 92.317 118.729 94.111 114.479 96.0905C110.398 98.165 106.107 100.25 101.606 102.346C97.1055 104.442 92.8951 106.316 88.9746 107.967C85.0989 109.772 81.8261 111.209 79.1559 112.278C76.5305 113.501 75.0703 114.094 74.7756 114.057ZM122.895 97.9184C120.77 98.9081 117.644 100.364 113.518 102.285C109.518 104.148 104.954 106.273 99.8287 108.66C94.8278 110.989 89.5146 113.463 83.8887 116.083C78.3879 118.644 73.0744 121.119 67.9487 123.506C62.9478 125.835 58.3623 127.883 54.1919 129.651C50.1466 131.36 47.0386 132.634 44.8686 133.47C46.574 132.502 49.6148 130.999 53.9904 128.961C58.4911 126.865 63.5544 124.507 69.1803 121.887C74.8062 119.267 80.682 116.531 86.808 113.678C92.9789 110.979 98.6272 108.436 103.753 106.049C109.048 103.757 113.446 101.796 116.947 100.166C120.493 98.6889 122.475 97.9398 122.895 97.9184ZM148.264 103.085C141.602 106.536 135.124 109.64 128.828 112.397C122.702 115.25 116.969 117.746 111.628 119.884C114.209 118.508 117.437 116.918 121.313 115.113C125.313 113.25 129.189 111.445 132.94 109.699C136.69 107.952 140.003 106.409 142.879 105.07C145.799 103.885 147.594 103.223 148.264 103.085ZM91.1937 119.212C92.8991 118.244 95.6897 116.857 99.5654 115.052C103.566 113.189 107.982 111.046 112.813 108.622C117.814 106.293 122.917 103.83 128.123 101.231C133.499 98.7275 138.375 96.457 142.75 94.4194C147.296 92.4768 151.069 90.8069 154.069 89.4096C157.195 87.9541 158.967 87.2157 159.387 87.1944C156.932 88.5121 153.226 90.4119 148.27 92.894C143.439 95.3179 137.898 97.9853 131.647 100.896C125.396 103.807 118.747 106.816 111.702 109.923C104.701 113.183 97.8644 116.28 91.1937 119.212ZM45.3607 146.825C46.611 146.243 49.0889 145.002 52.7947 143.102C56.5453 141.356 60.9612 139.212 66.0422 136.672C71.293 134.227 77.044 131.548 83.2949 128.638C89.5458 125.727 95.7969 122.816 102.048 119.905C108.424 116.936 114.612 114.054 120.613 111.259C126.614 108.465 131.99 105.961 136.741 103.749C141.491 101.537 145.305 99.7608 148.18 98.4218C151.225 97.1779 152.958 96.5452 153.378 96.5238C151.797 97.434 148.569 99.0244 143.693 101.295C138.987 103.661 133.384 106.357 126.883 109.384C120.427 112.565 113.323 115.96 105.572 119.57C97.9454 123.121 90.4218 126.538 83.001 129.819C75.6249 133.254 68.6012 136.438 61.9305 139.37C55.3046 142.456 49.7811 144.941 45.3607 146.825ZM46.5623 122.493C47.8126 121.911 50.1654 120.728 53.6213 118.945C57.2468 117.256 61.4127 115.229 66.1186 112.864C70.9944 110.593 76.3076 108.119 82.0586 105.441C87.9344 102.704 93.8106 99.9679 99.6864 97.2317C105.562 94.4954 111.251 91.8464 116.752 89.2848C122.377 86.6649 127.378 84.3361 131.754 82.2985C136.13 80.2608 139.693 78.6015 142.443 77.3207C145.238 76.1932 146.846 75.6188 147.266 75.5974C145.56 76.5658 142.52 78.0688 138.144 80.1065C133.813 82.2974 128.647 84.7902 122.646 87.5847C116.69 90.5326 110.211 93.6367 103.21 96.8969C96.2092 100.157 89.2482 103.312 82.3273 106.36C75.4511 109.563 68.8652 112.542 62.5695 115.3C56.3186 118.211 50.9827 120.609 46.5623 122.493ZM139.07 82.5487C139.15 82.3372 139.838 82.017 141.133 81.5881C140.472 82.244 139.785 82.5642 139.07 82.5487ZM99.7642 112.086C100.47 111.583 101.032 111.321 101.452 111.3C101.247 111.57 100.684 111.832 99.7642 112.086ZM86.8193 110.8C86.2839 111.397 85.5562 111.823 84.6362 112.077C83.8413 112.273 83.2563 112.459 82.8812 112.633C83.2919 112.094 83.8097 111.679 84.4347 111.388C85.2296 111.192 86.0245 110.996 86.8193 110.8ZM136.016 101.997C136.516 101.764 136.851 101.695 137.021 101.79C137.36 101.98 137.093 102.279 136.217 102.686C135.467 103.036 135.15 102.922 135.266 102.346C135.381 101.77 135.632 101.653 136.016 101.997ZM73.6664 136.517C73.6216 136.364 74.2242 135.996 75.4745 135.414C75.9747 135.181 76.6221 134.967 77.417 134.771C77.0063 135.31 76.3637 135.784 75.4885 136.191C74.7384 136.541 74.131 136.649 73.6664 136.517ZM47.6257 129.051C47.8309 128.782 47.9736 128.541 48.054 128.329C48.3039 128.213 48.5989 128.25 48.9384 128.44C48.9832 128.593 48.818 128.757 48.443 128.932C48.2378 129.202 47.9652 129.241 47.6257 129.051ZM155.393 85.9194C155.313 86.1309 155.148 86.2949 154.898 86.4114C154.693 86.6811 154.42 86.7209 154.081 86.5307C154.286 86.2609 154.429 86.0203 154.509 85.8088C154.634 85.7506 154.929 85.7875 155.393 85.9194ZM47.4488 143.763C47.2342 143.515 47.3993 143.351 47.9443 143.271C48.4892 143.191 48.9491 143.064 49.3241 142.89C48.9938 143.218 48.6412 143.469 48.2661 143.644C47.9358 143.972 47.6635 144.011 47.4488 143.763Z" fill="white"/>
<path d="M43.5164 2.36379L161.118 59.2005C161.191 59.405 161.314 59.8874 161.487 60.6477C161.66 61.4082 161.892 62.1971 162.183 63.0141C162.473 63.8315 162.705 64.6204 162.878 65.3806C163.096 65.9935 163.241 66.4023 163.314 66.6064L152.779 101.36L35.1773 44.5237C35.1047 44.3194 34.9594 43.9108 34.7415 43.2979C34.5684 42.5374 34.3365 41.7486 34.046 40.9314C33.7554 40.1142 33.5236 39.3254 33.3504 38.5649C33.1772 37.8044 33.0543 37.3221 32.9817 37.1178L43.5164 2.36379ZM46.9523 13.6684L46.0129 16.7677C46.3202 17.0854 46.7087 17.3577 47.1781 17.5846C47.4129 17.6981 47.6253 17.8853 47.8152 18.1463C47.2563 18.2146 46.6247 18.0785 45.9205 17.7382C45.9931 17.9425 46.1468 18.1014 46.3816 18.2148L46.5576 18.2999C46.4403 18.2432 46.3005 18.2602 46.1384 18.3511C46.0211 18.2944 45.845 18.2093 45.6103 18.0958L45.3419 18.9813C45.5319 19.2423 45.7442 19.4295 45.979 19.543L46.155 19.6281C46.0377 19.5713 45.8979 19.5884 45.7358 19.6793C45.6185 19.6225 45.4424 19.5374 45.2077 19.424L43.3289 25.6221L44.9552 26.9157C44.3963 26.9839 43.7647 26.8479 43.0605 26.5076L42.4566 28.4998C42.6466 28.7609 42.859 28.9481 43.0937 29.0615L43.2698 29.1466C43.1524 29.0899 43.0126 29.1069 42.8506 29.1978C42.7332 29.1411 42.5571 29.056 42.3224 28.9426L41.1146 32.9271C44.2109 34.2543 47.1087 35.5702 49.8082 36.8749C52.3903 38.1228 54.9137 39.3423 57.3784 40.5335C59.8431 41.7247 62.2492 42.8876 64.5965 44.022C66.8266 45.0998 69.1515 46.308 71.5714 47.6468C69.2966 46.7166 66.6111 45.5878 63.5149 44.2607C60.346 42.7291 57.2945 41.2543 54.3603 39.8363C51.4261 38.4182 48.7267 37.1135 46.2619 35.9223C43.842 34.5836 42.1262 33.5852 41.1146 32.9271L39.7055 37.5757C39.8955 37.8367 40.2253 38.0806 40.6947 38.3075C40.9295 38.421 41.0831 38.5798 41.1558 38.7842C40.8037 38.614 40.4879 38.546 40.2084 38.5801C40.3984 38.8411 40.7282 39.0851 41.1976 39.312L41.5497 39.4821C41.2703 39.5163 40.9321 39.522 40.5353 39.4994C40.0658 39.2725 39.6327 39.1478 39.2358 39.1252L38.4977 41.5602C38.6877 41.8212 38.9001 42.0084 39.1348 42.1219L39.3109 42.207C39.1935 42.1502 39.0538 42.1673 38.8917 42.2582C38.7743 42.2014 38.5983 42.1163 38.3635 42.0029L38.2293 42.4456L151.606 97.2403L152.344 94.8053L151.07 93.6819C151.657 93.9655 152.149 94.1187 152.546 94.1412C151.959 93.8577 151.24 93.3413 150.391 92.5924C149.966 92.2179 149.519 91.9173 149.05 91.6904C149.284 91.8038 149.813 92.059 150.634 92.4561C151.501 92.7057 152.25 92.8984 152.881 93.0344L156.572 80.8595C153.827 79.7025 150.108 77.9895 145.413 75.7206C140.718 73.4516 136.024 71.1827 131.329 68.9138C126.679 66.4972 122.557 64.3361 118.964 62.43C115.37 60.524 113.302 59.3554 112.76 58.9242C115.152 59.9111 118.343 61.3688 122.334 63.2974C126.369 65.0785 130.536 67.0921 134.834 69.3385C139.176 71.4373 143.379 73.5531 147.442 75.686C151.388 77.7622 154.453 79.4128 156.639 80.6382L156.706 80.4168L155.432 79.2934C155.666 79.4068 155.901 79.5203 156.136 79.6337C156.415 79.5996 156.672 79.6393 156.907 79.7527L159.188 72.2264C158.719 71.9995 158.308 71.801 157.956 71.6308C157.531 71.2563 157.084 70.9557 156.615 70.7288C156.145 70.5019 155.698 70.2013 155.273 69.8267C155.508 69.9401 156.036 70.1954 156.858 70.5925C157.724 70.842 158.568 71.1652 159.39 71.5623C159.272 71.5056 159.214 71.4773 159.214 71.4773C159.258 71.3297 159.222 71.2276 159.105 71.1708C159.222 71.2276 159.362 71.2104 159.524 71.1196L159.591 70.8983L158.317 69.7748C158.551 69.8883 158.786 70.0018 159.021 70.1152C159.3 70.081 159.558 70.1208 159.792 70.2342L160.329 68.4631L46.9523 13.6684ZM118.937 73.8377C117.177 72.9869 114.712 71.7957 111.543 70.2642C108.374 68.7326 104.948 67.1615 101.265 65.5506C97.5093 63.7355 93.6361 61.8636 89.6456 59.935C85.655 58.0064 82.0168 56.248 78.7304 54.6597C75.3268 53.0148 72.3926 51.5967 69.9278 50.4055C67.4631 49.2143 65.901 48.3748 65.2416 47.8868C66.3426 48.2498 68.419 49.1687 71.4704 50.6434C74.4495 51.914 77.934 53.5135 81.9246 55.4421C85.8424 57.1664 89.914 59.0496 94.1392 61.0916C98.3644 63.1336 102.274 65.1076 105.867 67.0136C109.506 68.7721 112.535 70.3206 114.955 71.6594C117.42 72.8506 118.747 73.5767 118.937 73.8377ZM76.8869 47.424C78.882 48.3882 81.8163 49.8064 85.6894 51.6782C89.4451 53.4933 93.7292 55.5638 98.5411 57.8894C103.236 60.1584 108.224 62.5691 113.505 65.1217C118.67 67.6174 123.658 70.0283 128.47 72.3539C133.165 74.6228 137.426 76.767 141.254 78.7864C144.965 80.7491 147.796 82.2865 149.747 83.3983C148.059 82.7518 145.161 81.4358 141.053 79.4505C136.828 77.4085 132.075 75.1112 126.793 72.5586C121.511 70.0061 115.995 67.3401 110.244 64.5607C104.538 61.6336 99.2787 59.0073 94.4667 56.6817C89.582 54.1517 85.4966 52.0926 82.2102 50.5043C78.9686 48.7685 77.1942 47.7417 76.8869 47.424ZM61.5306 23.506C67.9579 26.2739 74.0835 29.1497 79.907 32.1334C85.6581 34.9129 90.9535 37.6414 95.7935 40.3189C93.284 39.2753 90.2102 37.8743 86.5717 36.1158C82.8161 34.3007 79.1776 32.5423 75.6566 30.8406C72.1355 29.1389 69.0252 27.6357 66.3258 26.3311C63.6711 24.8788 62.0727 23.9372 61.5306 23.506ZM109.901 57.0351C108.214 56.3886 105.551 55.1861 101.912 53.4276C98.1564 51.6125 93.9674 49.6726 89.3453 47.6079C84.6505 45.339 79.8162 43.0871 74.842 40.8523C69.7951 38.4132 65.2178 36.201 61.1101 34.2157C56.9296 32.0261 53.4309 30.2506 50.6141 28.8893C47.6799 27.4712 46.0591 26.6033 45.7518 26.2855C48.1438 27.2724 51.7096 28.8265 56.449 30.9479C61.0711 33.0125 66.3164 35.463 72.1847 38.2991C78.0529 41.1352 84.2512 44.2154 90.779 47.5394C97.3514 50.7159 103.726 53.8812 109.901 57.0351ZM156.053 73.2489C154.879 72.6816 152.509 71.6209 148.944 70.0668C145.423 68.3651 141.234 66.4252 136.377 64.2472C131.447 61.8648 126.048 59.2555 120.18 56.4193C114.312 53.5832 108.443 50.747 102.575 47.9109C96.5893 45.018 90.7797 42.2102 85.146 39.4874C79.5124 36.7647 74.4655 34.3256 70.0056 32.1701C65.5458 30.0147 61.966 28.2846 59.2665 26.98C56.4944 25.471 54.9547 24.5577 54.6473 24.24C56.2178 24.8298 59.2918 26.2308 63.8691 28.443C68.3737 30.4509 73.6776 32.9296 79.7808 35.8793C85.9287 38.6814 92.641 41.8408 99.9177 45.3576C107.077 48.8178 114.097 52.2949 120.977 55.7892C127.901 59.1358 134.452 62.3861 140.627 65.54C146.848 68.5463 151.99 71.116 156.053 73.2489ZM143.081 90.0745C141.907 89.5072 139.655 88.5033 136.324 87.0626C132.92 85.4177 128.966 83.5911 124.461 81.5833C119.884 79.3711 114.896 76.9604 109.497 74.3511C103.981 71.6851 98.4642 69.019 92.948 66.3531C87.4318 63.6871 82.0914 61.1061 76.9273 58.6104C71.6458 56.0578 66.951 53.7888 62.8433 51.8036C58.7355 49.8183 55.3904 48.2016 52.8084 46.9537C50.271 45.5582 48.8486 44.7016 48.5413 44.3839C50.2292 45.0304 53.127 46.3463 57.2349 48.3317C61.3874 50.1694 66.2806 52.4496 71.9142 55.1724C77.5926 57.7475 83.7181 60.6234 90.2906 63.7998C96.8631 66.9763 103.355 70.1982 109.765 73.4656C116.22 76.5854 122.36 79.6372 128.183 82.6209C134.052 85.457 139.018 87.9416 143.081 90.0745ZM57.7969 45.8116C57.6348 45.9025 56.9893 45.5905 55.8604 44.8757C56.654 44.9209 57.2996 45.2329 57.7969 45.8116ZM100.294 55.4372C99.5447 55.2444 99.0166 54.9891 98.7092 54.6714C98.9886 54.6372 99.5168 54.8925 100.294 55.4372ZM108.802 66.6553C109.478 66.6437 110.205 66.9103 110.982 67.455C111.641 67.9429 112.147 68.2719 112.499 68.4421C111.94 68.5103 111.367 68.4026 110.78 68.119C110.121 67.6311 109.461 67.1432 108.802 66.6553ZM69.6449 34.0261C69.1753 33.7992 68.9045 33.5837 68.8317 33.3793C68.6865 32.9708 69.0245 32.9649 69.8462 33.362C70.5504 33.7024 70.7179 34.0371 70.3491 34.3665C69.9802 34.6958 69.7453 34.5823 69.6449 34.0261ZM130.911 58.3064C130.867 58.454 130.257 58.2442 129.084 57.6769C128.614 57.45 128.05 57.0926 127.39 56.6047C127.949 56.5365 128.639 56.7008 129.461 57.0979C130.165 57.4382 130.649 57.8411 130.911 58.3064ZM145.597 84.438C145.317 84.4722 145.096 84.5347 144.934 84.6255C144.7 84.5121 144.509 84.251 144.364 83.8424C144.409 83.6949 144.607 83.7062 144.959 83.8763C145.239 83.8422 145.451 84.0295 145.597 84.438ZM47.9394 30.3883C48.1015 30.2974 48.2999 30.3087 48.5347 30.4222C48.8141 30.388 49.0265 30.5753 49.1718 30.9839C48.8923 31.018 48.6715 31.0805 48.5094 31.1714C48.3921 31.1146 48.2021 30.8536 47.9394 30.3883ZM153.051 73.8286C153.079 74.1805 152.881 74.1692 152.456 73.7947C152.031 73.4201 151.643 73.1479 151.291 72.9777C151.688 73.0003 152.062 73.0967 152.414 73.2669C152.811 73.2894 153.023 73.4767 153.051 73.8286Z" fill="white"/>
</svg>
