<svg width="39" height="39" viewBox="0 0 39 39" fill="none" xmlns="http://www.w3.org/2000/svg">
<path d="M38.7884 28.44H28.3244V36.792C28.2604 36.856 28.1004 36.984 27.8444 37.176C27.5884 37.368 27.3324 37.592 27.0764 37.848C26.8204 38.104 26.5644 38.328 26.3084 38.52C26.1164 38.712 25.9884 38.84 25.9244 38.904H10.8524V28.44H2.50038C2.37238 28.312 2.02038 27.928 1.44438 27.288C0.868375 26.584 0.516375 26.168 0.388375 26.04V10.968H10.8524V2.616C10.9164 2.552 11.0444 2.424 11.2364 2.232C11.4924 2.04 11.7484 1.848 12.0044 1.656C12.3244 1.4 12.5804 1.176 12.7724 0.983997C13.0284 0.727999 13.1884 0.567999 13.2524 0.503998H28.3244V10.968H36.5804C36.6444 11.032 36.7724 11.192 36.9644 11.448C37.2204 11.704 37.4444 11.96 37.6364 12.216C37.8924 12.472 38.1164 12.728 38.3084 12.984C38.5644 13.176 38.7244 13.304 38.7884 13.368V28.44ZM3.65237 18.36H10.8524V16.92C10.7884 16.92 10.7244 16.92 10.6604 16.92C10.6604 16.856 10.5964 16.824 10.4684 16.824H10.8524V15.672C9.57238 15.672 8.26038 15.672 6.91638 15.672C5.63638 15.672 4.70838 15.64 4.13238 15.576C4.58038 15.512 5.47638 15.48 6.82037 15.48C8.16438 15.48 9.50838 15.48 10.8524 15.48V14.616H3.65237V15.768C3.84438 15.832 4.06838 15.864 4.32438 15.864C4.19638 15.864 4.06838 15.896 3.94038 15.96C3.87638 15.96 3.78038 15.96 3.65237 15.96V18.36ZM3.65237 22.008C4.42038 22.008 5.41238 22.008 6.62838 22.008C7.90838 21.944 9.31638 21.912 10.8524 21.912V18.552H3.65237V19.608C3.97238 19.672 4.35638 19.736 4.80438 19.8C5.25238 19.8 5.63638 19.8 5.95638 19.8C5.70038 19.8 5.34838 19.832 4.90038 19.896C4.51638 19.96 4.10038 19.992 3.65237 19.992V22.008ZM10.8524 27.096V25.56C10.0844 25.56 9.38038 25.56 8.74038 25.56C8.10038 25.496 7.62038 25.464 7.30038 25.464C7.49238 25.4 7.90838 25.368 8.54838 25.368C9.18838 25.368 9.95638 25.368 10.8524 25.368V22.68H9.31638C9.06038 22.68 8.83638 22.648 8.64438 22.584C8.70838 22.584 8.93238 22.584 9.31638 22.584C9.76438 22.584 10.2764 22.552 10.8524 22.488V22.2C9.38038 22.136 8.00438 22.104 6.72438 22.104C5.44438 22.104 4.42038 22.104 3.65237 22.104V23.448C3.84438 23.448 4.03638 23.48 4.22838 23.544C4.42038 23.544 4.58038 23.544 4.70838 23.544C4.26038 23.544 3.90838 23.576 3.65237 23.64C3.97238 23.704 4.29238 23.768 4.61238 23.832C4.93238 23.832 5.15638 23.832 5.28438 23.832C5.02838 23.832 4.74038 23.864 4.42038 23.928C4.16438 23.928 3.90838 23.928 3.65237 23.928V26.328C3.84438 26.392 4.16438 26.424 4.61238 26.424C4.48438 26.424 4.32438 26.456 4.13238 26.52C4.00438 26.52 3.84438 26.52 3.65237 26.52V27.096H10.8524ZM24.6764 3.768H23.5244C23.4604 4.024 23.4284 4.28 23.4284 4.536C23.4284 4.408 23.3964 4.28 23.3324 4.152C23.3324 4.024 23.3324 3.896 23.3324 3.768H20.8364C20.8364 5.112 20.8364 6.776 20.8364 8.76C20.9004 10.744 20.9324 12.696 20.9324 14.616C20.9324 16.536 20.9004 18.232 20.8364 19.704C20.8364 21.176 20.8364 22.04 20.8364 22.296C20.7724 21.976 20.7084 21.08 20.6444 19.608C20.6444 18.136 20.6444 16.44 20.6444 14.52C20.6444 12.6 20.6444 10.68 20.6444 8.76C20.7084 6.776 20.7404 5.112 20.7404 3.768H19.6844C19.6204 4.088 19.5564 4.472 19.4924 4.92C19.4924 5.368 19.4924 5.752 19.4924 6.072C19.4924 5.816 19.4604 5.496 19.3964 5.112C19.3324 4.664 19.3004 4.216 19.3004 3.768H17.2844C17.2844 4.664 17.2844 5.88 17.2844 7.416C17.3484 8.888 17.3804 10.552 17.3804 12.408C17.3804 14.2 17.3804 16.056 17.3804 17.976C17.3804 19.832 17.3804 21.624 17.3804 23.352C17.3804 25.016 17.3484 26.488 17.2844 27.768C17.2844 28.984 17.2524 29.848 17.1884 30.36C17.1884 29.592 17.1564 28.024 17.0924 25.656C17.0924 23.288 17.0924 20.728 17.0924 17.976C17.0924 15.16 17.0924 12.44 17.0924 9.816C17.1564 7.128 17.1884 5.112 17.1884 3.768H15.8444C15.8444 4.024 15.8124 4.248 15.7484 4.44C15.7484 4.632 15.7484 4.76 15.7484 4.824C15.7484 4.376 15.7164 4.024 15.6524 3.768C15.5884 4.088 15.5244 4.408 15.4604 4.728C15.4604 5.048 15.4604 5.272 15.4604 5.4C15.4604 5.144 15.4284 4.888 15.3644 4.632C15.3644 4.376 15.3644 4.088 15.3644 3.768H12.9644C12.9004 4.024 12.8684 4.344 12.8684 4.728C12.8684 4.6 12.8364 4.472 12.7724 4.344C12.7724 4.152 12.7724 3.96 12.7724 3.768H12.1964V37.656H13.0604C13.1244 37.592 13.1564 37.432 13.1564 37.176C13.2204 37.304 13.2524 37.4 13.2524 37.464C13.2524 37.528 13.2844 37.592 13.3484 37.656H15.3644C15.3644 36.952 15.3644 36.056 15.3644 34.968C15.3644 33.816 15.3644 32.664 15.3644 31.512C15.3644 30.36 15.3644 29.304 15.3644 28.344C15.4284 27.32 15.4604 26.616 15.4604 26.232C15.4604 26.552 15.4604 27.192 15.4604 28.152C15.5244 29.112 15.5564 30.2 15.5564 31.416C15.5564 32.568 15.5244 33.752 15.4604 34.968C15.4604 36.12 15.4604 37.016 15.4604 37.656H18.1484C18.1484 37.336 18.1484 37.048 18.1484 36.792C18.2124 36.472 18.2444 36.248 18.2444 36.12C18.3084 36.312 18.3404 36.568 18.3404 36.888C18.3404 37.144 18.3724 37.4 18.4364 37.656H20.0684C20.0044 37.144 19.9724 36.312 19.9724 35.16C19.9724 34.008 19.9724 32.792 19.9724 31.512C19.9724 30.232 19.9724 29.048 19.9724 27.96C20.0364 26.872 20.0684 26.104 20.0684 25.656C20.1324 25.976 20.1644 26.712 20.1644 27.864C20.1644 28.952 20.1644 30.136 20.1644 31.416C20.1644 32.696 20.1644 33.944 20.1644 35.16C20.1644 36.376 20.1324 37.208 20.0684 37.656H20.4524C20.5164 37.336 20.5484 36.856 20.5484 36.216C20.6124 35.512 20.6444 35.128 20.6444 35.064C20.6444 35.192 20.6444 35.608 20.6444 36.312C20.7084 36.952 20.7724 37.4 20.8364 37.656H21.0284C21.0924 37.528 21.1244 37.4 21.1244 37.272C21.1244 37.08 21.1244 36.952 21.1244 36.888C21.1884 37.016 21.2204 37.144 21.2204 37.272C21.2204 37.4 21.2524 37.528 21.3164 37.656H23.3324C23.3964 37.592 23.4284 37.496 23.4284 37.368C23.4284 37.496 23.4604 37.592 23.5244 37.656H24.6764V3.768ZM37.5404 23.928C36.5164 23.992 35.0764 24.024 33.2204 24.024C31.3644 23.96 29.7324 23.928 28.3244 23.928V26.232C29.1564 26.232 29.8604 26.232 30.4364 26.232C31.0764 26.232 31.4924 26.264 31.6844 26.328C31.3644 26.392 30.9164 26.424 30.3404 26.424C29.7644 26.424 29.0924 26.424 28.3244 26.424V27.096H37.5404V26.232C37.2844 26.104 37.1244 26.04 37.0604 26.04C37.3164 26.04 37.4764 26.008 37.5404 25.944V23.928ZM37.5404 19.224C37.1564 19.224 36.6124 19.256 35.9084 19.32C35.2044 19.32 34.4044 19.32 33.5084 19.32C32.6764 19.32 31.7804 19.32 30.8204 19.32C29.9244 19.32 29.0924 19.32 28.3244 19.32V19.704H29.0924C29.0284 19.704 28.9324 19.736 28.8044 19.8C28.6764 19.8 28.5164 19.8 28.3244 19.8V22.008C29.3484 22.008 29.9884 22.04 30.2444 22.104H28.3244V23.736C29.7324 23.736 31.3644 23.736 33.2204 23.736C35.0764 23.736 36.5164 23.768 37.5404 23.832V21.144C37.2204 21.144 36.9004 21.144 36.5804 21.144C36.3244 21.08 36.1324 21.048 36.0044 21.048C36.1964 20.984 36.4204 20.952 36.6764 20.952C36.9964 20.952 37.2844 20.92 37.5404 20.856V19.224ZM37.5404 14.616H28.3244V16.248C30.1164 16.248 31.7804 16.248 33.3164 16.248C34.9164 16.248 36.1004 16.28 36.8684 16.344C36.0364 16.408 34.8204 16.44 33.2204 16.44C31.6844 16.44 30.0524 16.44 28.3244 16.44V19.128C29.0924 19.128 29.9564 19.128 30.9164 19.128C31.8764 19.128 32.7724 19.128 33.6044 19.128C34.5004 19.128 35.3004 19.16 36.0044 19.224C36.7084 19.224 37.2204 19.224 37.5404 19.224V18.84C37.4124 18.84 37.1884 18.84 36.8684 18.84C36.6124 18.776 36.3244 18.744 36.0044 18.744C35.6844 18.744 35.3324 18.712 34.9484 18.648C35.0764 18.648 35.4604 18.648 36.1004 18.648C36.7404 18.584 37.2204 18.52 37.5404 18.456V18.264C37.4124 18.2 37.2524 18.168 37.0604 18.168C36.9324 18.168 36.8364 18.168 36.7724 18.168C36.9004 18.104 37.0284 18.072 37.1564 18.072C37.2844 18.072 37.4124 18.04 37.5404 17.976V15.96C37.4764 15.96 37.4444 15.96 37.4444 15.96C37.4444 15.896 37.4124 15.864 37.3484 15.864H37.2524C37.3804 15.864 37.4764 15.832 37.5404 15.768V14.616ZM34.3724 26.04C34.2444 25.976 34.2124 25.912 34.2764 25.848C34.4044 25.784 34.5644 25.816 34.7564 25.944C34.9484 26.008 34.9484 26.072 34.7564 26.136C34.6284 26.136 34.5004 26.104 34.3724 26.04ZM6.05238 24.12C6.18038 24.056 6.30838 24.024 6.43638 24.024C6.62838 24.024 6.72438 24.056 6.72438 24.12C6.72438 24.312 6.50038 24.312 6.05238 24.12ZM4.32438 17.592C4.26038 17.592 4.26038 17.56 4.32438 17.496C4.38838 17.368 4.51638 17.336 4.70838 17.4C4.90038 17.464 4.93238 17.528 4.80438 17.592C4.67638 17.592 4.51638 17.592 4.32438 17.592ZM31.5884 17.4C31.3964 17.336 31.4604 17.304 31.7804 17.304C31.8444 17.304 31.8444 17.336 31.7804 17.4C31.7804 17.464 31.7164 17.464 31.5884 17.4ZM13.8284 22.968C13.7644 22.072 13.7324 20.888 13.7324 19.416C13.7324 17.88 13.7324 16.344 13.7324 14.808C13.7324 13.208 13.7324 11.736 13.7324 10.392C13.7964 8.984 13.8284 7.992 13.8284 7.416C13.8284 7.736 13.8284 8.568 13.8284 9.912C13.8924 11.256 13.9244 12.76 13.9244 14.424C13.9884 16.024 13.9884 17.656 13.9244 19.32C13.9244 20.92 13.8924 22.136 13.8284 22.968ZM22.9484 18.84C22.9484 19.16 22.9484 20.12 22.9484 21.72C23.0124 23.32 23.0444 25.112 23.0444 27.096C23.0444 29.08 23.0444 31.032 23.0444 32.952C23.0444 34.808 23.0124 36.184 22.9484 37.08C22.8844 36.184 22.8524 34.84 22.8524 33.048C22.8524 31.256 22.8524 29.4 22.8524 27.48C22.8524 25.56 22.8524 23.8 22.8524 22.2C22.9164 20.536 22.9484 19.416 22.9484 18.84ZM19.5884 14.328C19.6524 14.712 19.6844 15.672 19.6844 17.208C19.6844 18.68 19.6844 20.28 19.6844 22.008C19.6844 23.672 19.6524 25.24 19.5884 26.712C19.5884 28.184 19.5884 29.048 19.5884 29.304C19.5244 28.92 19.4604 28.024 19.3964 26.616C19.3964 25.144 19.3964 23.608 19.3964 22.008C19.3964 20.344 19.3964 18.776 19.3964 17.304C19.4604 15.832 19.5244 14.84 19.5884 14.328ZM12.9644 20.856C13.0284 21.24 13.0604 21.976 13.0604 23.064C13.0604 24.152 13.0604 25.304 13.0604 26.52C13.0604 27.672 13.0604 28.792 13.0604 29.88C13.0604 30.904 13.0284 31.544 12.9644 31.8C12.9004 31.416 12.8684 30.744 12.8684 29.784C12.8684 28.76 12.8684 27.672 12.8684 26.52C12.8684 25.368 12.8684 24.28 12.8684 23.256C12.9324 22.168 12.9644 21.368 12.9644 20.856ZM23.7164 4.344C23.7804 4.664 23.8124 5.368 23.8124 6.456C23.8124 7.544 23.8124 8.696 23.8124 9.912C23.8124 11.128 23.8124 12.28 23.8124 13.368C23.8124 14.392 23.7804 15.032 23.7164 15.288C23.6524 14.904 23.6204 14.2 23.6204 13.176C23.6204 12.152 23.6204 11.064 23.6204 9.912C23.6204 8.76 23.6204 7.672 23.6204 6.648C23.6844 5.56 23.7164 4.792 23.7164 4.344ZM15.3644 20.856C15.3644 21.176 15.3644 21.464 15.3644 21.72C15.4284 21.912 15.4284 22.04 15.3644 22.104C15.2364 22.04 15.1724 21.848 15.1724 21.528C15.1724 21.208 15.2364 20.984 15.3644 20.856ZM16.7084 18.456C16.7084 18.456 16.6764 17.976 16.6124 17.016C16.6124 15.992 16.6124 14.904 16.6124 13.752C16.6124 12.536 16.6124 11.416 16.6124 10.392C16.6764 9.368 16.7084 8.824 16.7084 8.76C16.7084 8.888 16.7084 9.464 16.7084 10.488C16.7724 11.512 16.8044 12.6 16.8044 13.752C16.8044 14.904 16.7724 15.992 16.7084 17.016C16.7084 17.976 16.7084 18.456 16.7084 18.456ZM13.2524 34.488C13.3164 34.36 13.3804 34.36 13.4444 34.488C13.5084 34.552 13.4764 34.712 13.3484 34.968C13.2844 35.16 13.2204 35.16 13.1564 34.968C13.1564 34.776 13.1884 34.616 13.2524 34.488ZM22.4684 11.544C22.3404 11.288 22.3404 11 22.4684 10.68C22.5324 10.936 22.5324 11.224 22.4684 11.544ZM15.1724 6.84C15.0444 6.84 15.0444 6.648 15.1724 6.264C15.2364 6.392 15.2684 6.52 15.2684 6.648C15.2684 6.776 15.2364 6.84 15.1724 6.84ZM21.8924 4.824C21.8284 5.016 21.7644 5.048 21.7004 4.92C21.7004 4.792 21.7004 4.664 21.7004 4.536C21.7004 4.408 21.7324 4.376 21.7964 4.44C21.9244 4.504 21.9564 4.632 21.8924 4.824ZM21.8924 31.704C21.9564 31.576 21.9884 31.64 21.9884 31.896C21.9884 31.96 21.9564 31.992 21.8924 31.992C21.8284 31.928 21.8284 31.832 21.8924 31.704ZM23.4284 27.576C23.3004 27.256 23.3004 27 23.4284 26.808C23.6204 27.128 23.6204 27.384 23.4284 27.576Z" fill="white"/>
</svg>
