<svg width="42" height="52" viewBox="0 0 42 52" fill="none" xmlns="http://www.w3.org/2000/svg">
<path d="M24.1498 26.136L41.7178 38.808L32.8858 51C32.8218 51 32.6298 51.032 32.3098 51.096C31.9898 51.224 31.6698 51.32 31.3498 51.384C31.0298 51.448 30.7098 51.512 30.3898 51.576C30.0698 51.64 29.8778 51.672 29.8138 51.672L0.34175 30.552L3.50975 26.136L0.34175 21.72L29.8138 0.599997C29.8778 0.599997 30.0698 0.631996 30.3898 0.695995C30.7098 0.759998 31.0298 0.823999 31.3498 0.887999C31.6698 0.951998 31.9898 1.048 32.3098 1.17599C32.6298 1.24 32.8218 1.272 32.8858 1.272L41.7178 13.464L24.1498 26.136ZM12.3418 17.592L13.0138 18.168C13.5258 17.848 13.9418 17.592 14.2618 17.4C14.6458 17.144 14.9018 16.952 15.0298 16.824C14.9018 16.952 14.6778 17.144 14.3578 17.4C14.0378 17.656 13.6538 17.944 13.2057 18.264L15.5098 19.896C17.1738 18.68 18.6778 17.624 20.0218 16.728C21.3658 15.768 22.1658 15.224 22.4218 15.096C22.1658 15.352 21.3978 15.96 20.1178 16.92C18.8378 17.816 17.3658 18.872 15.7018 20.088L18.5818 22.104C19.9258 21.144 21.2378 20.184 22.5178 19.224C23.8618 18.264 25.0778 17.4 26.1658 16.632C27.3178 15.8 28.3098 15.096 29.1418 14.52C30.0378 13.944 30.6778 13.528 31.0618 13.272C30.6778 13.592 30.0698 14.072 29.2378 14.712C28.4058 15.288 27.4458 15.992 26.3578 16.824C25.2698 17.592 24.0538 18.456 22.7098 19.416C21.4298 20.376 20.1178 21.336 18.7738 22.296L19.0618 22.488C19.7658 21.976 20.3738 21.56 20.8858 21.24C21.3978 20.856 21.6858 20.664 21.7498 20.664C21.4938 20.792 21.2378 20.984 20.9818 21.24C20.7258 21.432 20.4378 21.656 20.1178 21.912C19.7978 22.104 19.4778 22.328 19.1578 22.584L21.4618 24.216C22.5498 23.384 23.6058 22.648 24.6298 22.008C25.6538 21.304 26.4538 20.76 27.0298 20.376C26.4538 20.888 25.6858 21.496 24.7258 22.2C23.7658 22.84 22.7418 23.576 21.6538 24.408L22.9978 25.272L39.8938 13.08L39.4138 12.408C39.2218 12.408 39.0618 12.472 38.9338 12.6L39.3178 12.216L38.0698 10.488C37.4938 10.936 36.7578 11.512 35.8618 12.216C34.9658 12.856 34.0378 13.528 33.0778 14.232C32.1178 14.872 31.2218 15.48 30.3898 16.056C29.6218 16.568 29.0778 16.92 28.7578 17.112C28.9498 16.92 29.4298 16.536 30.1978 15.96C30.9658 15.384 31.8298 14.744 32.7898 14.04C33.7498 13.336 34.7098 12.664 35.6698 12.024C36.6298 11.32 37.3978 10.776 37.9738 10.392L36.4378 8.28C36.1818 8.408 35.9258 8.568 35.6698 8.76C35.4138 8.888 35.2218 8.984 35.0938 9.048C35.4138 8.728 35.8298 8.408 36.3418 8.088L35.3818 6.744C34.9978 7.064 34.3258 7.576 33.3658 8.28C32.4058 8.984 31.4138 9.688 30.3898 10.392C29.3658 11.096 28.3738 11.768 27.4138 12.408C26.5178 13.048 25.8778 13.496 25.4938 13.752C25.7498 13.56 26.3258 13.144 27.2218 12.504C28.1178 11.8 29.0778 11.064 30.1018 10.296C31.1898 9.528 32.2138 8.792 33.1738 8.088C34.1978 7.384 34.9018 6.904 35.2858 6.648L35.0938 6.36C34.8378 6.488 34.4218 6.744 33.8458 7.128C33.2698 7.512 32.9498 7.736 32.8858 7.8C33.0138 7.672 33.3338 7.416 33.8458 7.032C34.3578 6.584 34.7098 6.264 34.9018 6.072L34.7098 5.88C34.5818 5.944 34.4538 6.04 34.3258 6.168C34.1978 6.232 34.1018 6.264 34.0378 6.264C34.1658 6.136 34.2618 6.04 34.3258 5.976C34.4538 5.912 34.5498 5.816 34.6138 5.688L33.3658 4.056C33.3018 4.056 33.2378 4.088 33.1738 4.152C33.1738 4.024 33.2378 3.96 33.3658 3.96L32.6938 3L12.3418 17.592ZM5.52575 23.352L6.86975 21.624L5.14175 22.776L5.52575 23.352ZM12.4378 19.32L12.0538 19.8C12.1818 19.928 12.3098 20.056 12.4378 20.184C12.5658 20.248 12.6938 20.344 12.8218 20.472C12.6938 20.344 12.5338 20.248 12.3418 20.184C12.2138 20.12 12.0858 20.024 11.9578 19.896L10.6138 21.912C10.8058 22.04 10.9978 22.232 11.1898 22.488C11.4458 22.68 11.6378 22.84 11.7657 22.968C11.7018 22.904 11.5098 22.776 11.1898 22.584C10.9338 22.392 10.6778 22.232 10.4218 22.104V22.2C10.6138 22.328 10.8698 22.552 11.1898 22.872C11.1258 22.808 10.9978 22.744 10.8058 22.68C10.6138 22.552 10.4218 22.424 10.2298 22.296L9.46175 23.448C9.84575 23.704 10.2938 24.024 10.8058 24.408C11.3178 24.728 11.8938 25.112 12.5338 25.56C12.6618 25.496 12.8218 25.464 13.0138 25.464C13.4618 25.464 13.8138 25.688 14.0698 26.136C14.4538 26.328 15.0618 26.744 15.8938 27.384C16.7258 27.96 17.5578 28.568 18.3898 29.208C19.2858 29.784 20.0538 30.328 20.6938 30.84C21.3978 31.352 21.7498 31.608 21.7498 31.608C21.6858 31.608 21.3338 31.384 20.6938 30.936C20.0538 30.488 19.3178 29.976 18.4858 29.4C17.6538 28.76 16.8218 28.152 15.9898 27.576C15.1578 27 14.5498 26.552 14.1658 26.232C14.2298 26.296 14.2618 26.456 14.2618 26.712V26.808C15.7978 27.896 17.4298 29.08 19.1578 30.36C20.9498 31.576 22.6458 32.76 24.2458 33.912C25.8458 35.064 27.2538 36.12 28.4698 37.08C29.6858 37.976 30.5498 38.616 31.0618 39C30.5498 38.68 29.6858 38.104 28.4698 37.272C27.2538 36.376 25.8458 35.352 24.2458 34.2C22.6458 33.048 20.9498 31.832 19.1578 30.552C17.4298 29.272 15.7978 28.088 14.2618 27C14.1338 27.64 13.7178 27.96 13.0138 27.96C12.1818 27.96 11.7657 27.544 11.7657 26.712C11.7657 26.264 11.9578 25.912 12.3418 25.656C11.7658 25.208 11.2218 24.824 10.7098 24.504C10.1978 24.12 9.78175 23.768 9.46175 23.448L8.21375 25.08C8.59775 25.4 8.94975 25.72 9.26975 26.04C9.58975 26.296 9.84575 26.488 10.0378 26.616C9.78175 26.488 9.46175 26.296 9.07775 26.04C8.69375 25.784 8.34175 25.56 8.02175 25.368L7.44575 26.328C8.53375 27.096 9.87775 28.056 11.4778 29.208C13.0778 30.296 14.6458 31.416 16.1818 32.568C17.7178 33.656 19.0618 34.648 20.2138 35.544C21.4298 36.44 22.1658 36.984 22.4218 37.176C22.2298 37.048 21.5258 36.568 20.3098 35.736C19.0938 34.904 17.6858 33.944 16.0858 32.856C14.5498 31.704 12.9498 30.552 11.2858 29.4C9.68575 28.184 8.37375 27.192 7.34975 26.424L5.90975 28.44C6.03775 28.504 6.22975 28.664 6.48575 28.92C6.42175 28.856 6.32575 28.824 6.19775 28.824C6.06975 28.76 5.94175 28.664 5.81375 28.536L5.14175 29.496L32.6938 49.272L33.3658 48.312C33.2378 48.312 33.1738 48.248 33.1738 48.12C33.1738 48.12 33.2378 48.152 33.3658 48.216L34.6138 46.584C34.5498 46.456 34.4538 46.36 34.3258 46.296C34.2618 46.232 34.1658 46.136 34.0378 46.008C34.1018 46.008 34.1978 46.072 34.3258 46.2C34.4538 46.264 34.5818 46.328 34.7098 46.392L34.9018 46.104C34.7098 45.976 34.3578 45.72 33.8458 45.336C33.3338 44.888 33.0138 44.6 32.8858 44.472C32.9498 44.536 33.2698 44.76 33.8458 45.144C34.4218 45.464 34.8378 45.72 35.0938 45.912L35.2858 45.624C34.9018 45.368 34.1978 44.888 33.1738 44.184C32.2138 43.48 31.1898 42.744 30.1018 41.976C29.0778 41.208 28.1178 40.504 27.2218 39.864C26.3258 39.16 25.7498 38.712 25.4938 38.52C25.8778 38.776 26.5178 39.224 27.4138 39.864C28.3738 40.504 29.3658 41.176 30.3898 41.88C31.4138 42.584 32.4058 43.288 33.3658 43.992C34.3258 44.696 34.9978 45.208 35.3818 45.528L36.3418 44.184C36.0858 44.056 35.8298 43.896 35.5738 43.704C35.3818 43.512 35.2218 43.352 35.0938 43.224C35.2218 43.288 35.4138 43.416 35.6698 43.608C35.9258 43.736 36.1818 43.864 36.4378 43.992L37.9738 41.88C37.3978 41.496 36.6298 40.984 35.6698 40.344C34.7098 39.64 33.7498 38.936 32.7898 38.232C31.8298 37.528 30.9658 36.888 30.1978 36.312C29.4298 35.736 28.9498 35.352 28.7578 35.16C29.0778 35.352 29.6218 35.736 30.3898 36.312C31.2218 36.824 32.1178 37.432 33.0778 38.136C34.0378 38.776 34.9658 39.448 35.8618 40.152C36.7578 40.792 37.4938 41.336 38.0698 41.784L39.3178 40.056L38.9338 39.672C39.0618 39.8 39.2218 39.864 39.4138 39.864L39.8938 39.192L12.4378 19.32ZM18.3898 15.384C18.6458 15.192 19.4138 14.616 20.6938 13.656C21.9738 12.632 23.4138 11.544 25.0138 10.392C26.6138 9.24 28.1818 8.12 29.7178 7.032C31.2538 5.944 32.4058 5.176 33.1738 4.728C32.4698 5.304 31.3818 6.136 29.9098 7.224C28.4378 8.248 26.9338 9.336 25.3978 10.488C23.8618 11.576 22.4218 12.6 21.0778 13.56C19.7338 14.456 18.8378 15.064 18.3898 15.384ZM28.7578 12.024C28.5018 12.28 27.7978 12.824 26.6458 13.656C25.4938 14.488 24.2458 15.416 22.9018 16.44C21.5578 17.4 20.2778 18.296 19.0618 19.128C17.8458 19.96 17.0458 20.504 16.6618 20.76C16.9178 20.504 17.6538 19.928 18.8698 19.032C20.0858 18.136 21.3658 17.208 22.7098 16.248C24.1178 15.224 25.3978 14.296 26.5498 13.464C27.7658 12.632 28.5018 12.152 28.7578 12.024ZM34.7098 15.96C34.4538 16.216 33.9098 16.664 33.0778 17.304C32.3098 17.88 31.4458 18.52 30.4858 19.224C29.5258 19.864 28.5978 20.472 27.7018 21.048C26.8698 21.624 26.2618 22.04 25.8778 22.296C26.1338 22.04 26.6778 21.592 27.5098 20.952C28.4058 20.312 29.3338 19.64 30.2938 18.936C31.2538 18.232 32.1498 17.592 32.9818 17.016C33.8778 16.44 34.4538 16.088 34.7098 15.96ZM25.3978 19.608C25.4618 19.736 25.3338 19.896 25.0138 20.088C24.7578 20.28 24.5658 20.376 24.4377 20.376C24.9498 19.864 25.2698 19.608 25.3978 19.608ZM37.0138 13.752C37.2058 13.688 37.2378 13.72 37.1098 13.848C36.9818 13.976 36.8538 14.072 36.7258 14.136C36.5978 14.136 36.5658 14.104 36.6298 14.04C36.6938 13.912 36.8218 13.816 37.0138 13.752ZM29.5258 8.472C29.5898 8.472 29.6218 8.504 29.6218 8.568C29.6218 8.632 29.5578 8.696 29.4298 8.76C29.3018 8.76 29.2378 8.728 29.2378 8.664C29.3018 8.6 29.3978 8.536 29.5258 8.472ZM25.1098 9.912C25.1098 10.168 24.9178 10.296 24.5338 10.296C24.7898 9.912 24.9818 9.784 25.1098 9.912ZM14.4538 22.872C14.9658 23.192 15.7658 23.736 16.8538 24.504C18.0058 25.272 19.1898 26.136 20.4058 27.096C21.6858 27.992 22.9338 28.888 24.1498 29.784C25.3658 30.616 26.3258 31.32 27.0298 31.896C26.2618 31.448 25.2058 30.776 23.8618 29.88C22.5818 28.92 21.2698 27.96 19.9258 27C18.6458 26.04 17.4618 25.176 16.3738 24.408C15.3498 23.576 14.7098 23.064 14.4538 22.872ZM33.1738 47.544C32.4058 47.096 31.2538 46.328 29.7178 45.24C28.1818 44.152 26.6138 43.032 25.0138 41.88C23.4138 40.728 21.9738 39.672 20.6938 38.712C19.4138 37.688 18.6458 37.08 18.3898 36.888C18.8378 37.208 19.7338 37.848 21.0778 38.808C22.4218 39.704 23.8618 40.728 25.3978 41.88C26.9338 42.968 28.4378 44.056 29.9098 45.144C31.3818 46.168 32.4698 46.968 33.1738 47.544ZM28.7578 40.248C28.5018 40.12 27.7658 39.64 26.5498 38.808C25.3978 37.976 24.1178 37.08 22.7098 36.12C21.3658 35.096 20.0858 34.136 18.8698 33.24C17.6538 32.344 16.9178 31.768 16.6618 31.512C17.0458 31.768 17.8458 32.312 19.0618 33.144C20.2778 33.976 21.5578 34.872 22.9018 35.832C24.2458 36.792 25.4938 37.72 26.6458 38.616C27.7978 39.448 28.5018 39.992 28.7578 40.248ZM25.8778 29.976C26.2618 30.232 26.8698 30.68 27.7018 31.32C28.5978 31.896 29.5258 32.536 30.4858 33.24C31.4458 33.88 32.3098 34.488 33.0778 35.064C33.9098 35.64 34.4538 36.056 34.7098 36.312C34.4538 36.184 33.8778 35.832 32.9818 35.256C32.1498 34.68 31.2538 34.04 30.2938 33.336C29.3338 32.632 28.4058 31.96 27.5098 31.32C26.6778 30.68 26.1338 30.232 25.8778 29.976ZM6.10175 29.016C6.48575 29.272 7.12575 29.72 8.02175 30.36C8.91775 30.936 9.81375 31.576 10.7098 32.28C11.6698 32.92 12.5338 33.56 13.3018 34.2C14.1338 34.776 14.7098 35.192 15.0298 35.448C14.7738 35.32 14.1978 34.968 13.3018 34.392C12.4698 33.752 11.5418 33.08 10.5178 32.376C9.55775 31.672 8.62975 31 7.73375 30.36C6.90175 29.72 6.35775 29.272 6.10175 29.016ZM24.4377 31.896C24.5658 31.896 24.7578 31.992 25.0138 32.184C25.3338 32.376 25.4618 32.536 25.3978 32.664C25.2698 32.664 24.9498 32.408 24.4377 31.896ZM37.0138 38.52C36.8218 38.456 36.6938 38.392 36.6298 38.328C36.5658 38.2 36.5978 38.136 36.7258 38.136C36.8538 38.2 36.9818 38.296 37.1098 38.424C37.2378 38.552 37.2058 38.584 37.0138 38.52ZM12.7258 32.184C12.4698 32.12 12.2458 31.96 12.0538 31.704C12.1818 31.768 12.3098 31.832 12.4378 31.896C12.5658 31.96 12.6618 32.056 12.7258 32.184ZM12.7258 23.16C13.1098 23.352 13.2698 23.48 13.2057 23.544C13.1418 23.608 13.0458 23.608 12.9178 23.544C12.7898 23.416 12.7258 23.288 12.7258 23.16ZM7.63775 27.864C7.44575 27.8 7.34975 27.736 7.34975 27.672C7.34975 27.544 7.38175 27.48 7.44575 27.48C7.57375 27.608 7.66975 27.736 7.73375 27.864C7.79775 27.928 7.76575 27.928 7.63775 27.864ZM29.5258 43.8C29.3978 43.736 29.3018 43.672 29.2378 43.608C29.2378 43.48 29.3018 43.448 29.4298 43.512C29.5578 43.576 29.6218 43.64 29.6218 43.704C29.6218 43.768 29.5898 43.8 29.5258 43.8ZM24.5338 41.976C24.9178 41.976 25.1098 42.104 25.1098 42.36C24.9818 42.488 24.7898 42.36 24.5338 41.976Z" fill="white"/>
</svg>
