<svg width="40" height="67" viewBox="0 0 40 67" fill="none" xmlns="http://www.w3.org/2000/svg">
<path d="M8.16189 38.488H7.77789V45.976H8.16189V38.488ZM9.98589 43C9.92189 42.808 9.92189 42.584 9.98589 42.328V43ZM18.1459 44.44C18.2099 44.312 18.2419 44.28 18.2419 44.344C18.3059 44.408 18.3059 44.504 18.2419 44.632C18.2419 44.696 18.2099 44.728 18.1459 44.728C18.0819 44.664 18.0819 44.568 18.1459 44.44ZM12.0019 41.848C11.9379 41.72 11.9379 41.656 12.0019 41.656C12.1299 41.656 12.1619 41.72 12.0979 41.848V41.944C12.0979 41.944 12.0659 41.912 12.0019 41.848ZM16.2259 44.056C16.2259 43.992 16.1939 43.8 16.1299 43.48C16.1299 43.096 16.1299 42.712 16.1299 42.328C16.1299 41.88 16.1299 41.496 16.1299 41.176C16.1939 40.792 16.2259 40.504 16.2259 40.312C16.2259 40.632 16.2259 41.208 16.2259 42.04C16.2899 42.808 16.2899 43.48 16.2259 44.056ZM3.93789 53.464C4.00189 53.4 4.12989 53.272 4.32189 53.08C4.57789 52.888 4.83389 52.696 5.08989 52.504C5.40989 52.248 5.66589 52.024 5.85789 51.832C6.11389 51.576 6.27389 51.416 6.33789 51.352H21.4099V64.792C21.2819 64.92 20.8659 65.272 20.1619 65.848C19.5219 66.424 19.1379 66.776 19.0099 66.904H3.93789V53.464ZM7.39389 55.768C7.39389 55.512 7.36189 55.32 7.29789 55.192C7.29789 55 7.29789 54.808 7.29789 54.616H6.14589H5.28189V65.752H5.66589C5.66589 65.176 5.63389 64.376 5.56989 63.352C5.56989 62.264 5.56989 61.208 5.56989 60.184C5.56989 59.096 5.56989 58.136 5.56989 57.304C5.63389 56.472 5.66589 56.056 5.66589 56.056C5.66589 56.184 5.66589 56.664 5.66589 57.496C5.72989 58.264 5.76189 59.192 5.76189 60.28C5.76189 61.304 5.72989 62.328 5.66589 63.352C5.66589 64.376 5.66589 65.176 5.66589 65.752H5.95389C5.95389 65.624 5.95389 65.496 5.95389 65.368C6.01789 65.176 6.04989 65.048 6.04989 64.984C6.04989 65.112 6.04989 65.24 6.04989 65.368C6.11389 65.496 6.14589 65.624 6.14589 65.752H7.39389V65.176C7.39389 65.304 7.39389 65.4 7.39389 65.464C7.45789 65.528 7.48989 65.624 7.48989 65.752H8.06589C8.06589 65.112 8.06589 64.216 8.06589 63.064C8.12989 61.912 8.16189 60.76 8.16189 59.608C8.16189 58.456 8.16189 57.464 8.16189 56.632C8.22589 55.736 8.25789 55.256 8.25789 55.192C8.25789 55.32 8.25789 55.832 8.25789 56.728C8.25789 57.56 8.25789 58.552 8.25789 59.704C8.32189 60.856 8.35389 62.008 8.35389 63.16C8.35389 64.248 8.35389 65.112 8.35389 65.752H10.1779C10.1779 65.496 10.1779 65.112 10.1779 64.6C10.1779 64.024 10.2099 63.672 10.2739 63.544C10.2739 63.672 10.2739 64.024 10.2739 64.6C10.2739 65.112 10.3059 65.496 10.3699 65.752H11.4259C11.3619 64.664 11.3299 63.384 11.3299 61.912C11.3939 60.376 11.4579 59.224 11.5219 58.456C11.5219 58.776 11.5219 59.224 11.5219 59.8C11.5859 60.376 11.6179 61.016 11.6179 61.72C11.6179 62.424 11.6179 63.16 11.6179 63.928C11.6179 64.632 11.6179 65.24 11.6179 65.752H14.3059C14.3059 65.496 14.3059 65.272 14.3059 65.08C14.3699 64.824 14.4019 64.632 14.4019 64.504C14.4659 64.696 14.4979 64.92 14.4979 65.176C14.4979 65.368 14.5299 65.56 14.5939 65.752H15.0739C15.0739 65.432 15.0739 65.016 15.0739 64.504C15.0739 63.992 15.0739 63.48 15.0739 62.968C15.0739 62.392 15.0739 61.848 15.0739 61.336C15.0739 60.824 15.0739 60.44 15.0739 60.184C15.0739 60.312 15.0739 60.6 15.0739 61.048C15.1379 61.496 15.1699 62.008 15.1699 62.584C15.1699 63.16 15.1379 63.768 15.0739 64.408C15.0739 64.984 15.0739 65.432 15.0739 65.752H16.6099C16.6099 65.368 16.6419 65.112 16.7059 64.984C16.7059 65.304 16.7379 65.56 16.8019 65.752C16.8659 65.432 16.8979 65.08 16.8979 64.696C16.9619 64.312 16.9939 64.024 16.9939 63.832C17.0579 64.152 17.0899 64.472 17.0899 64.792C17.1539 65.112 17.2179 65.432 17.2819 65.752H17.7619V54.616H16.8979C16.7699 55.256 16.7059 55.8 16.7059 56.248C16.6419 55.928 16.5779 55.672 16.5139 55.48C16.5139 55.224 16.4819 54.936 16.4179 54.616H13.8259C13.7619 54.872 13.7299 55.16 13.7299 55.48C13.6659 55.288 13.6339 55 13.6339 54.616H10.8499C10.8499 55.32 10.8179 56.248 10.7539 57.4C10.7539 58.552 10.7539 59.704 10.7539 60.856C10.7539 61.944 10.7539 62.872 10.7539 63.64C10.7539 64.408 10.7539 64.792 10.7539 64.792C10.7539 64.664 10.7219 64.216 10.6579 63.448C10.6579 62.616 10.6579 61.656 10.6579 60.568C10.6579 59.48 10.6259 58.392 10.5619 57.304C10.5619 56.216 10.5619 55.32 10.5619 54.616H10.1779C10.1779 54.744 10.1459 54.84 10.0819 54.904C10.0819 54.968 10.0819 55.032 10.0819 55.096V54.616H7.48989C7.48989 54.872 7.45789 55.096 7.39389 55.288C7.39389 55.48 7.39389 55.64 7.39389 55.768ZM13.3459 55.864C13.3459 56.632 13.3459 57.496 13.3459 58.456C13.3459 59.416 13.3459 60.344 13.3459 61.24C13.3459 62.136 13.3459 62.936 13.3459 63.64C13.3459 64.344 13.3459 64.824 13.3459 65.08C13.2819 64.696 13.2179 64.12 13.1539 63.352C13.1539 62.52 13.1539 61.624 13.1539 60.664C13.1539 59.704 13.1539 58.808 13.1539 57.976C13.2179 57.08 13.2819 56.376 13.3459 55.864ZM7.29789 60.76C7.23389 60.504 7.23389 60.248 7.29789 59.992V60.76ZM14.4019 56.632V55.96V56.632ZM16.0339 64.504C15.9699 64.504 15.9059 64.504 15.8419 64.504C15.8419 64.44 15.9059 64.408 16.0339 64.408V64.504ZM14.8819 60.568V60.664V60.568ZM14.8819 58.648C14.9459 58.776 14.9459 59.064 14.8819 59.512C14.8819 59.96 14.8819 60.312 14.8819 60.568C14.8819 60.312 14.8499 59.928 14.7859 59.416C14.7859 58.84 14.8179 58.584 14.8819 58.648ZM15.8419 55.768C15.8419 55.896 15.8419 56.248 15.8419 56.824C15.9059 57.336 15.9379 57.944 15.9379 58.648C15.9379 59.288 15.9059 59.928 15.8419 60.568C15.8419 61.144 15.8419 61.528 15.8419 61.72C15.8419 61.528 15.8419 61.176 15.8419 60.664C15.8419 60.152 15.8419 59.576 15.8419 58.936C15.8419 58.296 15.8419 57.688 15.8419 57.112C15.8419 56.536 15.8419 56.088 15.8419 55.768ZM6.14589 60.568C6.14589 60.376 6.14589 60.024 6.14589 59.512C6.14589 59 6.14589 58.456 6.14589 57.88C6.14589 57.24 6.14589 56.632 6.14589 56.056C6.14589 55.416 6.14589 54.936 6.14589 54.616C6.14589 54.744 6.14589 55.096 6.14589 55.672C6.20989 56.184 6.24189 56.792 6.24189 57.496C6.24189 58.136 6.20989 58.776 6.14589 59.416C6.14589 59.992 6.14589 60.376 6.14589 60.568ZM7.77789 56.44C7.77789 56.504 7.74589 56.536 7.68189 56.536C7.68189 56.536 7.71389 56.472 7.77789 56.344V56.44ZM11.7139 55C11.7779 55.064 11.8099 55.128 11.8099 55.192C11.7459 55.192 11.7139 55.16 11.7139 55.096V55ZM11.6179 57.496C11.6179 57.496 11.6179 57.336 11.6179 57.016V57.496ZM20.7379 5.752C20.1619 5.752 19.0419 5.784 17.3779 5.848C15.7779 5.848 14.0179 5.848 12.0979 5.848C10.2419 5.848 8.41789 5.848 6.62589 5.848C4.83389 5.848 3.48989 5.816 2.59389 5.752C3.42589 5.688 4.76989 5.65599 6.62589 5.65599C8.54589 5.592 10.4979 5.56 12.4819 5.56C14.4659 5.56 16.2579 5.592 17.8579 5.65599C19.4579 5.65599 20.4179 5.688 20.7379 5.752ZM18.7219 15.736C18.2739 15.736 17.5059 15.768 16.4179 15.832C15.3939 15.832 14.3059 15.832 13.1539 15.832C12.0019 15.832 10.9139 15.832 9.88989 15.832C8.86589 15.832 8.16189 15.8 7.77789 15.736C8.03389 15.672 8.67389 15.64 9.69789 15.64C10.7859 15.64 11.9379 15.64 13.1539 15.64C14.3699 15.64 15.5219 15.64 16.6099 15.64C17.6979 15.64 18.4019 15.672 18.7219 15.736ZM18.7219 13.336C18.5939 13.4 18.3699 13.432 18.0499 13.432C17.7299 13.432 17.5379 13.4 17.4739 13.336C17.7299 13.208 18.1459 13.208 18.7219 13.336ZM4.70589 15.256C4.89789 15.192 5.02589 15.192 5.08989 15.256C5.21789 15.32 5.21789 15.384 5.08989 15.448C4.96189 15.448 4.80189 15.448 4.60989 15.448C4.48189 15.448 4.51389 15.384 4.70589 15.256ZM7.68189 6.712C7.80989 6.648 7.90589 6.648 7.96989 6.712C8.03389 6.712 8.00189 6.744 7.87389 6.808C7.74589 6.872 7.64989 6.872 7.58589 6.808C7.58589 6.744 7.61789 6.712 7.68189 6.712ZM12.7699 5.272C12.5139 5.336 12.2899 5.336 12.0979 5.272C12.2259 5.08 12.4499 5.08 12.7699 5.272ZM21.8899 36.376C21.4419 36.44 20.6739 36.504 19.5859 36.568C18.5619 36.568 17.4739 36.568 16.3219 36.568C15.1699 36.568 14.0819 36.568 13.0579 36.568C12.0339 36.504 11.3299 36.44 10.9459 36.376C11.2019 36.376 11.8419 36.376 12.8659 36.376C13.9539 36.312 15.1059 36.28 16.3219 36.28C17.5379 36.28 18.6899 36.312 19.7779 36.376C20.8659 36.376 21.5699 36.376 21.8899 36.376ZM21.8899 34.072C21.7619 34.136 21.5379 34.168 21.2179 34.168C20.8979 34.168 20.7059 34.136 20.6419 34.072C20.7699 33.944 20.9299 33.912 21.1219 33.976C21.3779 33.976 21.6339 34.008 21.8899 34.072ZM7.87389 35.992C8.06589 35.864 8.19389 35.864 8.25789 35.992C8.38589 36.056 8.38589 36.088 8.25789 36.088C8.12989 36.152 7.96989 36.184 7.77789 36.184C7.64989 36.184 7.68189 36.12 7.87389 35.992ZM11.0419 27.448C10.9139 27.512 10.8179 27.512 10.7539 27.448C10.7539 27.384 10.7859 27.352 10.8499 27.352C10.9779 27.352 11.0739 27.384 11.1379 27.448C11.2019 27.448 11.1699 27.448 11.0419 27.448ZM15.9379 25.912C15.6819 26.104 15.4579 26.104 15.2659 25.912C15.3939 25.784 15.6179 25.784 15.9379 25.912ZM39.8419 0.375999V36.376C39.7779 36.44 39.6179 36.6 39.3619 36.856C39.1059 37.048 38.8499 37.272 38.5939 37.528C38.3379 37.784 38.0819 38.04 37.8259 38.296C37.6339 38.488 37.5059 38.616 37.4419 38.68H21.6019V47.128C21.4739 47.256 21.0579 47.608 20.3539 48.184C19.7139 48.76 19.3299 49.112 19.2019 49.24H3.84189V23.416C3.90589 23.352 4.03389 23.224 4.22589 23.032C4.48189 22.776 4.70589 22.52 4.89789 22.264C5.15389 22.008 5.37789 21.784 5.56989 21.592C5.76189 21.336 5.88989 21.176 5.95389 21.112H22.3699V17.848H0.673886V2.776C0.737886 2.712 0.865886 2.552 1.05789 2.296C1.31389 2.04 1.53789 1.784 1.72989 1.528C1.98589 1.272 2.20989 1.048 2.40189 0.855999C2.59389 0.599998 2.72189 0.439999 2.78589 0.375999H24.7699H39.0739H39.8419ZM8.16189 45.976V38.488H7.77789V45.976H8.16189ZM20.2579 38.488H19.5859V38.584V38.488H18.6259C18.6259 38.808 18.6259 39.224 18.6259 39.736C18.6899 40.248 18.7219 40.792 18.7219 41.368C18.7219 41.944 18.6899 42.52 18.6259 43.096C18.6259 43.608 18.6259 43.992 18.6259 44.248V38.488H17.2819C17.2819 39.32 17.2499 40.024 17.1859 40.6C17.1859 41.176 17.1859 41.56 17.1859 41.752V38.488H16.8019C16.8019 39.96 16.8019 41.368 16.8019 42.712C16.8019 43.992 16.7699 44.888 16.7059 45.4C16.6419 45.016 16.5779 44.152 16.5139 42.808C16.5139 41.4 16.5459 39.96 16.6099 38.488H15.5539V39.16C15.4259 39.032 15.4259 38.808 15.5539 38.488H13.4419C13.4419 39.768 13.4419 41.016 13.4419 42.232C13.4419 43.384 13.4099 43.992 13.3459 44.056C13.3459 43.928 13.3139 43.288 13.2499 42.136C13.2499 40.984 13.2499 39.768 13.2499 38.488H12.8659V39.64V38.488H10.5619C10.5619 39.96 10.5619 41.24 10.5619 42.328C10.5619 43.352 10.5299 43.896 10.4659 43.96V38.488H10.0819C10.0819 39.384 10.0499 40.152 9.98589 40.792C9.98589 41.368 9.98589 41.688 9.98589 41.752C9.98589 41.624 9.98589 41.272 9.98589 40.696C9.98589 40.12 9.95389 39.384 9.88989 38.488H8.44989C8.38589 39.896 8.35389 41.272 8.35389 42.616C8.35389 43.96 8.32189 45.08 8.25789 45.976H9.60189C9.60189 45.656 9.60189 45.336 9.60189 45.016C9.66589 44.696 9.69789 44.472 9.69789 44.344C9.76189 44.536 9.79389 44.792 9.79389 45.112C9.79389 45.432 9.82589 45.72 9.88989 45.976H10.7539V45.4C10.7539 45.528 10.7539 45.624 10.7539 45.688C10.8179 45.752 10.8499 45.848 10.8499 45.976H14.1139C14.1139 45.784 14.1139 45.624 14.1139 45.496C14.1779 45.304 14.2099 45.144 14.2099 45.016C14.2099 45.272 14.2099 45.464 14.2099 45.592C14.2739 45.72 14.3059 45.848 14.3059 45.976H15.3619C15.4259 45.72 15.4579 45.368 15.4579 44.92C15.5219 44.472 15.5539 44.152 15.5539 43.96C15.6179 44.344 15.6499 44.696 15.6499 45.016C15.7139 45.336 15.7779 45.656 15.8419 45.976H15.9379V45.304C16.0019 45.496 16.0339 45.72 16.0339 45.976H17.1859C17.1859 45.784 17.1859 45.624 17.1859 45.496C17.2499 45.368 17.2819 45.24 17.2819 45.112C17.2819 45.24 17.2819 45.4 17.2819 45.592C17.3459 45.72 17.3779 45.848 17.3779 45.976H19.2979V45.496C19.3619 45.56 19.3939 45.72 19.3939 45.976H20.2579V38.488ZM22.3699 29.848C21.1539 29.912 19.8419 29.944 18.4339 29.944C17.0899 29.944 15.9379 29.912 14.9779 29.848C14.9779 30.68 14.5619 31.096 13.7299 31.096C12.8979 31.096 12.4819 30.68 12.4819 29.848C12.4819 29.656 12.5139 29.496 12.5779 29.368C11.1059 29.432 9.63389 29.464 8.16189 29.464C6.75389 29.464 5.72989 29.432 5.08989 29.368V31C5.34589 31 5.60189 31.032 5.85789 31.096C6.17789 31.096 6.43389 31.096 6.62589 31.096C6.49789 31.096 6.27389 31.128 5.95389 31.192C5.69789 31.192 5.40989 31.192 5.08989 31.192V33.88C5.79389 33.88 6.72189 33.88 7.87389 33.88C9.02589 33.816 10.1779 33.784 11.3299 33.784C12.5459 33.784 13.6339 33.816 14.5939 33.88C15.5539 33.88 16.1939 33.88 16.5139 33.88C16.1299 33.944 15.4259 34.008 14.4019 34.072C13.4419 34.072 12.3859 34.072 11.2339 34.072C10.0819 34.072 8.92989 34.072 7.77789 34.072C6.68989 34.008 5.79389 33.976 5.08989 33.976V36.088C5.28189 36.088 5.44189 36.12 5.56989 36.184C5.37789 36.184 5.21789 36.216 5.08989 36.28V37.144H22.3699V35.608C21.8579 35.608 21.3779 35.608 20.9299 35.608C20.5459 35.608 20.1619 35.576 19.7779 35.512C20.0979 35.512 20.4819 35.512 20.9299 35.512C21.3779 35.448 21.8579 35.416 22.3699 35.416V32.728C21.5379 32.728 21.1219 32.696 21.1219 32.632H22.3699V32.248C20.1299 32.248 18.0819 32.248 16.2259 32.248C14.4339 32.248 13.1539 32.216 12.3859 32.152C13.0899 32.088 14.3699 32.056 16.2259 32.056C18.0819 31.992 20.1299 31.96 22.3699 31.96V29.848ZM22.3699 24.76H5.08989V25.912H5.37789C5.37789 25.976 5.34589 26.008 5.28189 26.008H5.08989V28.12C5.21789 28.12 5.34589 28.12 5.47389 28.12C5.60189 28.12 5.72989 28.152 5.85789 28.216C5.79389 28.216 5.66589 28.248 5.47389 28.312C5.34589 28.312 5.21789 28.312 5.08989 28.312V28.6C5.34589 28.6 5.79389 28.632 6.43389 28.696C7.13789 28.696 7.55389 28.728 7.68189 28.792C7.61789 28.792 7.23389 28.824 6.52989 28.888C5.88989 28.888 5.40989 28.888 5.08989 28.888V29.272C5.66589 29.208 6.68989 29.176 8.16189 29.176C9.69789 29.176 11.2019 29.176 12.6739 29.176C12.8659 28.792 13.2179 28.6 13.7299 28.6C14.1779 28.6 14.5619 28.792 14.8819 29.176C15.3939 29.24 15.8419 29.272 16.2259 29.272C16.6739 29.272 16.9939 29.272 17.1859 29.272C16.8659 29.336 16.0979 29.368 14.8819 29.368C14.9459 29.432 14.9779 29.56 14.9779 29.752C15.9379 29.688 17.0899 29.656 18.4339 29.656C19.8419 29.656 21.1539 29.656 22.3699 29.656V28.6H20.5459C20.6739 28.536 21.2819 28.504 22.3699 28.504V26.488C21.3459 26.488 20.0339 26.52 18.4339 26.584C16.8979 26.584 15.2979 26.584 13.6339 26.584C12.0339 26.584 10.4979 26.584 9.02589 26.584C7.61789 26.52 6.52989 26.456 5.76189 26.392C6.46589 26.328 7.55389 26.296 9.02589 26.296C10.4979 26.296 12.0339 26.296 13.6339 26.296C15.2979 26.296 16.9299 26.328 18.5299 26.392C20.1299 26.392 21.4099 26.392 22.3699 26.392V24.76ZM22.3699 4.024H1.92189V5.17599C2.04989 5.17599 2.14589 5.208 2.20989 5.272H1.92189V7.384C2.04989 7.384 2.17789 7.416 2.30589 7.48C2.43389 7.48 2.56189 7.48 2.68989 7.48C2.62589 7.48 2.49789 7.512 2.30589 7.576C2.17789 7.576 2.04989 7.576 1.92189 7.576V7.86399C2.17789 7.86399 2.62589 7.896 3.26589 7.96C3.96989 7.96 4.38589 7.992 4.51389 8.056C4.44989 8.056 4.06589 8.088 3.36189 8.152C2.72189 8.152 2.24189 8.184 1.92189 8.248V8.536C2.43389 8.536 3.26589 8.536 4.41789 8.536C5.63389 8.472 6.88189 8.44 8.16189 8.44C9.50589 8.44 10.7219 8.472 11.8099 8.536C12.9619 8.536 13.6979 8.568 14.0179 8.632C13.5699 8.632 12.7699 8.664 11.6179 8.72799C10.5299 8.72799 9.34589 8.72799 8.06589 8.72799C6.78589 8.72799 5.56989 8.72799 4.41789 8.72799C3.26589 8.72799 2.43389 8.696 1.92189 8.632V10.264C2.17789 10.328 2.43389 10.36 2.68989 10.36C3.00989 10.36 3.26589 10.392 3.45789 10.456C3.32989 10.456 3.10589 10.456 2.78589 10.456C2.52989 10.456 2.24189 10.488 1.92189 10.552V13.144C2.62589 13.144 3.55389 13.144 4.70589 13.144C5.85789 13.08 7.00989 13.048 8.16189 13.048C9.37789 13.048 10.4659 13.08 11.4259 13.144C12.3859 13.144 13.0259 13.176 13.3459 13.24C12.9619 13.24 12.2579 13.272 11.2339 13.336C10.2739 13.336 9.21789 13.336 8.06589 13.336C6.91389 13.336 5.76189 13.336 4.60989 13.336C3.52189 13.336 2.62589 13.304 1.92189 13.24V15.352C1.98589 15.352 2.04989 15.384 2.11389 15.448C2.17789 15.448 2.27389 15.448 2.40189 15.448C2.33789 15.448 2.27389 15.48 2.20989 15.544C2.14589 15.544 2.04989 15.544 1.92189 15.544V16.408H22.3699V14.968C21.2179 14.968 20.1299 14.968 19.1059 14.968C18.1459 14.904 17.3139 14.872 16.6099 14.872C17.2499 14.808 18.0499 14.776 19.0099 14.776C20.0339 14.712 21.1539 14.68 22.3699 14.68V11.992H21.1219C21.1219 11.928 21.5379 11.896 22.3699 11.896V11.512C19.4259 11.576 16.7059 11.608 14.2099 11.608C11.7139 11.544 10.0499 11.48 9.21789 11.416C9.60189 11.416 10.2099 11.416 11.0419 11.416C11.9379 11.352 12.9619 11.32 14.1139 11.32C15.3299 11.32 16.6419 11.32 18.0499 11.32C19.4579 11.32 20.8979 11.32 22.3699 11.32V9.20799C21.3459 9.20799 20.1939 9.20799 18.9139 9.20799C17.6339 9.20799 16.3859 9.20799 15.1699 9.20799C14.0179 9.20799 12.9939 9.20799 12.0979 9.20799C11.2019 9.144 10.6259 9.112 10.3699 9.112C10.5619 9.112 11.1059 9.112 12.0019 9.112C12.8979 9.048 13.9219 9.016 15.0739 9.016C16.2899 9.016 17.5379 9.016 18.8179 9.016C20.1619 9.016 21.3459 9.016 22.3699 9.016V7.96C21.0899 7.96 19.9699 7.96 19.0099 7.96C18.1139 7.96 17.5699 7.928 17.3779 7.86399C17.5059 7.8 18.0179 7.768 18.9139 7.768C19.8739 7.768 21.0259 7.768 22.3699 7.768V4.024ZM36.1939 4.024H34.9459V4.792C34.9459 4.664 34.9139 4.536 34.8499 4.408C34.8499 4.28 34.8499 4.152 34.8499 4.024H32.3539C32.3539 5.432 32.3539 7.064 32.3539 8.92C32.4179 10.712 32.4499 12.472 32.4499 14.2C32.4499 15.864 32.4179 17.304 32.3539 18.52C32.3539 19.736 32.3539 20.472 32.3539 20.728C32.2899 20.408 32.2259 19.64 32.1619 18.424C32.1619 17.144 32.1619 15.672 32.1619 14.008C32.1619 12.344 32.1619 10.616 32.1619 8.824C32.2259 7.032 32.2579 5.432 32.2579 4.024H31.1059C31.1059 4.344 31.0739 4.76 31.0099 5.272C31.0099 5.784 31.0099 6.2 31.0099 6.51999C31.0099 6.2 30.9779 5.848 30.9139 5.464C30.8499 5.016 30.8179 4.536 30.8179 4.024H28.8019C28.8019 5.432 28.8019 7.416 28.8019 9.976C28.8659 12.472 28.8979 15.032 28.8979 17.656C28.8979 20.28 28.8659 22.712 28.8019 24.952C28.8019 27.128 28.7699 28.632 28.7059 29.464C28.6419 28.632 28.6099 27.096 28.6099 24.856C28.6099 22.616 28.6099 20.216 28.6099 17.656C28.6099 15.032 28.6099 12.472 28.6099 9.976C28.6739 7.48 28.7059 5.496 28.7059 4.024H27.3619C27.3619 4.28 27.3299 4.504 27.2659 4.696C27.2659 4.888 27.2659 5.048 27.2659 5.17599C27.2659 5.048 27.2339 4.888 27.1699 4.696C27.1699 4.43999 27.1699 4.216 27.1699 4.024H27.0739C27.0739 4.344 27.0419 4.696 26.9779 5.08C26.9779 5.4 26.9779 5.624 26.9779 5.752C26.9779 5.496 26.9459 5.24 26.8819 4.984C26.8819 4.664 26.8819 4.344 26.8819 4.024H24.3859V5.08C24.3859 4.952 24.3539 4.792 24.2899 4.6C24.2899 4.408 24.2899 4.216 24.2899 4.024H23.7139V37.336H24.5779C24.5779 37.272 24.5779 37.24 24.5779 37.24C24.6419 37.176 24.6739 37.112 24.6739 37.048V36.856C24.7379 36.984 24.7699 37.144 24.7699 37.336H26.8819C26.8819 36.568 26.8819 35.608 26.8819 34.456C26.8819 33.24 26.8819 32.024 26.8819 30.808C26.8819 29.528 26.8819 28.376 26.8819 27.352C26.9459 26.264 26.9779 25.496 26.9779 25.048C26.9779 25.368 26.9779 26.04 26.9779 27.064C27.0419 28.088 27.0739 29.24 27.0739 30.52C27.0739 31.8 27.0419 33.08 26.9779 34.36C26.9779 35.576 26.9779 36.568 26.9779 37.336H29.6659C29.6659 37.016 29.6659 36.696 29.6659 36.376C29.7299 36.056 29.7619 35.832 29.7619 35.704C29.8259 35.896 29.8579 36.152 29.8579 36.472C29.8579 36.728 29.8579 37.016 29.8579 37.336H31.5859C31.5219 36.76 31.4899 35.864 31.4899 34.648C31.4899 33.368 31.4899 32.056 31.4899 30.712C31.4899 29.368 31.4899 28.12 31.4899 26.968C31.5539 25.752 31.5859 24.888 31.5859 24.376C31.6499 24.696 31.6819 25.464 31.6819 26.68C31.6819 27.896 31.6819 29.208 31.6819 30.616C31.6819 31.96 31.6499 33.304 31.5859 34.648C31.5859 35.928 31.5859 36.824 31.5859 37.336H31.9699C32.0339 37.016 32.0659 36.504 32.0659 35.8C32.1299 35.032 32.1619 34.616 32.1619 34.552C32.1619 34.68 32.1619 35.096 32.1619 35.8C32.2259 36.504 32.2579 37.016 32.2579 37.336H32.5459C32.5459 37.272 32.5459 37.208 32.5459 37.144C32.6099 37.08 32.6419 36.984 32.6419 36.856V36.568C32.7059 36.696 32.7379 36.824 32.7379 36.952C32.7379 37.08 32.7379 37.208 32.7379 37.336H34.8499C34.8499 37.336 34.8819 37.272 34.9459 37.144V37.048V37.336H36.1939V4.024ZM25.3459 21.592C25.2819 20.632 25.2499 19.512 25.2499 18.232C25.2499 16.888 25.2499 15.576 25.2499 14.296C25.2499 13.016 25.2499 11.8 25.2499 10.648C25.3139 9.496 25.3459 8.6 25.3459 7.96C25.3459 8.344 25.3459 9.08 25.3459 10.168C25.4099 11.256 25.4419 12.504 25.4419 13.912C25.4419 15.256 25.4419 16.632 25.4419 18.04C25.4419 19.448 25.4099 20.632 25.3459 21.592ZM34.4659 36.664C34.4019 35.704 34.3699 34.424 34.3699 32.824C34.3699 31.224 34.3699 29.592 34.3699 27.928C34.3699 26.264 34.3699 24.728 34.3699 23.32C34.4339 21.912 34.4659 20.888 34.4659 20.248C34.4659 20.568 34.4659 21.432 34.4659 22.84C34.5299 24.248 34.5619 25.816 34.5619 27.544C34.5619 29.272 34.5619 31 34.5619 32.728C34.5619 34.392 34.5299 35.704 34.4659 36.664ZM31.1059 15.448C31.1059 15.832 31.1059 16.664 31.1059 17.944C31.1699 19.224 31.2019 20.6 31.2019 22.072C31.2019 23.48 31.1699 24.824 31.1059 26.104C31.1059 27.32 31.1059 28.056 31.1059 28.312C31.0419 27.928 30.9779 27.128 30.9139 25.912C30.9139 24.696 30.9139 23.416 30.9139 22.072C30.9139 20.664 30.9139 19.352 30.9139 18.136C30.9779 16.856 31.0419 15.96 31.1059 15.448ZM24.4819 31C24.4179 30.616 24.3859 29.88 24.3859 28.792C24.3859 27.704 24.3859 26.552 24.3859 25.336C24.3859 24.056 24.3859 22.872 24.3859 21.784C24.4499 20.632 24.4819 19.8 24.4819 19.288C24.5459 19.672 24.5779 20.44 24.5779 21.592C24.5779 22.744 24.5779 23.96 24.5779 25.24C24.5779 26.52 24.5459 27.736 24.4819 28.888C24.4819 30.04 24.4819 30.744 24.4819 31ZM35.2339 4.6C35.2979 4.984 35.3299 5.784 35.3299 7C35.3299 8.152 35.3299 9.368 35.3299 10.648C35.3299 11.928 35.2979 13.144 35.2339 14.296C35.2339 15.448 35.2339 16.152 35.2339 16.408C35.1699 16.024 35.1379 15.288 35.1379 14.2C35.1379 13.112 35.1379 11.96 35.1379 10.744C35.1379 9.464 35.1379 8.248 35.1379 7.096C35.2019 5.944 35.2339 5.112 35.2339 4.6ZM26.8819 20.536C26.7539 20.536 26.6899 20.376 26.6899 20.056C26.6899 19.672 26.7539 19.416 26.8819 19.288C26.8819 19.608 26.8819 19.896 26.8819 20.152C26.9459 20.344 26.9459 20.472 26.8819 20.536ZM28.2259 19.864C28.2259 19.864 28.1939 19.32 28.1299 18.232C28.1299 17.144 28.1299 15.96 28.1299 14.68C28.1299 13.4 28.1299 12.216 28.1299 11.128C28.1939 10.04 28.2259 9.464 28.2259 9.4C28.2259 9.528 28.2259 10.136 28.2259 11.224C28.2259 12.312 28.2259 13.496 28.2259 14.776C28.2259 16.056 28.2259 17.208 28.2259 18.232C28.2259 19.256 28.2259 19.8 28.2259 19.864ZM24.7699 33.88C24.8339 33.752 24.8979 33.752 24.9619 33.88C25.0259 34.008 24.9939 34.168 24.8659 34.36C24.7379 34.616 24.6739 34.648 24.6739 34.456C24.6739 34.2 24.7059 34.008 24.7699 33.88ZM33.9859 12.376C33.9219 12.184 33.8899 11.864 33.8899 11.416C33.9539 11.608 33.9859 11.768 33.9859 11.896C34.0499 11.96 34.0499 12.12 33.9859 12.376ZM26.6899 7.384C26.4979 7.384 26.4979 7.128 26.6899 6.616C26.7539 6.744 26.7859 6.904 26.7859 7.096C26.7859 7.288 26.7539 7.384 26.6899 7.384ZM33.2179 4.792C33.2179 4.728 33.2499 4.728 33.3139 4.792C33.4419 4.856 33.4739 4.984 33.4099 5.17599C33.3459 5.368 33.2819 5.4 33.2179 5.272C33.2179 5.144 33.2179 4.984 33.2179 4.792ZM33.4099 30.904C33.4099 30.776 33.4099 30.776 33.4099 30.904C33.4739 30.968 33.5059 31.064 33.5059 31.192C33.5059 31.256 33.4739 31.256 33.4099 31.192C33.3459 31.128 33.3459 31.032 33.4099 30.904ZM34.9459 26.392C34.6899 26.2 34.6899 25.976 34.9459 25.72C35.0739 26.04 35.0739 26.264 34.9459 26.392ZM30.2419 9.20799C31.0739 9.20799 31.4899 9.62399 31.4899 10.456C31.4899 11.288 31.0739 11.704 30.2419 11.704C29.4099 11.704 28.9939 11.288 28.9939 10.456C28.9939 9.62399 29.4099 9.20799 30.2419 9.20799ZM30.1459 30.52C31.0419 30.52 31.4899 30.936 31.4899 31.768C31.4899 32.6 31.0419 33.016 30.1459 33.016C29.3139 33.016 28.8979 32.6 28.8979 31.768C28.8979 30.936 29.3139 30.52 30.1459 30.52Z" fill="#B97D3C"/>
</svg>
