<svg width="60" height="60" viewBox="0 0 60 60" fill="none" xmlns="http://www.w3.org/2000/svg">
<circle cx="30" cy="30" r="30" fill="#D9D9D9"/>
<path d="M23.4875 22.9856C21.5202 21.776 21.6001 18.8903 23.6313 17.7914L31.7495 13.3994C33.7807 12.3005 36.2398 13.8125 36.1759 16.121L35.9204 25.3476C35.8565 27.6561 33.3175 29.0297 31.3502 27.8201L23.4875 22.9856Z" fill="white"/>
<mask id="path-3-inside-1_495_14" fill="white">
<path d="M33.4595 19.1164C33.9247 17.6596 35.4999 16.8346 36.8498 17.5532C38.8766 18.6322 40.6468 20.1573 42.0194 22.0272C43.9412 24.6454 44.9846 27.805 44.9998 31.0529C45.0151 34.3008 44.0014 37.47 42.1041 40.1062C40.2069 42.7424 37.5235 44.71 34.4389 45.7269C31.3543 46.7438 28.0269 46.7578 24.9339 45.7669C21.8409 44.7759 19.1411 42.8309 17.2218 40.2107C15.3025 37.5906 14.2622 34.43 14.2501 31.1821C14.2415 28.8626 14.7576 26.5837 15.7453 24.5109C16.4032 23.1303 18.1602 22.8568 19.4006 23.7513V23.7513C20.6409 24.6459 20.8768 26.3738 20.3621 27.8139C19.9804 28.8816 19.7839 30.0138 19.7881 31.1615C19.7959 33.2395 20.4614 35.2617 21.6894 36.938C22.9174 38.6144 24.6447 39.8588 26.6236 40.4928C28.6026 41.1269 30.7314 41.1179 32.705 40.4673C34.6785 39.8167 36.3953 38.5578 37.6091 36.8712C38.823 35.1846 39.4716 33.1569 39.4618 31.0789C39.4521 29.0009 38.7845 26.9794 37.5549 25.3042C36.8758 24.379 36.0444 23.5856 35.1026 22.9543C33.8324 22.1027 32.9943 20.5732 33.4595 19.1164V19.1164Z"/>
</mask>
<path d="M33.4595 19.1164C33.9247 17.6596 35.4999 16.8346 36.8498 17.5532C38.8766 18.6322 40.6468 20.1573 42.0194 22.0272C43.9412 24.6454 44.9846 27.805 44.9998 31.0529C45.0151 34.3008 44.0014 37.47 42.1041 40.1062C40.2069 42.7424 37.5235 44.71 34.4389 45.7269C31.3543 46.7438 28.0269 46.7578 24.9339 45.7669C21.8409 44.7759 19.1411 42.8309 17.2218 40.2107C15.3025 37.5906 14.2622 34.43 14.2501 31.1821C14.2415 28.8626 14.7576 26.5837 15.7453 24.5109C16.4032 23.1303 18.1602 22.8568 19.4006 23.7513V23.7513C20.6409 24.6459 20.8768 26.3738 20.3621 27.8139C19.9804 28.8816 19.7839 30.0138 19.7881 31.1615C19.7959 33.2395 20.4614 35.2617 21.6894 36.938C22.9174 38.6144 24.6447 39.8588 26.6236 40.4928C28.6026 41.1269 30.7314 41.1179 32.705 40.4673C34.6785 39.8167 36.3953 38.5578 37.6091 36.8712C38.823 35.1846 39.4716 33.1569 39.4618 31.0789C39.4521 29.0009 38.7845 26.9794 37.5549 25.3042C36.8758 24.379 36.0444 23.5856 35.1026 22.9543C33.8324 22.1027 32.9943 20.5732 33.4595 19.1164V19.1164Z" fill="white" stroke="white" stroke-width="4" mask="url(#path-3-inside-1_495_14)"/>
</svg>
