<svg width="248" height="212" viewBox="0 0 248 212" fill="none" xmlns="http://www.w3.org/2000/svg">
<path d="M44.9844 25.6406C44.9844 21.8385 46.0911 18.5378 48.3047 15.7383C48.9948 14.8659 49.7695 14.1237 50.6289 13.5117C51.5013 12.8997 52.4258 12.3984 53.4023 12.0078C54.3789 11.6172 55.3945 11.3372 56.4492 11.168C57.5039 10.9857 58.5716 10.8945 59.6523 10.8945C61.1758 10.8945 62.6211 11.1094 63.9883 11.5391C65.3685 11.9688 66.612 12.5938 67.7188 13.4141C68.8385 14.2214 69.8021 15.2174 70.6094 16.4023C71.4167 17.5742 72.0156 18.9023 72.4062 20.3867C72.4453 20.5299 72.4258 20.6602 72.3477 20.7773C72.2695 20.8815 72.1523 20.9466 71.9961 20.9727L64.2227 21.9883H64.1641C63.9688 21.9883 63.819 21.8906 63.7148 21.6953C63.4154 21.1094 63.1354 20.5885 62.875 20.1328C62.6146 19.6771 62.3281 19.293 62.0156 18.9805L57.7188 18.043C55.8828 19.3451 54.5221 21.5391 53.6367 24.625L53.9492 29.3125C54.7565 30.7448 56.2148 31.8646 58.3242 32.6719C60.4206 32.125 61.8138 31.4284 62.5039 30.582L63.5 29.332L63.6172 29.0977L59.457 29.1758C59.3008 29.1758 59.1771 29.1302 59.0859 29.0391C58.9948 28.9349 58.9492 28.8047 58.9492 28.6484L59.1836 23.8828C59.2096 23.5964 59.3659 23.4401 59.6523 23.4141L71.3906 23.1406C71.6901 23.1406 71.8594 23.2839 71.8984 23.5703L72.582 29.1953C72.582 29.2604 72.5755 29.3125 72.5625 29.3516C72.3411 30.0156 72.1328 30.6602 71.9375 31.2852C71.7552 31.8971 71.5599 32.4831 71.3516 33.043C71.1432 33.6029 70.9089 34.1302 70.6484 34.625C70.388 35.1198 70.0755 35.5755 69.7109 35.9922C69.0859 36.7083 68.3893 37.3073 67.6211 37.7891C66.8659 38.2578 66.0651 38.6289 65.2188 38.9023C64.3724 39.1758 63.4935 39.3646 62.582 39.4688C61.6836 39.5859 60.7721 39.6445 59.8477 39.6445C57.6211 39.6445 55.6159 39.2995 53.832 38.6094C52.0482 37.9062 50.4661 36.8646 49.0859 35.4844C46.3516 32.75 44.9844 29.4688 44.9844 25.6406ZM75.1406 12.0859L82.6992 11.8125C82.8555 11.7995 82.9792 11.8451 83.0703 11.9492C83.1745 12.0404 83.2201 12.1641 83.207 12.3203L82.5234 32.3008L93.793 32.1641C93.9492 32.1641 94.0729 32.2161 94.1641 32.3203C94.2552 32.4115 94.3008 32.5352 94.3008 32.6914L94.0078 38.6094C93.9948 38.7526 93.9427 38.8698 93.8516 38.9609C93.7734 39.0391 93.6628 39.0781 93.5195 39.0781L75.8633 38.707C75.7201 38.707 75.6029 38.668 75.5117 38.5898C75.4336 38.4987 75.388 38.3815 75.375 38.2383L74.6719 12.5938C74.6589 12.4505 74.6979 12.3333 74.7891 12.2422C74.8802 12.151 74.9974 12.099 75.1406 12.0859ZM95.4336 37.4961L104.457 12.0078C104.535 11.8125 104.685 11.7018 104.906 11.6758L112.465 11.2461H112.504C112.725 11.2461 112.868 11.3503 112.934 11.5586L123.266 39.332C123.344 39.5404 123.337 39.7031 123.246 39.8203C123.155 39.9375 122.999 39.9961 122.777 39.9961L115.707 39.7227C115.486 39.6966 115.336 39.5859 115.258 39.3906L113.383 34.3516L104.77 34.6836L103.48 39.4297C103.415 39.6771 103.266 39.8008 103.031 39.8008C103.005 39.8008 102.979 39.7943 102.953 39.7812C102.94 39.7812 102.921 39.7812 102.895 39.7812L95.7852 38.1406C95.6289 38.1146 95.5117 38.043 95.4336 37.9258C95.3685 37.7956 95.3685 37.6523 95.4336 37.4961ZM111.137 28.2773L108.441 21.0508L106.41 28.5703L111.137 28.2773ZM125.492 11.4023L132.602 11.2266C132.68 11.2266 132.758 11.2526 132.836 11.3047C132.927 11.3438 132.992 11.3958 133.031 11.4609L141.801 25.8164L141.469 12.0273C141.443 11.7018 141.592 11.5391 141.918 11.5391H141.996L148.871 12.1641C149.014 12.1771 149.125 12.2292 149.203 12.3203C149.281 12.3984 149.314 12.5091 149.301 12.6523L148.617 39.332C148.591 39.6445 148.428 39.8008 148.129 39.8008H148.09L142.602 39.4883C142.432 39.4883 142.302 39.4102 142.211 39.2539L132.699 24.625L132.543 38.8828C132.543 39.2083 132.374 39.3711 132.035 39.3711L126.586 39.0781C126.299 39.0521 126.143 38.8958 126.117 38.6094L125.023 11.9102C125.01 11.7669 125.049 11.6497 125.141 11.5586C125.232 11.4674 125.349 11.4154 125.492 11.4023ZM152.465 11.6758C152.465 11.3503 152.628 11.1875 152.953 11.1875L159.203 11.2266C170.74 11.5781 176.482 16.3893 176.43 25.6602C176.378 34.5273 170.935 38.9609 160.102 38.9609C159.841 38.9609 159.581 38.9609 159.32 38.9609C159.073 38.9609 158.819 38.9544 158.559 38.9414L152.816 39.0195C152.491 39.0195 152.328 38.8568 152.328 38.5312L152.465 11.6758ZM159.809 31.8906L163.383 32.1445L166.859 30.5039C168.292 27.1836 168.37 23.7331 167.094 20.1523L163.578 18.2578H160.473L159.809 31.8906ZM178.344 31.207L185.961 29.2539C185.987 29.2409 186.033 29.2344 186.098 29.2344C186.319 29.2344 186.469 29.3451 186.547 29.5664L186.938 30.582C187.94 32.2747 189.385 33.1927 191.273 33.3359L193.578 31.9297C194.021 30.4714 193.415 29.306 191.762 28.4336C190.85 28.2513 189.887 28.0169 188.871 27.7305C187.868 27.431 186.807 27.0729 185.688 26.6562C183.448 25.8359 181.625 24.7161 180.219 23.2969C178.812 21.8776 178.181 20.0938 178.324 17.9453C178.467 15.7969 179.62 14.0195 181.781 12.6133C182.979 11.832 184.216 11.2721 185.492 10.9336C186.781 10.5951 188.135 10.4258 189.555 10.4258C190.661 10.4258 191.794 10.543 192.953 10.7773C194.125 10.9987 195.245 11.3503 196.312 11.832C197.38 12.3138 198.35 12.9323 199.223 13.6875C200.095 14.4427 200.792 15.3477 201.312 16.4023C201.443 16.7018 201.358 16.9167 201.059 17.0469L194.477 19.8203C194.398 19.8594 194.32 19.8789 194.242 19.8789C194.06 19.8789 193.917 19.7812 193.812 19.5859C193.5 19.013 193.155 18.4922 192.777 18.0234C192.4 17.5417 191.97 17.112 191.488 16.7344L189.887 16.3633C188.559 16.4414 187.641 16.9102 187.133 17.7695C186.755 18.5768 187.335 19.3711 188.871 20.1523L192.23 21.3047C195.147 21.9557 197.426 22.9128 199.066 24.1758C200.707 25.4518 201.69 26.7734 202.016 28.1406C202.185 28.8438 202.283 29.5404 202.309 30.2305C202.335 30.9206 202.283 31.6172 202.152 32.3203C202.009 33.1276 201.775 33.8438 201.449 34.4688C201.124 35.0938 200.72 35.6536 200.238 36.1484C199.77 36.6302 199.229 37.0599 198.617 37.4375C198.005 37.8021 197.335 38.1406 196.605 38.4531C195.668 38.8568 194.698 39.1367 193.695 39.293C192.693 39.4622 191.684 39.5469 190.668 39.5469C189.73 39.5469 188.812 39.4883 187.914 39.3711C187.016 39.2669 186.143 39.0846 185.297 38.8242C184.464 38.5508 183.656 38.1992 182.875 37.7695C182.094 37.3268 181.345 36.7799 180.629 36.1289C180.017 35.582 179.503 34.9505 179.086 34.2344C178.669 33.5052 178.305 32.6914 177.992 31.793C177.94 31.6497 177.947 31.526 178.012 31.4219C178.09 31.3177 178.201 31.2461 178.344 31.207Z" fill="white"/>
<path d="M17.6914 159.105L37.0273 158.793C37.1836 158.793 37.3073 158.845 37.3984 158.949C37.4896 159.04 37.5286 159.164 37.5156 159.32L37.2227 164.301C37.2227 164.444 37.1771 164.555 37.0859 164.633C37.0078 164.711 36.8971 164.757 36.7539 164.77L25.8555 165.121L25.6992 169.594L34.7227 169.496C34.8789 169.496 35.0026 169.548 35.0938 169.652C35.1849 169.743 35.224 169.867 35.2109 170.023L34.918 174.516C34.918 174.659 34.8724 174.77 34.7812 174.848C34.7031 174.926 34.5924 174.971 34.4492 174.984L25.4844 175.199L25.3477 179.496L37.0273 179.184C37.1836 179.171 37.3073 179.216 37.3984 179.32C37.4896 179.411 37.5352 179.535 37.5352 179.691L37.2227 185.434C37.1966 185.733 37.0339 185.883 36.7344 185.883L18.4531 186.098C18.1406 186.098 17.9714 185.935 17.9453 185.609L17.2227 159.594C17.2096 159.451 17.2487 159.333 17.3398 159.242C17.431 159.151 17.5482 159.105 17.6914 159.105ZM24.1953 156L28.1797 150.688C28.2839 150.557 28.4206 150.492 28.5898 150.492L36.0703 150.629C36.474 150.642 36.7018 150.727 36.7539 150.883C36.806 151.026 36.6823 151.228 36.3828 151.488L30.1719 156.605C30.0938 156.684 29.9896 156.723 29.8594 156.723L24.5859 156.781H24.5273C24.2539 156.781 24.0846 156.71 24.0195 156.566C23.9544 156.423 24.013 156.234 24.1953 156ZM42.8477 162.738C43.5378 161.866 44.3125 161.124 45.1719 160.512C46.0312 159.9 46.9492 159.398 47.9258 159.008C48.9023 158.617 49.918 158.337 50.9727 158.168C52.0404 157.986 53.1081 157.895 54.1758 157.895C55.7253 157.895 57.2031 158.122 58.6094 158.578C60.0156 159.021 61.2852 159.665 62.418 160.512C63.5508 161.358 64.5143 162.4 65.3086 163.637C66.1029 164.861 66.6562 166.247 66.9688 167.797C66.9948 167.94 66.9688 168.064 66.8906 168.168C66.8255 168.272 66.7214 168.337 66.5781 168.363L58.8242 169.75H58.7461C58.5117 169.75 58.3555 169.633 58.2773 169.398C58.0039 168.578 57.7305 167.882 57.457 167.309C57.1836 166.736 56.8841 166.293 56.5586 165.98L52.2617 165.043C50.4258 166.345 49.0651 168.539 48.1797 171.625L48.4922 176.312C49.2995 177.745 50.7578 178.865 52.8672 179.672C54.9635 179.125 56.3568 178.428 57.0469 177.582L58.043 176.332L58.2969 175.043C58.3229 174.926 58.375 174.835 58.4531 174.77C58.5443 174.691 58.6419 174.652 58.7461 174.652C58.7721 174.652 58.7917 174.659 58.8047 174.672C58.8177 174.672 58.8372 174.672 58.8633 174.672L66.6562 176.176C66.7995 176.202 66.9036 176.267 66.9688 176.371C67.0469 176.475 67.0729 176.599 67.0469 176.742C66.6693 178.513 66.1289 180.023 65.4258 181.273C64.7227 182.523 63.8503 183.546 62.8086 184.34C61.7669 185.134 60.5495 185.714 59.1562 186.078C57.763 186.456 56.1745 186.645 54.3906 186.645C52.1641 186.645 50.1589 186.299 48.375 185.609C46.5911 184.906 45.0091 183.865 43.6289 182.484C40.8945 179.75 39.5273 176.469 39.5273 172.641C39.5273 168.839 40.6341 165.538 42.8477 162.738ZM68.9609 175.316L69.4883 158.812C69.5013 158.669 69.5469 158.559 69.625 158.48C69.7161 158.389 69.8333 158.344 69.9766 158.344L77.0078 158.227C77.1641 158.227 77.2878 158.279 77.3789 158.383C77.4831 158.474 77.5286 158.598 77.5156 158.754L76.6562 177.23L79.8398 180.043L83.1602 179.887L86.0117 177.172L85.1133 158.91C85.1133 158.572 85.276 158.402 85.6016 158.402L92.0664 158.363C92.3789 158.363 92.5482 158.513 92.5742 158.812L93.6484 174.906C93.8307 182.68 89.7878 186.638 81.5195 186.781H81.0898C73.1081 186.781 69.0651 182.96 68.9609 175.316ZM96.1875 158.266L106.344 158.051C107.281 158.051 108.219 158.09 109.156 158.168C110.094 158.246 110.992 158.396 111.852 158.617C112.711 158.826 113.512 159.118 114.254 159.496C115.009 159.861 115.667 160.336 116.227 160.922C116.799 161.508 117.255 162.217 117.594 163.051C117.945 163.884 118.154 164.861 118.219 165.98C118.388 170.056 116.917 172.621 113.805 173.676C116.188 174.9 117.49 176.378 117.711 178.109L118.57 185.492C118.596 185.648 118.564 185.779 118.473 185.883C118.382 185.974 118.258 186.026 118.102 186.039L111.773 186.215C111.643 186.228 111.533 186.195 111.441 186.117C111.363 186.039 111.311 185.935 111.285 185.805L110.172 177.992L107.672 176.391L103.57 176.547L103.375 185.766C103.349 186.052 103.193 186.208 102.906 186.234L97.3203 186.469H97.2812C97.138 186.469 97.0273 186.423 96.9492 186.332C96.8711 186.254 96.8255 186.143 96.8125 186L95.6992 158.793C95.6862 158.637 95.7253 158.513 95.8164 158.422C95.9076 158.331 96.0312 158.279 96.1875 158.266ZM107.965 170.375L110.602 168.598L110.387 165.668L107.555 163.969L104.078 164.125L103.961 170.316L107.965 170.375ZM121.246 159.105L140.582 158.793C140.738 158.793 140.862 158.845 140.953 158.949C141.044 159.04 141.083 159.164 141.07 159.32L140.777 164.301C140.777 164.444 140.732 164.555 140.641 164.633C140.562 164.711 140.452 164.757 140.309 164.77L129.41 165.121L129.254 169.594L138.277 169.496C138.434 169.496 138.557 169.548 138.648 169.652C138.74 169.743 138.779 169.867 138.766 170.023L138.473 174.516C138.473 174.659 138.427 174.77 138.336 174.848C138.258 174.926 138.147 174.971 138.004 174.984L129.039 175.199L128.902 179.496L140.582 179.184C140.738 179.171 140.862 179.216 140.953 179.32C141.044 179.411 141.09 179.535 141.09 179.691L140.777 185.434C140.751 185.733 140.589 185.883 140.289 185.883L122.008 186.098C121.695 186.098 121.526 185.935 121.5 185.609L120.777 159.594C120.764 159.451 120.803 159.333 120.895 159.242C120.986 159.151 121.103 159.105 121.246 159.105ZM143.258 175.316L143.785 158.812C143.798 158.669 143.844 158.559 143.922 158.48C144.013 158.389 144.13 158.344 144.273 158.344L151.305 158.227C151.461 158.227 151.585 158.279 151.676 158.383C151.78 158.474 151.826 158.598 151.812 158.754L150.953 177.23L154.137 180.043L157.457 179.887L160.309 177.172L159.41 158.91C159.41 158.572 159.573 158.402 159.898 158.402L166.363 158.363C166.676 158.363 166.845 158.513 166.871 158.812L167.945 174.906C168.128 182.68 164.085 186.638 155.816 186.781H155.387C147.405 186.781 143.362 182.96 143.258 175.316ZM170.504 180.785L173.062 180.766L172.594 164.555L170.758 164.594C170.615 164.607 170.497 164.574 170.406 164.496C170.315 164.405 170.27 164.288 170.27 164.145L170.016 159.73C170.016 159.405 170.178 159.229 170.504 159.203L183.082 158.773C183.238 158.76 183.362 158.806 183.453 158.91C183.544 159.001 183.59 159.125 183.59 159.281L183.336 163.871C183.31 164.158 183.154 164.314 182.867 164.34L180.914 164.379L180.211 180.746L183.102 180.727C183.245 180.727 183.362 180.779 183.453 180.883C183.544 180.974 183.59 181.091 183.59 181.234L183.336 186C183.323 186.143 183.271 186.254 183.18 186.332C183.102 186.423 182.991 186.462 182.848 186.449L170.66 186.176C170.374 186.15 170.217 185.993 170.191 185.707L170.016 181.293C170.003 181.137 170.042 181.013 170.133 180.922C170.224 180.831 170.348 180.785 170.504 180.785ZM186.207 159.086L193.766 158.812C193.922 158.799 194.046 158.845 194.137 158.949C194.241 159.04 194.286 159.164 194.273 159.32L193.59 179.301L204.859 179.164C205.016 179.164 205.139 179.216 205.23 179.32C205.322 179.411 205.367 179.535 205.367 179.691L205.074 185.609C205.061 185.753 205.009 185.87 204.918 185.961C204.84 186.039 204.729 186.078 204.586 186.078L186.93 185.707C186.786 185.707 186.669 185.668 186.578 185.59C186.5 185.499 186.454 185.382 186.441 185.238L185.738 159.594C185.725 159.451 185.764 159.333 185.855 159.242C185.947 159.151 186.064 159.099 186.207 159.086ZM207.223 178.207L214.84 176.254C214.866 176.241 214.911 176.234 214.977 176.234C215.198 176.234 215.348 176.345 215.426 176.566L215.816 177.582C216.819 179.275 218.264 180.193 220.152 180.336L222.457 178.93C222.9 177.471 222.294 176.306 220.641 175.434C219.729 175.251 218.766 175.017 217.75 174.73C216.747 174.431 215.686 174.073 214.566 173.656C212.327 172.836 210.504 171.716 209.098 170.297C207.691 168.878 207.06 167.094 207.203 164.945C207.346 162.797 208.499 161.02 210.66 159.613C211.858 158.832 213.095 158.272 214.371 157.934C215.66 157.595 217.014 157.426 218.434 157.426C219.54 157.426 220.673 157.543 221.832 157.777C223.004 157.999 224.124 158.35 225.191 158.832C226.259 159.314 227.229 159.932 228.102 160.688C228.974 161.443 229.671 162.348 230.191 163.402C230.322 163.702 230.237 163.917 229.938 164.047L223.355 166.82C223.277 166.859 223.199 166.879 223.121 166.879C222.939 166.879 222.796 166.781 222.691 166.586C222.379 166.013 222.034 165.492 221.656 165.023C221.279 164.542 220.849 164.112 220.367 163.734L218.766 163.363C217.438 163.441 216.52 163.91 216.012 164.77C215.634 165.577 216.214 166.371 217.75 167.152L221.109 168.305C224.026 168.956 226.305 169.913 227.945 171.176C229.586 172.452 230.569 173.773 230.895 175.141C231.064 175.844 231.161 176.54 231.188 177.23C231.214 177.921 231.161 178.617 231.031 179.32C230.888 180.128 230.654 180.844 230.328 181.469C230.003 182.094 229.599 182.654 229.117 183.148C228.648 183.63 228.108 184.06 227.496 184.438C226.884 184.802 226.214 185.141 225.484 185.453C224.547 185.857 223.577 186.137 222.574 186.293C221.572 186.462 220.562 186.547 219.547 186.547C218.609 186.547 217.691 186.488 216.793 186.371C215.895 186.267 215.022 186.085 214.176 185.824C213.342 185.551 212.535 185.199 211.754 184.77C210.973 184.327 210.224 183.78 209.508 183.129C208.896 182.582 208.382 181.951 207.965 181.234C207.548 180.505 207.184 179.691 206.871 178.793C206.819 178.65 206.826 178.526 206.891 178.422C206.969 178.318 207.079 178.246 207.223 178.207Z" fill="white"/>
<path d="M98.3343 91.448C98.4623 91.7893 98.6543 92.4933 98.9103 93.56C99.2089 94.584 99.5289 95.7787 99.8703 97.144C100.212 98.4667 100.553 99.8747 100.894 101.368C101.278 102.819 101.62 104.184 101.918 105.464C102.217 106.701 102.452 107.747 102.622 108.6C102.836 109.453 102.942 109.923 102.942 110.008C102.814 109.411 102.601 108.579 102.302 107.512C102.046 106.403 101.748 105.208 101.406 103.928C101.065 102.648 100.724 101.325 100.382 99.96C100.041 98.5947 99.7209 97.336 99.4223 96.184C99.1663 94.9893 98.9316 93.9653 98.7183 93.112C98.5049 92.2587 98.3769 91.704 98.3343 91.448ZM103.07 86.712C103.71 88.888 104.265 91 104.734 93.048C105.204 95.0533 105.609 96.9093 105.95 98.616C105.694 97.8053 105.396 96.76 105.054 95.48C104.756 94.2 104.457 92.9627 104.158 91.768C103.86 90.5307 103.604 89.4427 103.39 88.504C103.177 87.5227 103.07 86.9253 103.07 86.712ZM97.3743 89.08C97.2889 89.0373 97.2463 88.824 97.2463 88.44C97.2889 88.5253 97.3316 88.632 97.3743 88.76C97.4169 88.888 97.4169 88.9947 97.3743 89.08ZM103.326 101.56C103.412 101.645 103.433 101.731 103.39 101.816C103.39 101.859 103.412 101.965 103.454 102.136C103.326 101.965 103.284 101.773 103.326 101.56ZM102.558 106.168C102.686 106.339 102.75 106.573 102.75 106.872C102.793 107.128 102.836 107.32 102.878 107.448C102.793 107.32 102.729 107.149 102.686 106.936C102.644 106.68 102.601 106.424 102.558 106.168ZM102.494 90.488C102.58 90.744 102.537 90.8507 102.366 90.808C102.238 90.7227 102.217 90.616 102.302 90.488C102.26 90.3173 102.26 90.2107 102.302 90.168C102.345 90.0827 102.409 90.1893 102.494 90.488ZM98.9103 84.088C99.0809 84.088 99.1236 84.216 99.0383 84.472C98.9956 84.4293 98.9316 84.3867 98.8463 84.344C98.8036 84.2587 98.8249 84.1733 98.9103 84.088ZM122.91 81.08L112.606 122.552C112.564 122.552 112.436 122.616 112.222 122.744C112.052 122.829 111.86 122.915 111.646 123C111.433 123.128 111.22 123.235 111.006 123.32C110.836 123.405 110.729 123.469 110.686 123.512L100.958 121.08L101.854 117.496L93.3422 82.744C93.3849 82.7013 93.4489 82.5947 93.5343 82.424C93.6623 82.2533 93.7903 82.0827 93.9183 81.912C94.0463 81.6987 94.1743 81.5067 94.3023 81.336C94.4303 81.1653 94.4943 81.0587 94.4943 81.016L104.286 78.584L107.87 93.24L111.262 79.608C111.305 79.5653 111.412 79.5013 111.582 79.416C111.796 79.3307 112.009 79.2453 112.222 79.16C112.436 79.032 112.628 78.9253 112.798 78.84C112.969 78.712 113.076 78.648 113.118 78.648L122.91 81.08ZM102.302 115.576L102.686 114.104C102.302 112.568 101.854 110.84 101.342 108.92C100.873 107 100.382 105.037 99.8703 103.032C99.3583 100.984 98.8676 99 98.3983 97.08C97.9289 95.1173 97.5023 93.368 97.1183 91.832C96.7769 90.2533 96.4783 88.9733 96.2223 87.992C96.0089 87.0107 95.9023 86.456 95.9023 86.328C96.1156 87.0107 96.4783 88.3547 96.9903 90.36C97.5449 92.3653 98.1423 94.6907 98.7823 97.336C99.4649 99.9387 100.148 102.712 100.83 105.656C101.513 108.557 102.153 111.245 102.75 113.72L103.966 108.92C103.582 107.256 103.177 105.592 102.75 103.928C102.366 102.221 102.025 100.707 101.726 99.384C101.428 98.0187 101.172 96.9093 100.958 96.056C100.788 95.16 100.702 94.648 100.702 94.52C100.83 95.0747 101.001 95.8427 101.214 96.824C101.47 97.8053 101.748 98.9147 102.046 100.152C102.345 101.389 102.665 102.733 103.006 104.184C103.39 105.592 103.753 107 104.094 108.408L104.926 105.016C104.756 104.419 104.5 103.501 104.158 102.264C103.86 100.984 103.497 99.5547 103.07 97.976C102.644 96.3547 102.217 94.6907 101.79 92.984C101.364 91.2347 100.98 89.6347 100.638 88.184C100.297 86.7333 99.9983 85.5173 99.7423 84.536C99.5289 83.5547 99.4223 82.9787 99.4223 82.808C99.6783 83.6187 100.02 84.8347 100.446 86.456C100.873 88.0347 101.342 89.848 101.854 91.896C102.366 93.9013 102.878 96.056 103.39 98.36C103.945 100.621 104.457 102.84 104.926 105.016L105.694 102.136C105.182 100.045 104.67 97.9973 104.158 95.992C103.689 93.944 103.262 92.1307 102.878 90.552C102.494 88.9733 102.174 87.6933 101.918 86.712C101.705 85.688 101.598 85.112 101.598 84.984C101.726 85.4107 101.918 86.1573 102.174 87.224C102.473 88.248 102.814 89.5067 103.198 91C103.582 92.4507 103.988 94.0933 104.414 95.928C104.884 97.72 105.353 99.576 105.822 101.496L106.59 98.296L102.43 81.208L101.598 81.464V82.168C101.556 82.0827 101.513 81.9973 101.47 81.912C101.428 81.784 101.385 81.656 101.342 81.528V81.848C101.342 81.8053 101.3 81.6987 101.214 81.528L100.958 81.592V81.912C100.958 81.8693 100.916 81.7627 100.83 81.592L99.1023 82.04V82.744C99.0596 82.6587 99.0169 82.5733 98.9743 82.488C98.9316 82.36 98.8889 82.232 98.8463 82.104L98.2703 82.232V82.552C98.2703 82.552 98.2276 82.4667 98.1423 82.296L97.0543 82.552C97.6516 84.6853 98.1423 86.5627 98.5263 88.184C98.9103 89.7627 99.2729 91.4053 99.6143 93.112C99.4009 92.344 99.1449 91.4267 98.8463 90.36C98.5476 89.2933 98.2703 88.248 98.0143 87.224C97.7583 86.2 97.5236 85.2613 97.3103 84.408C97.1396 83.5547 97.0329 82.936 96.9903 82.552L95.7743 82.872V83.448C95.7743 83.4053 95.7316 83.2987 95.6463 83.128V83.704C95.6036 83.6187 95.5396 83.512 95.4543 83.384C95.4116 83.2133 95.3689 83.0853 95.3263 83L94.6223 83.128V83.512C94.6223 83.4693 94.5796 83.3627 94.4943 83.192H94.3663L102.302 115.576ZM120.03 82.552L119.198 82.36L118.878 83V82.296C118.836 82.3813 118.814 82.4453 118.814 82.488V82.552V82.232L118.558 82.168C118.516 82.2533 118.494 82.3387 118.494 82.424C118.494 82.4667 118.473 82.488 118.43 82.488V82.168L116.702 81.72L116.382 82.36C116.382 82.2747 116.382 82.168 116.382 82.04C116.382 81.912 116.404 81.784 116.446 81.656L115.87 81.528C115.828 81.5707 115.806 81.6347 115.806 81.72C115.806 81.7627 115.785 81.8053 115.742 81.848V81.464L114.654 81.208C114.185 83.4267 113.737 85.368 113.31 87.032C112.926 88.6533 112.478 90.296 111.966 91.96C112.137 91.1493 112.329 90.2107 112.542 89.144C112.798 88.0347 113.054 86.968 113.31 85.944C113.566 84.8773 113.801 83.9173 114.014 83.064C114.27 82.2107 114.462 81.592 114.59 81.208L113.374 80.888L113.182 81.272C113.14 81.3573 113.118 81.4213 113.118 81.464V81.08L112.862 81.592C112.862 81.5067 112.862 81.3787 112.862 81.208C112.905 81.0373 112.926 80.888 112.926 80.76L112.222 80.632L112.094 80.888V80.568H111.966L102.046 120.504L102.686 120.696C102.772 120.525 102.836 120.419 102.878 120.376C102.921 120.333 102.942 120.291 102.942 120.248C102.942 120.461 102.921 120.632 102.878 120.76C102.921 120.675 102.964 120.547 103.006 120.376C103.049 120.205 103.113 120.056 103.198 119.928C103.284 119.757 103.348 119.608 103.39 119.48C103.39 119.565 103.369 119.757 103.326 120.056C103.284 120.355 103.241 120.611 103.198 120.824L106.654 121.656C106.782 121.016 106.953 120.227 107.166 119.288C107.422 118.307 107.678 117.261 107.934 116.152C108.233 115.043 108.532 113.933 108.83 112.824C109.129 111.672 109.406 110.627 109.662 109.688C109.918 108.749 110.132 107.96 110.302 107.32C110.473 106.68 110.601 106.296 110.686 106.168C110.558 107.021 110.324 108.152 109.982 109.56C109.641 110.968 109.257 112.44 108.83 113.976C108.404 115.512 107.998 116.984 107.614 118.392C107.23 119.8 106.91 120.888 106.654 121.656L106.782 121.72C106.825 121.635 106.846 121.571 106.846 121.528C106.846 121.485 106.868 121.443 106.91 121.4C106.91 121.357 106.932 121.315 106.974 121.272V121.72L109.086 122.296C109.129 122.168 109.172 122.019 109.214 121.848C109.3 121.677 109.364 121.528 109.406 121.4L109.534 120.888C109.492 120.973 109.449 121.165 109.406 121.464C109.364 121.763 109.3 122.04 109.214 122.296H109.278C109.278 122.253 109.3 122.211 109.342 122.168V122.36H109.47C109.47 122.232 109.513 122.125 109.598 122.04C109.641 121.997 109.662 121.955 109.662 121.912C109.662 122.125 109.641 122.296 109.598 122.424L110.046 122.552L120.03 82.552ZM106.974 108.792C107.102 108.152 107.294 107.277 107.55 106.168C107.849 105.059 108.148 103.843 108.446 102.52C108.788 101.197 109.108 99.8533 109.406 98.488C109.748 97.08 110.068 95.7787 110.366 94.584C110.665 93.3893 110.921 92.3653 111.134 91.512C111.348 90.6587 111.497 90.104 111.582 89.848C111.54 90.232 111.39 90.9573 111.134 92.024C110.921 93.0907 110.644 94.3067 110.302 95.672C110.004 97.0373 109.662 98.488 109.278 100.024C108.894 101.517 108.532 102.904 108.19 104.184C107.892 105.464 107.614 106.531 107.358 107.384C107.145 108.237 107.017 108.707 106.974 108.792ZM107.358 112.312C107.828 110.435 108.34 108.429 108.894 106.296C109.449 104.163 109.961 102.2 110.43 100.408C110.9 98.5733 111.305 97.0373 111.646 95.8C111.988 94.52 112.201 93.816 112.286 93.688C112.073 94.4133 111.796 95.4587 111.454 96.824C111.113 98.1893 110.729 99.7467 110.302 101.496C109.876 103.203 109.428 104.995 108.958 106.872C108.489 108.749 108.041 110.52 107.614 112.184H107.742C108.297 112.184 108.574 112.461 108.574 113.016C108.574 113.613 108.297 113.912 107.742 113.912C107.529 113.912 107.358 113.848 107.23 113.72C106.889 115 106.59 116.152 106.334 117.176C106.078 118.157 105.844 118.925 105.63 119.48C105.716 119.011 105.886 118.264 106.142 117.24C106.398 116.173 106.697 114.936 107.038 113.528C106.953 113.357 106.91 113.187 106.91 113.016C106.91 112.717 107.06 112.483 107.358 112.312ZM118.046 87.8C117.577 90.104 117.065 92.28 116.51 94.328C115.998 96.3333 115.486 98.1893 114.974 99.896C115.145 99 115.38 97.912 115.678 96.632C115.977 95.352 116.276 94.0933 116.574 92.856C116.916 91.576 117.214 90.4667 117.47 89.528C117.769 88.5893 117.961 88.0133 118.046 87.8ZM116.638 82.552C116.51 83.4053 116.254 84.664 115.87 86.328C115.486 87.9493 115.038 89.8053 114.526 91.896C114.014 93.944 113.46 96.1413 112.862 98.488C112.265 100.792 111.668 103.032 111.07 105.208C111.198 104.611 111.412 103.672 111.71 102.392C112.009 101.069 112.35 99.5973 112.734 97.976C113.118 96.312 113.524 94.6053 113.95 92.856C114.377 91.1067 114.782 89.4853 115.166 87.992C115.55 86.4987 115.87 85.2613 116.126 84.28C116.382 83.256 116.553 82.68 116.638 82.552ZM108.638 121.272C108.724 120.845 108.916 120.013 109.214 118.776C109.513 117.539 109.854 116.067 110.238 114.36C110.665 112.611 111.134 110.712 111.646 108.664C112.158 106.573 112.67 104.483 113.182 102.392C113.694 100.259 114.185 98.2107 114.654 96.248C115.166 94.2427 115.614 92.472 115.998 90.936C116.425 89.3573 116.766 88.0773 117.022 87.096C117.321 86.1147 117.492 85.5813 117.534 85.496C117.449 86.0507 117.214 87.1173 116.83 88.696C116.489 90.2747 116.041 92.152 115.486 94.328C114.974 96.504 114.398 98.872 113.758 101.432C113.118 103.949 112.478 106.445 111.838 108.92C111.241 111.352 110.644 113.656 110.046 115.832C109.492 118.008 109.022 119.821 108.638 121.272ZM103.582 117.432C103.71 116.877 103.988 115.683 104.414 113.848C104.884 111.971 105.396 109.837 105.95 107.448C106.548 105.016 107.166 102.456 107.806 99.768C108.489 97.08 109.108 94.6053 109.662 92.344C110.26 90.04 110.75 88.12 111.134 86.584C111.518 85.048 111.753 84.216 111.838 84.088C111.753 84.6427 111.54 85.6667 111.198 87.16C110.857 88.6107 110.452 90.3387 109.982 92.344C109.513 94.3067 108.98 96.4613 108.382 98.808C107.828 101.112 107.252 103.416 106.654 105.72C106.057 107.981 105.481 110.136 104.926 112.184C104.414 114.232 103.966 115.981 103.582 117.432ZM111.902 87.288C111.817 87.2027 111.796 87.1173 111.838 87.032C111.881 86.9467 111.945 86.7973 112.03 86.584C112.03 86.9253 111.988 87.16 111.902 87.288ZM111.07 101.88C111.07 101.624 111.113 101.432 111.198 101.304C111.241 101.432 111.198 101.624 111.07 101.88ZM108.446 105.144C108.489 105.357 108.446 105.592 108.318 105.848C108.233 106.104 108.169 106.296 108.126 106.424C108.041 106.083 108.148 105.656 108.446 105.144ZM115.55 90.872C115.593 90.7013 115.657 90.5947 115.742 90.552C115.828 90.5093 115.828 90.6373 115.742 90.936C115.657 91.192 115.55 91.256 115.422 91.128C115.337 91 115.38 90.9147 115.55 90.872ZM111.582 112.312C111.454 112.269 111.476 112.056 111.646 111.672C111.732 111.501 111.817 111.309 111.902 111.096C111.945 111.267 111.924 111.501 111.838 111.8C111.796 112.056 111.71 112.227 111.582 112.312ZM105.182 118.072C105.182 117.987 105.182 117.923 105.182 117.88C105.182 117.837 105.225 117.773 105.31 117.688C105.353 117.688 105.353 117.731 105.31 117.816C105.31 117.901 105.268 117.987 105.182 118.072ZM115.614 83.448C115.742 83.576 115.721 83.7253 115.55 83.896C115.508 83.8107 115.465 83.7467 115.422 83.704C115.422 83.6187 115.486 83.5333 115.614 83.448ZM108.382 120.312C108.297 120.312 108.276 120.248 108.318 120.12C108.404 119.949 108.468 119.8 108.51 119.672C108.51 119.8 108.51 119.928 108.51 120.056C108.51 120.184 108.468 120.269 108.382 120.312ZM136.992 90.36V94.648H151.008V121.336C150.752 121.635 150.517 121.891 150.304 122.104C150.09 122.317 149.898 122.509 149.728 122.68C149.6 122.851 149.514 122.957 149.472 123H125.344V112.952C125.429 112.867 125.664 112.611 126.048 112.184C126.432 111.715 126.666 111.437 126.752 111.352H139.36V106.296H125.344V80.312C125.429 80.2267 125.621 80.0133 125.92 79.672C126.218 79.288 126.496 78.9253 126.752 78.584H151.008V88.76C150.965 88.8027 150.858 88.9093 150.688 89.08C150.56 89.208 150.41 89.3787 150.24 89.592C150.112 89.7627 149.984 89.9333 149.856 90.104C149.728 90.232 149.642 90.3173 149.6 90.36H136.992ZM148.832 86.136C148.277 86.136 147.552 86.136 146.656 86.136C145.76 86.136 144.757 86.1573 143.648 86.2C142.581 86.2 141.472 86.2 140.32 86.2C139.168 86.2 138.058 86.2 136.992 86.2V87.288C137.077 87.3307 137.226 87.352 137.44 87.352C137.397 87.3947 137.248 87.416 136.992 87.416V88.312C137.717 88.312 138.57 88.312 139.552 88.312C140.576 88.312 141.557 88.312 142.496 88.312C143.434 88.312 144.266 88.3333 144.992 88.376C145.717 88.376 146.165 88.376 146.336 88.376C145.994 88.376 145.44 88.3973 144.672 88.44C143.946 88.44 143.114 88.44 142.176 88.44C141.28 88.44 140.362 88.44 139.424 88.44C138.485 88.44 137.674 88.4187 136.992 88.376V88.888C137.077 88.888 137.141 88.9093 137.184 88.952C137.269 88.952 137.354 88.952 137.44 88.952H136.992V89.464H148.832V89.08C148.704 89.08 148.576 89.08 148.448 89.08C148.362 89.0373 148.277 89.016 148.192 89.016C148.448 89.016 148.661 88.9947 148.832 88.952V87.352C148.618 87.352 148.426 87.352 148.256 87.352C148.085 87.3093 147.914 87.288 147.744 87.288C147.829 87.2453 147.978 87.224 148.192 87.224C148.405 87.224 148.618 87.2027 148.832 87.16C148.661 87.1173 148.426 87.096 148.128 87.096C148.17 87.0533 148.405 87.032 148.832 87.032V86.136ZM148.832 83.768C148.064 83.768 147.104 83.7893 145.952 83.832C144.8 83.832 143.626 83.832 142.432 83.832C141.28 83.832 140.192 83.832 139.168 83.832C138.186 83.7893 137.461 83.768 136.992 83.768V84.472C138.101 84.472 139.125 84.472 140.064 84.472C141.002 84.472 141.578 84.4933 141.792 84.536C141.45 84.5787 140.832 84.6 139.936 84.6C139.04 84.6 138.058 84.6 136.992 84.6V86.008C138.058 86.008 139.168 86.008 140.32 86.008C141.514 86.008 142.645 86.008 143.712 86.008C144.778 86.008 145.76 86.0293 146.656 86.072C147.552 86.072 148.277 86.072 148.832 86.072V84.728C148.533 84.728 148.234 84.7067 147.936 84.664C147.68 84.6213 147.466 84.6 147.296 84.6C147.509 84.6 147.765 84.6 148.064 84.6C148.362 84.5573 148.618 84.5147 148.832 84.472V83.768ZM136.032 82.488H135.712C135.669 82.616 135.648 82.744 135.648 82.872C135.648 82.9573 135.648 83.0427 135.648 83.128C135.648 83.0427 135.626 82.9573 135.584 82.872C135.584 82.744 135.584 82.616 135.584 82.488H133.984C133.941 82.7013 133.92 82.9147 133.92 83.128C133.92 83.2987 133.898 83.448 133.856 83.576C133.856 83.4907 133.856 83.3413 133.856 83.128C133.856 82.9147 133.834 82.7013 133.792 82.488H133.728C133.728 82.616 133.728 82.744 133.728 82.872C133.728 83 133.706 83.1067 133.664 83.192C133.664 83.1493 133.664 83.064 133.664 82.936C133.664 82.808 133.642 82.6587 133.6 82.488H132.704C132.704 83.0853 132.704 83.896 132.704 84.92C132.746 85.944 132.768 87.0533 132.768 88.248C132.768 89.4427 132.768 90.68 132.768 91.96C132.768 93.24 132.768 94.4347 132.768 95.544C132.768 96.6533 132.746 97.6347 132.704 98.488C132.704 99.3413 132.704 99.9387 132.704 100.28C132.661 99.896 132.618 99.1707 132.576 98.104C132.576 97.0373 132.576 95.8213 132.576 94.456C132.576 93.0907 132.576 91.6613 132.576 90.168C132.618 88.6747 132.64 87.288 132.64 86.008C132.554 86.4773 132.277 86.712 131.808 86.712C131.253 86.712 130.976 86.4133 130.976 85.816C130.976 85.2613 131.253 84.984 131.808 84.984C132.277 84.984 132.554 85.2187 132.64 85.688C132.64 85.0053 132.64 84.408 132.64 83.896C132.64 83.3413 132.661 82.872 132.704 82.488H131.36C131.317 82.8293 131.274 83.128 131.232 83.384C131.232 83.64 131.232 83.8747 131.232 84.088C131.189 83.8747 131.146 83.6187 131.104 83.32C131.104 82.9787 131.104 82.7013 131.104 82.488H130.4C130.4 83.384 130.4 84.4933 130.4 85.816C130.4 87.096 130.4 88.376 130.4 89.656C130.4 90.936 130.378 92.0667 130.336 93.048C130.336 94.0293 130.336 94.6267 130.336 94.84C130.336 94.712 130.314 94.1573 130.272 93.176C130.272 92.1947 130.272 91.064 130.272 89.784C130.272 88.504 130.272 87.2027 130.272 85.88C130.272 84.5147 130.272 83.384 130.272 82.488H128.608V83C128.608 82.9573 128.586 82.8933 128.544 82.808C128.544 82.7227 128.544 82.616 128.544 82.488H127.776V105.144H128.544C128.544 105.059 128.565 104.995 128.608 104.952V105.144H130.016C130.016 105.059 130.016 104.973 130.016 104.888C130.058 104.803 130.08 104.717 130.08 104.632V104.824C130.08 104.909 130.08 104.973 130.08 105.016C130.122 105.059 130.144 105.101 130.144 105.144H130.336C130.336 104.931 130.336 104.611 130.336 104.184C130.378 103.715 130.421 103.437 130.464 103.352C130.464 103.395 130.464 103.651 130.464 104.12C130.506 104.589 130.528 104.931 130.528 105.144H130.784C130.784 104.803 130.762 104.227 130.72 103.416C130.72 102.605 130.72 101.773 130.72 100.92C130.72 100.067 130.72 99.2773 130.72 98.552C130.762 97.784 130.805 97.2933 130.848 97.08C130.848 97.3787 130.848 97.912 130.848 98.68C130.89 99.4053 130.912 100.195 130.912 101.048C130.912 101.859 130.89 102.669 130.848 103.48C130.848 104.248 130.848 104.803 130.848 105.144H131.936C131.936 104.931 131.936 104.739 131.936 104.568C131.978 104.397 132 104.227 132 104.056C132.042 104.141 132.064 104.291 132.064 104.504C132.064 104.717 132.085 104.931 132.128 105.144H133.856C133.856 104.675 133.834 104.056 133.792 103.288C133.792 102.52 133.792 101.731 133.792 100.92C133.792 100.109 133.792 99.384 133.792 98.744C133.834 98.104 133.877 97.6773 133.92 97.464C133.92 97.72 133.92 98.1893 133.92 98.872C133.962 99.512 133.984 100.237 133.984 101.048C133.984 101.816 133.962 102.584 133.92 103.352C133.92 104.077 133.92 104.675 133.92 105.144H135.328C135.328 105.059 135.328 105.016 135.328 105.016C135.37 104.973 135.392 104.909 135.392 104.824V104.952C135.392 104.995 135.392 105.037 135.392 105.08C135.434 105.08 135.456 105.101 135.456 105.144H136.032V82.488ZM139.36 105.336V104.376C138.89 104.333 138.464 104.312 138.08 104.312C137.696 104.312 137.333 104.312 136.992 104.312V104.824H137.44C137.354 104.867 137.205 104.888 136.992 104.888V105.336H139.36ZM136.992 103.224C137.162 103.224 137.312 103.245 137.44 103.288C137.397 103.288 137.333 103.309 137.248 103.352C137.162 103.352 137.077 103.352 136.992 103.352V104.248C137.333 104.205 137.696 104.184 138.08 104.184C138.464 104.184 138.89 104.184 139.36 104.184V102.392C139.146 102.392 139.04 102.371 139.04 102.328H139.36V102.072H136.992V103.224ZM136.992 100.536V101.944H139.36V100.536H136.992ZM136.992 100.344C137.418 100.344 137.824 100.344 138.208 100.344C138.592 100.344 138.976 100.365 139.36 100.408V99.704C138.848 99.704 138.378 99.704 137.952 99.704C137.568 99.704 137.248 99.6827 136.992 99.64V100.344ZM150.112 112.248H127.456V112.632C127.584 112.632 127.69 112.653 127.776 112.696C127.904 112.696 128.01 112.696 128.096 112.696H127.456V114.36C127.669 114.36 127.861 114.381 128.032 114.424C128.245 114.424 128.416 114.424 128.544 114.424C128.458 114.424 128.309 114.445 128.096 114.488C127.882 114.488 127.669 114.509 127.456 114.552C127.584 114.595 127.712 114.616 127.84 114.616C127.968 114.616 128.074 114.616 128.16 114.616C128.117 114.616 128.032 114.637 127.904 114.68C127.776 114.68 127.626 114.68 127.456 114.68V115.576C128.309 115.576 129.525 115.576 131.104 115.576C132.725 115.533 134.41 115.512 136.16 115.512C137.909 115.512 139.552 115.533 141.088 115.576C142.666 115.576 143.861 115.576 144.672 115.576H144.8H145.056H145.248C145.162 115.576 145.12 115.597 145.12 115.64C145.461 115.725 145.632 115.981 145.632 116.408C145.632 116.963 145.354 117.24 144.8 117.24C144.629 117.24 144.522 117.219 144.48 117.176C144.266 117.176 143.669 117.197 142.688 117.24C141.706 117.24 140.64 117.24 139.488 117.24C138.378 117.24 137.333 117.24 136.352 117.24C135.37 117.24 134.773 117.219 134.56 117.176C134.858 117.133 135.477 117.112 136.416 117.112C137.397 117.112 138.421 117.112 139.488 117.112C140.597 117.112 141.621 117.112 142.56 117.112C143.541 117.112 144.181 117.133 144.48 117.176C144.138 117.048 143.968 116.792 143.968 116.408C143.968 116.024 144.138 115.768 144.48 115.64C143.626 115.64 142.41 115.661 140.832 115.704C139.296 115.704 137.653 115.704 135.904 115.704C134.197 115.704 132.554 115.704 130.976 115.704C129.44 115.661 128.266 115.64 127.456 115.64V116.984C127.797 116.984 128.096 117.005 128.352 117.048C128.608 117.091 128.842 117.112 129.056 117.112C128.842 117.112 128.565 117.133 128.224 117.176C127.925 117.176 127.669 117.176 127.456 117.176V117.944C128.352 117.944 129.44 117.944 130.72 117.944C132.042 117.901 133.344 117.88 134.624 117.88C135.904 117.88 137.034 117.901 138.016 117.944C138.997 117.944 139.594 117.965 139.808 118.008C139.68 118.008 139.125 118.029 138.144 118.072C137.162 118.072 136.032 118.072 134.752 118.072C133.472 118.072 132.149 118.072 130.784 118.072C129.461 118.029 128.352 118.008 127.456 118.008V119.672C127.541 119.672 127.626 119.693 127.712 119.736C127.797 119.736 127.882 119.736 127.968 119.736H127.456V120.568H150.112V119.8C150.069 119.757 150.005 119.736 149.92 119.736H149.984C150.026 119.736 150.069 119.715 150.112 119.672V118.328C150.026 118.285 149.941 118.264 149.856 118.264C149.77 118.264 149.685 118.243 149.6 118.2C149.642 118.2 149.706 118.2 149.792 118.2C149.92 118.2 150.026 118.179 150.112 118.136V118.008C149.898 117.965 149.578 117.944 149.152 117.944C148.725 117.901 148.469 117.88 148.384 117.88C148.64 117.837 148.874 117.816 149.088 117.816C149.301 117.816 149.493 117.816 149.664 117.816C149.877 117.816 150.026 117.795 150.112 117.752V117.496C149.77 117.496 149.194 117.517 148.384 117.56C147.616 117.56 146.784 117.56 145.888 117.56C145.034 117.56 144.224 117.56 143.456 117.56C142.73 117.56 142.261 117.539 142.048 117.496C142.346 117.496 142.858 117.496 143.584 117.496C144.352 117.453 145.141 117.432 145.952 117.432C146.805 117.432 147.616 117.432 148.384 117.432C149.194 117.432 149.77 117.453 150.112 117.496V116.344C149.898 116.344 149.706 116.344 149.536 116.344C149.365 116.344 149.194 116.323 149.024 116.28C149.109 116.28 149.258 116.28 149.472 116.28C149.685 116.237 149.898 116.216 150.112 116.216V114.424C149.642 114.424 149.024 114.445 148.256 114.488C147.488 114.488 146.698 114.488 145.888 114.488C145.077 114.488 144.352 114.488 143.712 114.488C143.072 114.445 142.645 114.424 142.432 114.424C142.688 114.424 143.136 114.424 143.776 114.424C144.458 114.381 145.184 114.36 145.952 114.36C146.762 114.36 147.53 114.36 148.256 114.36C149.024 114.36 149.642 114.36 150.112 114.36V113.016C150.026 112.973 149.962 112.952 149.92 112.952C149.92 112.952 149.877 112.931 149.792 112.888H149.92C150.005 112.888 150.069 112.867 150.112 112.824V112.248ZM140.256 111.352H141.28C141.28 110.371 141.28 109.432 141.28 108.536C141.28 107.64 141.301 106.915 141.344 106.36C141.386 106.872 141.408 107.597 141.408 108.536C141.408 109.432 141.408 110.371 141.408 111.352H143.2C143.2 110.797 143.2 110.328 143.2 109.944C143.2 109.56 143.221 109.368 143.264 109.368C143.264 109.411 143.264 109.624 143.264 110.008C143.306 110.349 143.328 110.797 143.328 111.352H143.52C143.52 109.475 143.52 107.683 143.52 105.976C143.52 104.269 143.541 102.968 143.584 102.072C143.456 101.944 143.392 101.773 143.392 101.56C143.392 101.005 143.669 100.728 144.224 100.728C144.778 100.728 145.056 101.005 145.056 101.56C145.056 102.115 144.778 102.392 144.224 102.392C143.968 102.392 143.776 102.307 143.648 102.136C143.69 103.032 143.712 104.333 143.712 106.04C143.712 107.747 143.712 109.517 143.712 111.352H145.12C145.12 110.755 145.098 109.987 145.056 109.048C145.056 108.109 145.056 107.171 145.056 106.232C145.056 105.251 145.056 104.397 145.056 103.672C145.098 102.904 145.141 102.413 145.184 102.2C145.184 102.328 145.184 102.776 145.184 103.544C145.226 104.312 145.248 105.187 145.248 106.168C145.248 107.107 145.226 108.067 145.184 109.048C145.184 110.029 145.184 110.797 145.184 111.352H145.888C145.888 110.243 145.888 109.283 145.888 108.472C145.93 107.619 145.973 107.085 146.016 106.872C146.016 107 146.016 107.491 146.016 108.344C146.058 109.197 146.08 110.2 146.08 111.352H148.576V96.568H147.744V96.76C147.701 96.76 147.68 96.7387 147.68 96.696V96.568H146.272C146.272 96.6533 146.272 96.7387 146.272 96.824C146.272 96.9093 146.25 96.9947 146.208 97.08C146.208 97.0373 146.208 96.9733 146.208 96.888C146.208 96.76 146.186 96.6533 146.144 96.568H145.952C145.952 96.7813 145.93 97.1013 145.888 97.528C145.888 97.9547 145.888 98.2107 145.888 98.296C145.845 98.04 145.824 97.8053 145.824 97.592C145.781 97.3787 145.76 97.1867 145.76 97.016C145.76 96.8027 145.76 96.6533 145.76 96.568H145.504C145.504 96.9093 145.504 97.4853 145.504 98.296C145.546 99.064 145.568 99.896 145.568 100.792C145.568 101.645 145.546 102.456 145.504 103.224C145.504 103.949 145.504 104.419 145.504 104.632C145.504 104.333 145.482 103.821 145.44 103.096C145.44 102.328 145.44 101.539 145.44 100.728C145.44 99.8747 145.44 99.064 145.44 98.296C145.44 97.4853 145.461 96.9093 145.504 96.568H144.352C144.352 96.7813 144.352 96.9733 144.352 97.144C144.352 97.3147 144.33 97.464 144.288 97.592C144.288 97.5067 144.266 97.3787 144.224 97.208C144.224 96.9947 144.224 96.7813 144.224 96.568H142.432C142.432 97.0373 142.432 97.656 142.432 98.424C142.474 99.192 142.496 99.9813 142.496 100.792C142.496 101.56 142.474 102.285 142.432 102.968C142.432 103.608 142.432 104.013 142.432 104.184C142.432 103.928 142.41 103.48 142.368 102.84C142.368 102.157 142.368 101.432 142.368 100.664C142.368 99.896 142.368 99.1493 142.368 98.424C142.368 97.656 142.368 97.0373 142.368 96.568H140.96C140.96 96.696 140.938 96.8027 140.896 96.888V96.76C140.896 96.7173 140.874 96.696 140.832 96.696C140.832 96.6533 140.832 96.6107 140.832 96.568H140.256V111.352ZM136.992 97.08V98.168H138.784C138.613 98.2107 138.378 98.232 138.08 98.232C137.781 98.232 137.418 98.232 136.992 98.232V99.576H139.36V97.08H136.992ZM136.288 81.144C136.672 81.528 136.906 81.7413 136.992 81.784V82.232C137.461 82.232 137.845 82.2533 138.144 82.296C138.485 82.296 138.698 82.296 138.784 82.296C138.613 82.296 138.378 82.296 138.08 82.296C137.781 82.296 137.418 82.3173 136.992 82.36V83.704C137.461 83.704 138.186 83.704 139.168 83.704C140.192 83.6613 141.28 83.64 142.432 83.64C143.584 83.64 144.736 83.64 145.888 83.64C147.082 83.64 148.064 83.64 148.832 83.64V82.04C148.704 81.9973 148.533 81.976 148.32 81.976C148.49 81.976 148.661 81.9547 148.832 81.912V81.144H136.288ZM148.448 81.784C148.149 81.784 147.637 81.8053 146.912 81.848C146.229 81.848 145.504 81.848 144.736 81.848C143.968 81.848 143.242 81.848 142.56 81.848C141.877 81.848 141.408 81.8267 141.152 81.784C141.322 81.7413 141.749 81.72 142.432 81.72C143.157 81.72 143.925 81.72 144.736 81.72C145.546 81.72 146.314 81.72 147.04 81.72C147.765 81.72 148.234 81.7413 148.448 81.784ZM145.504 86.456C145.461 86.456 145.098 86.4773 144.416 86.52C143.733 86.52 142.986 86.52 142.176 86.52C141.408 86.52 140.682 86.52 140 86.52C139.36 86.4773 139.04 86.456 139.04 86.456C139.04 86.4133 139.36 86.392 140 86.392C140.682 86.392 141.408 86.392 142.176 86.392C142.944 86.392 143.669 86.4133 144.352 86.456C145.034 86.456 145.418 86.456 145.504 86.456ZM143.648 82.616C143.861 82.5733 144.053 82.5733 144.224 82.616C144.138 82.616 144.032 82.6373 143.904 82.68C143.818 82.68 143.733 82.6587 143.648 82.616ZM147.168 87.48C146.869 87.608 146.72 87.608 146.72 87.48C146.72 87.4373 146.762 87.416 146.848 87.416C146.976 87.416 147.082 87.4373 147.168 87.48ZM148.128 83C148.256 82.9573 148.341 82.9573 148.384 83C148.426 83.0427 148.405 83.0853 148.32 83.128C148.234 83.128 148.149 83.128 148.064 83.128C147.978 83.0853 148 83.0427 148.128 83ZM134.944 95.352C134.901 94.7547 134.88 93.9227 134.88 92.856C134.88 91.7893 134.88 90.7013 134.88 89.592C134.88 88.4827 134.88 87.5013 134.88 86.648C134.922 85.752 134.944 85.1973 134.944 84.984C134.986 85.368 135.008 86.008 135.008 86.904C135.05 87.8 135.072 88.7813 135.072 89.848C135.072 90.872 135.05 91.896 135.008 92.92C135.008 93.944 134.986 94.7547 134.944 95.352ZM128.928 104.696C128.885 104.141 128.842 103.245 128.8 102.008C128.8 100.728 128.8 99.4267 128.8 98.104C128.8 96.7813 128.8 95.5867 128.8 94.52C128.842 93.4107 128.885 92.7493 128.928 92.536C128.928 92.92 128.928 93.6667 128.928 94.776C128.97 95.8853 128.992 97.08 128.992 98.36C128.992 99.5973 128.992 100.813 128.992 102.008C128.992 103.203 128.97 104.099 128.928 104.696ZM131.168 89.592C131.168 89.8907 131.168 90.5307 131.168 91.512C131.21 92.4933 131.232 93.5387 131.232 94.648C131.232 95.7573 131.232 96.7813 131.232 97.72C131.232 98.6587 131.21 99.256 131.168 99.512C131.125 99.3413 131.082 98.7653 131.04 97.784C131.04 96.8027 131.04 95.7573 131.04 94.648C131.04 93.496 131.04 92.4293 131.04 91.448C131.082 90.424 131.125 89.8053 131.168 89.592ZM135.584 101.176C135.541 101.005 135.498 100.579 135.456 99.896C135.456 99.1707 135.456 98.424 135.456 97.656C135.456 96.8453 135.456 96.0773 135.456 95.352C135.498 94.6267 135.541 94.1573 135.584 93.944C135.584 94.2427 135.584 94.7547 135.584 95.48C135.626 96.1627 135.648 96.888 135.648 97.656C135.648 98.424 135.648 99.1493 135.648 99.832C135.648 100.472 135.626 100.92 135.584 101.176ZM128.416 90.168C128.373 89.9973 128.33 89.5707 128.288 88.888C128.288 88.1627 128.288 87.416 128.288 86.648C128.288 85.8373 128.288 85.0693 128.288 84.344C128.33 83.6187 128.373 83.128 128.416 82.872C128.416 83.2133 128.416 83.7467 128.416 84.472C128.458 85.1547 128.48 85.88 128.48 86.648C128.48 87.416 128.458 88.1413 128.416 88.824C128.416 89.464 128.416 89.912 128.416 90.168ZM133.984 94.712C133.898 94.6693 133.856 94.584 133.856 94.456C133.898 94.2853 133.941 94.1147 133.984 93.944C134.026 94.0293 134.048 94.1787 134.048 94.392C134.048 94.6053 134.026 94.712 133.984 94.712ZM133.088 92.344C133.045 92.3013 133.024 91.96 133.024 91.32C133.024 90.68 133.024 89.976 133.024 89.208C133.024 88.3973 133.024 87.6507 133.024 86.968C133.066 86.2853 133.088 85.9013 133.088 85.816C133.088 85.8587 133.088 86.2213 133.088 86.904C133.13 87.5867 133.152 88.3333 133.152 89.144C133.152 89.912 133.13 90.6373 133.088 91.32C133.088 92.0027 133.088 92.344 133.088 92.344ZM135.264 103.288C135.221 103.16 135.221 103.075 135.264 103.032C135.306 102.947 135.349 102.947 135.392 103.032C135.392 103.075 135.392 103.16 135.392 103.288C135.392 103.416 135.349 103.416 135.264 103.288ZM129.248 87.672C129.205 87.5013 129.205 87.3093 129.248 87.096C129.248 87.1813 129.248 87.288 129.248 87.416C129.29 87.5013 129.29 87.5867 129.248 87.672ZM134.112 84.6C134.069 84.6 134.026 84.5573 133.984 84.472C133.984 84.344 134.026 84.2373 134.112 84.152C134.24 84.4507 134.24 84.6 134.112 84.6ZM129.568 83.192C129.525 83.1067 129.525 83.0427 129.568 83C129.653 82.9573 129.696 82.9573 129.696 83C129.738 83.128 129.738 83.2347 129.696 83.32C129.696 83.3627 129.653 83.32 129.568 83.192ZM129.568 101.304C129.525 101.219 129.504 101.155 129.504 101.112C129.546 101.069 129.589 101.091 129.632 101.176C129.632 101.261 129.61 101.325 129.568 101.368C129.568 101.368 129.568 101.347 129.568 101.304ZM128.608 98.36C128.437 98.2747 128.437 98.1253 128.608 97.912C128.693 98.0827 128.693 98.232 128.608 98.36ZM132 100.92C132.554 100.92 132.832 101.197 132.832 101.752C132.832 102.307 132.554 102.584 132 102.584C131.445 102.584 131.168 102.307 131.168 101.752C131.168 101.197 131.445 100.92 132 100.92ZM147.424 97.016C147.466 97.6133 147.488 98.5307 147.488 99.768C147.488 101.005 147.488 102.285 147.488 103.608C147.488 104.931 147.466 106.147 147.424 107.256C147.424 108.323 147.424 108.963 147.424 109.176C147.424 108.792 147.402 108.045 147.36 106.936C147.36 105.827 147.36 104.653 147.36 103.416C147.36 102.136 147.36 100.899 147.36 99.704C147.36 98.5093 147.381 97.6133 147.424 97.016ZM140.768 107.768C140.725 107.469 140.682 106.979 140.64 106.296C140.64 105.571 140.64 104.824 140.64 104.056C140.64 103.288 140.64 102.563 140.64 101.88C140.682 101.197 140.725 100.728 140.768 100.472C140.768 100.685 140.768 101.133 140.768 101.816C140.81 102.499 140.832 103.245 140.832 104.056C140.832 104.867 140.832 105.635 140.832 106.36C140.832 107.085 140.81 107.555 140.768 107.768ZM142.368 106.936C142.41 107.021 142.41 107.149 142.368 107.32C142.368 107.448 142.368 107.597 142.368 107.768C142.282 107.683 142.24 107.533 142.24 107.32C142.24 107.107 142.282 106.979 142.368 106.936ZM140.96 98.68C140.917 98.5947 140.896 98.5093 140.896 98.424C140.896 98.296 140.938 98.296 141.024 98.424C141.109 98.552 141.13 98.6587 141.088 98.744C141.045 98.7867 141.002 98.7653 140.96 98.68ZM146.784 100.408C146.784 100.493 146.762 100.557 146.72 100.6C146.72 100.643 146.72 100.621 146.72 100.536C146.677 100.451 146.677 100.408 146.72 100.408C146.762 100.365 146.784 100.365 146.784 100.408ZM147.744 103.352C147.829 103.437 147.829 103.587 147.744 103.8C147.573 103.672 147.573 103.523 147.744 103.352ZM140.32 113.336C139.722 113.379 138.89 113.421 137.824 113.464C136.757 113.464 135.669 113.464 134.56 113.464C133.493 113.421 132.512 113.4 131.616 113.4C130.72 113.357 130.165 113.336 129.952 113.336C130.336 113.336 130.976 113.336 131.872 113.336C132.768 113.293 133.728 113.272 134.752 113.272C135.818 113.272 136.864 113.272 137.888 113.272C138.912 113.272 139.722 113.293 140.32 113.336ZM149.664 119.416C149.066 119.459 148.149 119.48 146.912 119.48C145.674 119.48 144.394 119.48 143.072 119.48C141.749 119.48 140.533 119.48 139.424 119.48C138.357 119.437 137.717 119.416 137.504 119.416C137.888 119.416 138.634 119.416 139.744 119.416C140.853 119.373 142.026 119.352 143.264 119.352C144.544 119.352 145.781 119.352 146.976 119.352C148.17 119.352 149.066 119.373 149.664 119.416ZM146.144 112.76C145.973 112.76 145.525 112.781 144.8 112.824C144.117 112.824 143.37 112.824 142.56 112.824C141.792 112.824 141.045 112.824 140.32 112.824C139.594 112.824 139.125 112.803 138.912 112.76C139.21 112.76 139.701 112.76 140.384 112.76C141.109 112.717 141.856 112.696 142.624 112.696C143.392 112.696 144.096 112.696 144.736 112.696C145.418 112.696 145.888 112.717 146.144 112.76ZM127.84 119.928C128.138 119.928 128.65 119.928 129.376 119.928C130.101 119.885 130.848 119.864 131.616 119.864C132.384 119.864 133.088 119.864 133.728 119.864C134.41 119.864 134.88 119.885 135.136 119.928C134.965 119.971 134.517 120.013 133.792 120.056C133.109 120.056 132.362 120.056 131.552 120.056C130.784 120.056 130.037 120.056 129.312 120.056C128.586 120.013 128.096 119.971 127.84 119.928ZM138.912 114.36C138.997 114.275 139.146 114.232 139.36 114.232C139.573 114.232 139.68 114.275 139.68 114.36C139.637 114.403 139.53 114.424 139.36 114.424C139.232 114.381 139.082 114.36 138.912 114.36ZM130.784 115.256C130.826 115.256 131.189 115.256 131.872 115.256C132.554 115.213 133.28 115.192 134.048 115.192C134.858 115.192 135.605 115.213 136.288 115.256C136.97 115.256 137.312 115.256 137.312 115.256C137.269 115.256 136.928 115.277 136.288 115.32C135.648 115.32 134.922 115.32 134.112 115.32C133.344 115.32 132.618 115.32 131.936 115.32C131.253 115.277 130.869 115.256 130.784 115.256ZM148.256 113.016C148.128 113.101 148.021 113.123 147.936 113.08C147.893 113.037 147.914 112.995 148 112.952C148.085 112.909 148.17 112.909 148.256 112.952C148.384 112.952 148.384 112.973 148.256 113.016ZM132.64 119.096C132.512 119.139 132.405 119.16 132.32 119.16C132.277 119.117 132.192 119.096 132.064 119.096C132.277 119.011 132.469 119.011 132.64 119.096ZM129.568 114.232C129.568 114.275 129.504 114.296 129.376 114.296C129.29 114.296 129.205 114.275 129.12 114.232C129.418 114.104 129.568 114.104 129.568 114.232ZM128.16 118.712C128.074 118.755 128.01 118.755 127.968 118.712C127.925 118.627 127.925 118.584 127.968 118.584C128.096 118.584 128.181 118.605 128.224 118.648C128.309 118.648 128.288 118.669 128.16 118.712ZM146.272 118.776C146.186 118.776 146.122 118.776 146.08 118.776C146.037 118.733 146.058 118.712 146.144 118.712C146.229 118.669 146.272 118.669 146.272 118.712C146.314 118.755 146.314 118.776 146.272 118.776ZM142.88 119.736C143.008 119.608 143.157 119.608 143.328 119.736C143.2 119.864 143.05 119.864 142.88 119.736Z" fill="white"/>
</svg>
